<svg xmlns="http://www.w3.org/2000/svg" id="master-artboard" x="0" y="0" version="1.1" viewBox="0 0 1990 1500" xml:space="preserve"><style>.st0{fill:#fff}.st1{fill:#1c75bc}.st2{fill:#27aae1}.st3{fill:none}.st4{fill:gray}.st5{fill:#c61653}.st6{fill:#da1c5c}.st7{fill:#f7b3cc}.st8{fill:#ee2a7b}.st9{fill:#7a1878}.st10{fill:#851f83}.st11{fill:#d82470}.st12{fill:#29aae2}.st13{fill:#1b75bc}.st14{fill:#ba1e50}.st15{fill:#fbb040}.st16{fill:#e9959d}.st17{fill:#b3b3b3}</style><path id="ee-background" d="M0 0h1990v1500H0z" class="st0"/><path d="M0 0h1990v1500H0V0z" class="st0"/><path d="M358.2 59.5c.3 0 .6.1.9.2.3.1.6.1.9.3.7.2 1.3.5 2.1.8.3.2.7.4 1.1.6.3.2.7.4 1.1.7.7.5 1.4 1.1 2.1 1.7.7.6 1.3 1.4 1.9 2.2s1.1 1.6 1.6 2.5.9 1.7 1.3 2.6c.8 1.7 1.3 3.5 1.7 5 .8 3 1 5.1 1 5.1 0-.2.2-2.3 1-5.3.4-1.6 1-3.4 1.8-5.2.4-.9.8-1.8 1.4-2.7.5-.9 1.1-1.8 1.7-2.6.6-.8 1.3-1.6 2-2.3s1.4-1.3 2.2-1.9c.4-.3.8-.5 1.1-.7.4-.2.8-.4 1.1-.6.8-.4 1.5-.7 2.2-.9.3-.1.7-.2 1-.3s.6-.2.9-.2c.6-.1 1.1-.2 1.5-.2.8-.1 1.3-.1 1.3-.1l-.7-5.6s-.6.1-1.6.4c-.5.1-1.1.4-1.9.6-.4.1-.7.3-1.1.5s-.8.3-1.2.6c-.8.4-1.7.9-2.5 1.5-.4.3-.9.6-1.3 1s-.8.7-1.2 1.1c-.8.8-1.6 1.7-2.2 2.6-.7.9-1.3 2-1.8 3v.1c.1-.3.2-.5.2-.8.4-1.1.8-2.1 1.2-3.1.2-.5.4-1 .7-1.5.2-.5.5-.9.7-1.4.5-.9 1-1.7 1.5-2.4.3-.3.5-.7.8-1s.5-.6.8-.8.5-.5.8-.7.5-.4.7-.5l.6-.3c.2-.1.4-.1.6-.2.3-.2.6-.2.8-.2.2 0 .3-.1.3-.1l-1.4-5.5s-.2.1-.5.2-.9.3-1.4.6c-.3.2-.6.3-.9.6-.3.2-.6.5-1 .8-.3.3-.7.6-1 1-.3.3-.6.7-1 1.1-.3.4-.6.8-.9 1.3s-.6.9-.8 1.4c-.5 1-1 2-1.4 3.1-.2.5-.4 1.1-.6 1.7-.2.6-.3 1.1-.5 1.7-.3 1.2-.5 2.3-.7 3.5-.5 2.7-.7 5.3-.9 7.8-.1-2.5-.4-5.1-.9-7.8-.2-1.2-.4-2.4-.7-3.5-.1-.6-.3-1.2-.5-1.7-.2-.6-.4-1.1-.6-1.7-.4-1.1-.9-2.1-1.4-3.1-.3-.5-.5-1-.8-1.4s-.6-.9-.9-1.3c-.3-.4-.6-.8-1-1.1s-.7-.7-1-1c-.4-.3-.7-.5-1-.8-.3-.2-.7-.4-.9-.6-.6-.4-1.1-.5-1.4-.6s-.5-.2-.5-.2l-1.4 5.5s.1 0 .3.1c.2.1.5.1.8.2.2.1.4.1.6.2l.6.3c.2.1.5.3.7.5.3.2.5.4.8.7.3.2.5.5.8.8s.5.6.8 1c.5.7 1.1 1.5 1.5 2.4.2.4.5.9.7 1.4s.5 1 .7 1.5c.4 1 .8 2.1 1.2 3.1.2.7.5 1.5.7 2.2-.1-.2-.2-.5-.4-.7-.5-1-1.1-2-1.8-2.8-.6-.9-1.4-1.7-2.2-2.5-.4-.4-.8-.7-1.2-1.1l-1.2-.9c-.8-.6-1.7-1.1-2.5-1.5-.4-.2-.8-.4-1.2-.5-.4-.2-.7-.3-1.1-.4-.7-.2-1.3-.4-1.8-.6-1-.2-1.6-.4-1.6-.4l-.7 5.6s.5 0 1.3.1c.1-.4.6-.3 1.1-.2zm85.3 198.6l-3.9-9.9-8.3-21.1-6.2-15.7-18.8-47.9-2.4-6.2-3.9-10.1-26-66.3-26 66.3-3.9 10.1-2.4 6.2-18.7 47.9-6.2 15.7-8.3 21.1-3.9 9.9-43.5 111v2.4c0 18.6 50.5 33.8 112.9 33.8s113-15.1 113-33.7v-2.4l-43.5-111.1z" class="st1" transform="matrix(1.21327 0 0 1.21327 150.714 148)"/><path d="M361.9 50.9c.2.1.4.1.6.2l.6.3c.2.1.5.3.7.5.3.2.5.4.8.7.3.2.5.5.8.8s.5.6.8 1c.5.7 1.1 1.5 1.5 2.4.2.4.5.9.7 1.4s.5 1 .7 1.5c.4 1 .8 2.1 1.2 3.1.2.7.5 1.5.7 2.2.4.7.7 1.5 1 2.3.4 1 .7 2 .9 3 .4 1.8.7 3.4.9 4.9 0 .2 0 .4.1.5 0 .5.1 1 .1 1.5 0-.5.1-1.1.1-1.7v-.4c.2-1.6.4-3.3.9-5.2.3-1 .6-2.1 1-3.1s.8-2.1 1.3-3.1c.1-.3.2-.5.2-.8.4-1.1.8-2.1 1.2-3.1.2-.5.4-1 .7-1.5.2-.5.5-.9.7-1.4.5-.9 1-1.7 1.5-2.4.3-.3.5-.7.8-1s.5-.6.8-.8.5-.5.8-.7.5-.4.7-.5l.6-.3c.2-.1.4-.1.6-.2.3-.2.6-.2.8-.2.2 0 .3-.1.3-.1l-1.4-5.5s-.2.1-.5.2-.9.3-1.4.6c-.3.2-.6.3-.9.6-.3.2-.6.5-1 .8-.3.3-.7.6-1 1-.3.3-.6.7-1 1.1-.3.4-.6.8-.9 1.3s-.6.9-.8 1.4c-.5 1-1 2-1.4 3.1-.2.5-.4 1.1-.6 1.7-.2.6-.3 1.1-.5 1.7-.3 1.2-.5 2.3-.7 3.5-.5 2.7-.7 5.3-.9 7.8-.1-2.5-.4-5.1-.9-7.8-.2-1.2-.4-2.4-.7-3.5-.1-.6-.3-1.2-.5-1.7-.2-.6-.4-1.1-.6-1.7-.4-1.1-.9-2.1-1.4-3.1-.3-.5-.5-1-.8-1.4s-.6-.9-.9-1.3c-.3-.4-.6-.8-1-1.1s-.7-.7-1-1c-.4-.3-.7-.5-1-.8-.3-.2-.7-.4-.9-.6-.6-.4-1.1-.5-1.4-.6s-.5-.2-.5-.2l-1.4 5.5s.1 0 .3.1c0 0 .3 0 .6.1zm12.2 200.6c25.4 0 48.1-3.4 63.3-8.8l2.2 5.5-8.3-21.1c-14.5 4.5-34.8 7.3-57.3 7.3s-42.8-2.8-57.3-7.3l-8.3 21.1 2.2-5.5c15.4 5.4 38.1 8.8 63.5 8.8zm26-104.2l-26-66.3-26 66.3c7.9 1.1 16.7 1.7 26 1.7 9.3-.1 18.1-.7 26-1.7zm-39-33c4.2.3 8.6.5 13 .5 4.5 0 8.9-.2 13-.5l6.5 16.6c-6.1.6-12.7 1-19.5 1s-13.4-.3-19.5-1l6.5-16.6zm64.1 97.1l-18.8-47.9c-9.6 1.6-20.6 2.5-32.3 2.5s-22.8-.9-32.3-2.5L323 211.4c13.5 3.6 31.4 5.9 51.1 5.9 19.7 0 37.6-2.2 51.1-5.9zm-89.7-31.8c11.1 2.2 24.3 3.5 38.6 3.5s27.6-1.3 38.6-3.5l6.3 16c-12.4 2.9-28 4.6-44.9 4.6s-32.5-1.7-44.9-4.6l6.3-16zm108 78.5c-15.7 6.3-41 10.5-69.4 10.5s-53.7-4.1-69.4-10.5l-43.5 111v2.4c0 18.6 50.5 33.8 112.9 33.8S487 390.2 487 371.6v-2.4l-43.5-111.1z" class="st2" transform="matrix(1.21327 0 0 1.21327 150.714 148)"/><path d="M393.7 130.9l-6.5-16.6c-4.2.3-8.6.5-13 .5-4.5 0-8.9-.2-13-.5l-6.5 16.6c6.1.6 12.7 1 19.5 1 6.8-.1 13.4-.4 19.5-1zm-35.5-71.4c.3 0 .6.1.9.2.3.1.6.1.9.3.7.2 1.3.5 2.1.8.3.2.7.4 1.1.6.3.2.7.4 1.1.7.7.5 1.4 1.1 2.1 1.7.7.6 1.3 1.4 1.9 2.2s1.1 1.6 1.6 2.5.9 1.7 1.3 2.6c.8 1.7 1.3 3.5 1.7 5 .8 3 1 5.1 1 5.1 0-.2.2-2.3 1-5.3.4-1.6 1-3.4 1.8-5.2.4-.9.8-1.8 1.4-2.7.5-.9 1.1-1.8 1.7-2.6.6-.8 1.3-1.6 2-2.3s1.4-1.3 2.2-1.9c.4-.3.8-.5 1.1-.7.4-.2.8-.4 1.1-.6.8-.4 1.5-.7 2.2-.9.3-.1.7-.2 1-.3s.6-.2.9-.2c.6-.1 1.1-.2 1.5-.2.8-.1 1.3-.1 1.3-.1l-.7-5.6s-.6.1-1.6.4c-.5.1-1.1.4-1.9.6-.4.1-.7.3-1.1.5s-.8.3-1.2.6c-.8.4-1.7.9-2.5 1.5-.4.3-.9.6-1.3 1s-.8.7-1.2 1.1c-.8.8-1.6 1.7-2.2 2.6-.7.9-1.3 2-1.8 3v.1c-.5 1-1 2.1-1.3 3.1-.4 1-.7 2.1-1 3.1-.5 1.9-.7 3.7-.9 5.2v.4c-.1.6-.1 1.2-.1 1.7 0-.5-.1-1-.1-1.5 0-.2 0-.3-.1-.5-.2-1.5-.4-3.1-.9-4.9-.3-1-.5-2-.9-3-.3-.8-.6-1.5-1-2.3-.1-.2-.2-.5-.4-.7-.5-1-1.1-2-1.8-2.8-.6-.9-1.4-1.7-2.2-2.5-.4-.4-.8-.7-1.2-1.1l-1.2-.9c-.8-.6-1.7-1.1-2.5-1.5-.4-.2-.8-.4-1.2-.5-.4-.2-.7-.3-1.1-.4-.7-.2-1.3-.4-1.8-.6-1-.2-1.6-.4-1.6-.4l-.7 5.6s.5 0 1.3.1c.3-.3.8-.2 1.3-.1zm81.5 188.8l-2.2-5.5c-15.2 5.4-38 8.8-63.3 8.8-25.4 0-48.1-3.4-63.3-8.8l-2.2 5.5-3.9 9.9c15.7 6.3 41 10.5 69.4 10.5s53.7-4.1 69.4-10.5l-3.9-9.9zm-33.2-84.8l-2.4-6.2-3.9-10.1c-7.9 1.1-16.7 1.7-26 1.7s-18-.6-26-1.7l-3.9 10.1-2.4 6.2c9.6 1.6 20.6 2.5 32.3 2.5s22.7-.9 32.3-2.5zm12.5 32.1l-6.3-16c-11.1 2.2-24.3 3.5-38.6 3.5s-27.6-1.3-38.6-3.5l-6.3 16c12.4 2.9 28 4.6 44.9 4.6 17 0 32.5-1.7 44.9-4.6zm12.4 31.5l-6.2-15.7c-13.5 3.6-31.4 5.9-51.1 5.9s-37.6-2.2-51.1-5.9l-6.2 15.7c14.5 4.5 34.8 7.3 57.3 7.3s42.8-2.8 57.3-7.3z" class="st1" transform="matrix(1.21327 0 0 1.21327 150.714 148)"/><path d="M139.8 796.9c-2.3.6-4.4-1.5-3.8-3.7l.7-2.7h-.4c-1.8 0-3.6-.2-5.5-.5-1.3 1.5-2.7 2.9-4.2 4.1l2.2 1.6c1.9 1.4 1.7 4.3-.5 5.3l-4.5 2.1 56.3 122-35.6-129.6-4.7 1.4zM176.4 785.3l1.4-2.4c-5-1.3-9.9-3.9-14.6-7.8-3.5 4.9-7.5 8.8-12 11.4l2 1.9c1.7 1.7.9 4.5-1.3 5.2L147 795l37.1 135.2V790h-5c-2.4 0-3.8-2.6-2.7-4.7zM219.5 761.7c-7.8 11.4-16.9 18.8-26.6 21.3l1.4 2.4c1.2 2.1-.3 4.6-2.7 4.6h-5v142.9l53-132.7-4.6-1.9c-2.2-.9-2.6-3.8-.8-5.3l2.2-1.7c-8.2-5.9-14-16.1-16.9-29.6z" class="st3" transform="matrix(1.21327 0 0 1.21327 150.714 148)"/><path d="M239.5 800.1l-53 132.7V790h-2.4v140.2L147 795l-2.4.6 35.6 129.6-56.3-122-2.2 1 62.5 135.5c0 .1.1.1.1.1l.1.1.1.1s.1 0 .1.1h1l.1-.1.1-.1s0-.1.1-.1v-.2L241.2 801l-1.7-.9z" class="st4" transform="matrix(1.21327 0 0 1.21327 150.714 148)"/><path d="M151.2 786.6c-2.2 1.3-4.6 2.3-7 2.9-2.4.7-4.9 1-7.5 1l-.7 2.7c-.6 2.3 1.5 4.4 3.8 3.7l4.8-1.3 2.4-.6 4.8-1.3c2.3-.6 3-3.5 1.3-5.2l-1.9-1.9zm99.4 13l-.4-2.7c-2.6-.3-5-.9-7.3-1.9-2.3-.9-4.6-2.2-6.6-3.7l-2.2 1.7c-1.9 1.5-1.4 4.4.8 5.3l4.6 1.9 2.3.9 4.6 1.9c2.2.8 4.6-1 4.2-3.4zm-121.7-3.8l-2.2-1.6c-2 1.6-4.1 3-6.4 4-2.3 1.1-4.7 1.8-7.2 2.2l-.3 2.8a3.1 3.1 0 0 0 4.4 3.1l4.5-2.1 2.2-1 4.5-2.1c2.2-1 2.5-3.9.5-5.3zm64-12.8c-2.5.6-5 1-7.5 1s-5-.3-7.5-1l-1.4 2.4c-1.2 2.1.3 4.6 2.7 4.6h12.4c2.4 0 3.9-2.6 2.7-4.6l-1.4-2.4z" class="st5" transform="matrix(1.21327 0 0 1.21327 150.714 148)"/><path d="M109.2 662c1-.3 2.1.3 2.4 1.4.3 1-.3 2.1-1.4 2.4-3.9 1.1-7.6 2.7-11 4.8 14.4 4.2 26.6 14.4 33 28.4.2.4.4.8.6 1.3v-1.4c0-14 5.5-26.7 14.4-36.1-7.6-4.4-16.4-6.8-25.6-6.8-4.6 0-9.2.6-13.7 1.9-7.6 2.1-14.5 5.8-20.2 10.8 2.1.1 4.2.4 6.2.8 4.7-3.6 9.8-6 15.3-7.5zm212.6 33.6c-5.4-12.6-15.5-22.4-28.3-27.5-6.1-2.4-12.6-3.7-19.1-3.7-10.2 0-20.1 3-28.6 8.7-4 2.7-7.6 5.8-10.6 9.4.6 1.8 1.1 3.6 1.5 5.4.7-.6 1.7-.7 2.4-.1.9.6 1.1 1.9.4 2.7-.7 1-1.4 2-2 3 .2 1.8.3 3.5.3 5.3 0 20.3-5.6 41.5-15.3 58-.8 1.3-1.5 2.6-2.3 3.8 2.9 13.9 8.7 24.2 16.9 30.1 1.9 1.4 4 2.5 6.2 3.4s4.5 1.5 6.8 1.8c1.4.2 2.7.3 4.1.3 11.9 0 25.5-6.5 38.4-18.2 12.7-11.5 23.2-26.8 29.7-43 5.1-12.8 4.9-26.8-.5-39.4zM293 674.7c-.4 1-1.5 1.5-2.5 1.1-15.3-6.1-33-2.9-45.1 8.2-.4.3-.8.5-1.3.5s-1.1-.2-1.4-.6c-.7-.8-.7-2 .1-2.8 6.4-5.9 14.4-9.9 23-11.5 8.8-1.7 17.9-.8 26.3 2.5.8.5 1.3 1.6.9 2.6zm-150.9 70.1c0-.5 0-1-.1-1.4 0-.5 0-1-.1-1.5-.7-12.2-3.4-24.7-8-36.3-.2-.5-.4-.9-.6-1.4-.2-.4-.4-.9-.5-1.3-.5-1.2-1-2.3-1.5-3.5-6.4-14-18.8-24.1-33.2-28.1-1.7-.5-3.4-.9-5.2-1.1-2-.3-4.1-.6-6.2-.6h-2.2c-7.5 0-14.7 1.6-21.6 4.8-12.5 5.8-22 16.1-26.8 29-4.7 12.6-4.1 26.6 1.7 39.1 14.9 32.2 45.4 57.5 69.4 57.5 2 0 4-.2 5.9-.5 2.4-.4 4.6-1.1 6.7-2.1s4.1-2.2 6-3.7c1.4-1.1 2.7-2.4 3.9-3.7.1-.1.2-.3.4-.4.1-.1.2-.3.4-.4 6-7.3 9.9-17.9 11.2-31.1.4-4.5.6-8.9.4-13.3zm-97.7-3.2c-.3.1-.5.2-.8.2-.7 0-1.4-.4-1.8-1.1-1.7-3.6-2.9-7.4-3.6-11.2-.2-1.1.5-2.1 1.6-2.3s2.1.5 2.3 1.6c.6 3.5 1.7 7 3.3 10.3.4.9 0 2.1-1 2.5zm22.1-59.9c-14.9 6.9-24.7 22-25.1 38.4 0 1.1-.9 1.9-2 1.9s-1.9-.9-1.9-2c.2-8.7 2.7-17.2 7.5-24.6 4.8-7.6 11.7-13.6 19.9-17.3 1-.5 2.1 0 2.6 1 .4 1 0 2.2-1 2.6zm170.4 17.1c0-1.3 0-2.6-.1-3.9-.2-2.1-.4-4.1-.8-6-.4-1.9-.8-3.7-1.4-5.5-.1-.2-.1-.4-.2-.5-.1-.2-.1-.4-.2-.5-6.9-20.3-26.2-35-48.8-35-14.3 0-27.2 5.8-36.5 15.2l-.3.3-.4.4c-8.9 9.3-14.3 21.8-14.3 35.6 0 1.3 0 2.5.1 3.8 5.6 13.3 8.8 27.9 9.2 42 1.7 4.1 3.7 8 5.9 11.7 4.2 7.2 9 13.1 14.1 17.5l.3.3c.1.1.3.2.4.3 4.6 3.8 9.5 6.4 14.5 7.7 2.3.6 4.7.9 7 .9 2.4 0 4.7-.3 7-.9 9.7-2.4 19-9.9 26.8-21.7.1-.2.3-.4.4-.6.1-.2.3-.4.4-.6.6-.9 1.2-1.9 1.8-2.9 9.5-16.5 15.1-37.5 15.1-57.6zm-93.4-10.7c-.9 3.5-1.3 7.1-1.3 10.7 0 1.1-.9 2-2 2s-2-.9-2-2c0-3.9.5-7.9 1.5-11.7.3-1 1.3-1.7 2.4-1.4 1 .3 1.7 1.3 1.4 2.4zm41.8-32.5c-11.1 0-21.7 4.4-29.6 11.8l-.3.3-.4.4c-3.5 3.4-6.4 7.4-8.6 11.9-.3.7-1 1.1-1.8 1.1-.3 0-.6-.1-.9-.2-1-.5-1.4-1.6-.9-2.6 2.3-4.7 5.3-8.9 9-12.6.1-.1.2-.3.4-.4l.3-.3c2.3-2.2 4.7-4.2 7.4-5.9 7.6-4.8 16.3-7.4 25.3-7.4 1.1 0 2 .9 2 2 .1 1-.8 1.9-1.9 1.9zm-37.2 101.2c-1.8-3.1-3.5-6.3-5-9.7 0 3.7-.1 7.3-.5 10.9-1.3 13.1-5.1 23.8-11.1 31.2 1.6.2 3.2.4 4.7.4h.6c2.4 0 4.7-.4 7-1s4.4-1.5 6.5-2.7c4.5-2.5 8.5-6.3 12-11.3-5-4.5-9.8-10.4-14.2-17.8z" class="st6" transform="matrix(1.21327 0 0 1.21327 150.714 148)"/><path d="M64.8 678.2c-8.2 3.8-15 9.8-19.9 17.3-4.7 7.4-7.3 15.9-7.5 24.6 0 1.1.8 2 1.9 2 1.1 0 1.9-.9 2-1.9.3-16.5 10.2-31.6 25.1-38.4 1-.5 1.4-1.6 1-2.6-.4-1.1-1.6-1.5-2.6-1zm-22.7 50.5c-.2-1.1-1.2-1.8-2.3-1.6s-1.8 1.2-1.6 2.3c.7 3.9 1.9 7.6 3.6 11.2.3.7 1 1.1 1.8 1.1.3 0 .6-.1.8-.2 1-.5 1.4-1.6 1-2.6-1.5-3.2-2.6-6.6-3.3-10.2zm100-43c-1-.3-2.1.4-2.4 1.4-1 3.8-1.5 7.7-1.5 11.7 0 1.1.9 2 2 2s2-.9 2-2c0-3.6.5-7.2 1.3-10.7.3-1.1-.4-2.1-1.4-2.4zm43.2-34c-9 0-17.8 2.6-25.3 7.4-2.7 1.7-5.2 3.7-7.4 5.9l-.3.3-.4.4c-3.6 3.7-6.7 7.9-9 12.6-.5 1-.1 2.1.9 2.6.3.1.6.2.9.2.7 0 1.4-.4 1.8-1.1 2.2-4.5 5.1-8.5 8.6-11.9l.4-.4.3-.3c7.9-7.4 18.5-11.8 29.6-11.8 1.1 0 2-.9 2-2-.1-1-1-1.9-2.1-1.9zm137.4 43.5c-5.5-12.9-15.8-22.9-28.8-28.1-6.2-2.5-12.8-3.8-19.5-3.8-10.4 0-20.5 3.1-29.1 8.8-3.9 2.6-7.4 5.7-10.4 9.2-7.2-20.4-26.7-35.1-49.5-35.1-14.6 0-27.9 6-37.4 15.7-7.8-4.5-16.8-7.1-26.3-7.1-4.7 0-9.4.6-13.9 1.9-8.1 2.2-15.3 6.2-21.4 11.7h-1.9c-7.6 0-15 1.6-22 4.8-12.7 5.9-22.4 16.4-27.3 29.5-4.8 13.2-4.3 27.4 1.6 40.2 15 32.6 45.9 58.1 70.3 58.1 2 0 3.9-.2 5.8-.5 2.5-.5 5-1.2 7.2-2.2 2.3-1.1 4.4-2.4 6.4-4 1.5-1.2 2.9-2.6 4.2-4.1 1.8.3 3.7.5 5.5.5h.4c2.6 0 5.1-.4 7.5-1 2.4-.7 4.8-1.7 7-2.9 4.5-2.6 8.5-6.4 12-11.4 4.6 3.8 9.6 6.5 14.6 7.8 2.5.6 5 1 7.5 1s5-.3 7.5-1c9.7-2.5 18.8-9.8 26.6-21.3 3 13.5 8.8 23.7 16.8 29.6 2.1 1.5 4.3 2.8 6.6 3.7s4.8 1.5 7.3 1.9c1.3.2 2.6.3 4 .3 12.1 0 26-6.5 39.1-18.4 12.8-11.6 23.4-27 29.9-43.3 5.4-13.4 5.3-27.6-.3-40.5zM108 657.7c4.5-1.2 9.1-1.9 13.7-1.9 9.2 0 18 2.5 25.6 6.8-8.9 9.4-14.4 22.1-14.4 36.1v1.4c-.2-.4-.4-.9-.6-1.3-6.4-14-18.7-24.2-33-28.4 3.4-2.1 7.1-3.7 11-4.8 1-.3 1.7-1.4 1.4-2.4-.3-1-1.4-1.7-2.4-1.4-5.5 1.5-10.6 4-15.2 7.3-2-.4-4.1-.6-6.2-.8 5.6-4.8 12.5-8.5 20.1-10.6zM130.5 789c-.1.1-.2.3-.4.4-.1.1-.2.3-.4.4-1.2 1.4-2.5 2.6-3.9 3.7-1.9 1.5-3.9 2.8-6 3.7-2.1 1-4.4 1.7-6.7 2.1-1.9.4-3.9.5-5.9.5-24.1 0-54.6-25.3-69.4-57.5-5.8-12.3-6.4-26.3-1.6-39.2s14.3-23.2 26.8-29c6.8-3.2 14.1-4.8 21.6-4.8h2.2c2.1.1 4.1.3 6.2.6 1.8.3 3.5.7 5.2 1.1 14.5 4 26.8 14.1 33.2 28.1.5 1.1 1 2.3 1.5 3.5.2.4.4.9.5 1.3.2.5.4.9.6 1.4 4.5 11.6 7.3 24.1 8 36.3 0 .5.1 1 .1 1.5s0 1 .1 1.4c.1 4.5 0 8.9-.4 13.1-1.4 13.5-5.3 24.1-11.3 31.4zm20-3.2c-2.1 1.2-4.3 2.1-6.5 2.7-2.3.6-4.6 1-7 1h-.6c-1.6 0-3.1-.1-4.7-.4 5.9-7.4 9.8-18.1 11.1-31.2.4-3.5.5-7.2.5-10.9 1.5 3.4 3.2 6.6 5 9.7 4.3 7.4 9.2 13.3 14.4 17.8-3.7 5-7.7 8.8-12.2 11.3zm69.1-26c-.1.2-.3.4-.4.6-7.8 11.8-17.1 19.3-26.8 21.7-2.3.6-4.7.9-7 .9-2.4 0-4.7-.3-7-.9-5-1.3-9.9-3.9-14.5-7.7-.1-.1-.3-.2-.4-.3l-.3-.3c-5.1-4.4-9.8-10.2-14.1-17.5-2.2-3.7-4.1-7.6-5.9-11.7-.5-14.1-3.7-28.7-9.2-42 0-1.3-.1-2.5-.1-3.8 0-13.8 5.5-26.4 14.3-35.6.1-.1.2-.3.4-.4l.3-.3c9.3-9.4 22.3-15.2 36.5-15.2 22.6 0 41.9 14.7 48.8 35 .1.2.1.4.2.5.1.2.1.4.2.5.6 1.8 1 3.7 1.4 5.5.4 2 .7 4 .8 6 .1 1.3.1 2.6.1 3.9 0 20.1-5.5 41.1-15.2 57.5-.6 1-1.2 2-1.8 2.9-.1.3-.2.5-.3.7zM322.3 735c-6.5 16.2-17 31.4-29.7 43-12.9 11.7-26.5 18.2-38.4 18.2-1.4 0-2.8-.1-4.1-.3-2.4-.3-4.7-.9-6.8-1.8-2.2-.9-4.2-2-6.2-3.4-8.1-5.9-14-16.3-16.9-30.1.8-1.2 1.6-2.5 2.3-3.8 9.7-16.6 15.3-37.7 15.3-58 0-1.8-.1-3.6-.3-5.3.6-1 1.3-2 2-3 .6-.9.4-2.1-.4-2.7-.8-.5-1.8-.5-2.4.1-.4-1.8-.9-3.6-1.5-5.4 3.1-3.6 6.6-6.8 10.6-9.4 8.5-5.7 18.4-8.7 28.6-8.7 6.5 0 13 1.2 19.1 3.7 12.8 5.1 22.8 14.9 28.3 27.5 5.4 12.6 5.6 26.6.5 39.4zm-30.4-62.8c-8.4-3.3-17.4-4.2-26.3-2.5-8.6 1.6-16.5 5.6-23 11.5-.8.7-.9 2-.1 2.8.4.4.9.6 1.4.6s.9-.2 1.3-.5c12.2-11.1 29.9-14.3 45.1-8.2 1 .4 2.1-.1 2.5-1.1.6-1.1.1-2.2-.9-2.6z" class="st7" transform="matrix(1.21327 0 0 1.21327 150.714 148)"/><path d="M639.9 237.1l2.1 2.4-4.2-4.8-7.1-8h-97.6l-7.1 8-.2.2-11.1 12.6v20.8h3.9v81.8h126.5v-81.8h4v-20.8l-9.2-10.4z" class="st8" transform="matrix(1.21327 0 0 1.21327 150.714 148)"/><path d="M592 247.5h57v20.8h-57v-20.8zM514.7 247.5h57v20.8h-57v-20.8z" class="st9" transform="matrix(1.21327 0 0 1.21327 150.714 148)"/><path d="M642 239.5h-51l1 8h57.1l-9.2-10.4 2.1 2.4zM592 268.3h53.1v81.8H592v-81.8zM518.6 268.3h53.1v81.8h-53.1v-81.8zM525.8 234.9l-11.1 12.6h57l1.1-8h-51.1l4.1-4.6zM630.7 226.7h-41.4l1 8h47.5l-7.1-8zM526 234.7h47.4l1.1-8h-41.4l-7.1 8z" class="st10" transform="matrix(1.21327 0 0 1.21327 150.714 148)"/><path d="M590.3 234.7l.7 4.8h51l-4.2-4.8h-47.5zM571.7 247.5H592v20.8h-20.3v-20.8zM573.4 234.7H526l-.2.2-4.1 4.6h51.1l.6-4.8z" class="st11" transform="matrix(1.21327 0 0 1.21327 150.714 148)"/><path d="M571.7 268.3H592v81.8h-20.3v-81.8zM590.3 234.7l-1-8h-14.8l-1.1 8-.6 4.8-1.1 8H592l-1-8-.7-4.8z" class="st8" transform="matrix(1.21327 0 0 1.21327 150.714 148)"/><g><path d="M1386.4 227.9l1.7 2.7-3.3-5.4-5.6-9.2-96-17.6-8.4 6.6-.2.2-13.2 10.3-3.8 20.5 4 .7-14.8 80.4 124.4 22.8 14.7-80.4 4 .7 3.7-20.4-7.2-11.9z" class="st8" transform="matrix(1.21327 0 0 1.21327 150.714 148)"/><path d="M1389.8 260.3l-56.1-10.3 3.8-20.5 56.1 10.3-3.8 20.5zM1313.7 246.3l-56.1-10.3 3.8-20.5 56.1 10.3-3.8 20.5z" class="st9" transform="matrix(1.21327 0 0 1.21327 150.714 148)"/><path d="M1388.1 230.6l-50.2-9.2-.4 8.1 56.1 10.3-7.2-11.9 1.7 2.7zM1371.1 340l-52.2-9.6 14.8-80.5 52.2 9.6-14.8 80.5zM1299 326.8l-52.2-9.6 14.8-80.5 52.2 9.6-14.8 80.5zM1274.6 205.2l-13.2 10.3 56.1 10.3 2.5-7.7-50.2-9.2 4.8-3.7zM1379.2 216l-40.7-7.5-.4 8.1 46.7 8.6-5.6-9.2zM1274.8 205l46.7 8.6 2.5-7.7-40.8-7.5-8.4 6.6z" class="st10" transform="matrix(1.21327 0 0 1.21327 150.714 148)"/><path d="M1338.1 216.6l-.2 4.8 50.2 9.2-3.3-5.4-46.7-8.6zM1333.7 250l-20-3.7 3.8-20.5 20 3.7-3.8 20.5zM1321.5 213.6l-46.7-8.6-.2.2-4.8 3.7 50.2 9.2 1.5-4.5z" class="st11" transform="matrix(1.21327 0 0 1.21327 150.714 148)"/><path d="M1318.9 330.5l-20-3.7 14.8-80.5 20 3.7-14.8 80.5zM1338.1 216.6l.4-8.1-14.5-2.6-2.5 7.7-1.5 4.5-2.5 7.7 20 3.7.4-8.1.2-4.8z" class="st8" transform="matrix(1.21327 0 0 1.21327 150.714 148)"/></g><g><path d="M723.5 785.2l-.1-.2-7.1-8h-97.6l-7.1 8-4.3 4.8 2.1-2.4-9.2 10.4v20.8h4v81.8h126.5v-81.8h4v-20.8l-11.2-12.6z" class="st8" transform="matrix(1.21327 0 0 1.21327 150.714 148)"/><path d="M677.6 797.8h57v20.8h-57v-20.8zM600.2 797.8h57v20.8h-57v-20.8z" class="st9" transform="matrix(1.21327 0 0 1.21327 150.714 148)"/><path d="M611.6 785H659l1.1-8h-41.4l-7.1 8zM609.4 787.4l-9.2 10.4h57.1l1.1-8h-51.1l2.1-2.4zM734.7 797.8l-11.2-12.6 4.1 4.6h-51l1 8h57.1zM716.3 777h-41.5l1.1 8h47.5l-7.1-8zM677.6 818.6h53.1v81.8h-53.1v-81.8zM604.2 818.6h53.1v81.8h-53.1v-81.8z" class="st10" transform="matrix(1.21327 0 0 1.21327 150.714 148)"/><path d="M727.6 789.8l-4.1-4.6-.1-.2h-47.5l.7 4.8h51zM657.3 797.8h20.3v20.8h-20.3v-20.8zM659 785h-47.4l-4.3 4.8h51.1l.6-4.8z" class="st11" transform="matrix(1.21327 0 0 1.21327 150.714 148)"/><path d="M676.6 789.8l-.7-4.8-1.1-8h-14.7l-1.1 8-.6 4.8-1.1 8h20.3l-1-8zM657.3 818.6h20.3v81.8h-20.3v-81.8z" class="st8" transform="matrix(1.21327 0 0 1.21327 150.714 148)"/></g><g><path d="M1040.7 356.6l3.7 4.1-5.5-6.2-9.2-10.3h-126l-9.2 10.3-5.4 6.2 3.6-4.1-12.8 14.4v26.9h5.2v105.6h163.3V397.9h5.1V371l-12.8-14.4z" class="st8" transform="matrix(1.21327 0 0 1.21327 150.714 148)"/><path d="M879.9 371h73.7v26.8h-73.7V371zM979.9 371h73.7v26.8h-73.7V371z" class="st9" transform="matrix(1.21327 0 0 1.21327 150.714 148)"/><path d="M885.1 397.9h68.5v105.6h-68.5V397.9zM892.7 356.6L879.9 371h73.7l1.4-10.3h-65.9l3.6-4.1zM894.5 354.5h61.3l1.4-10.3h-53.5l-9.2 10.3zM1053.5 371l-12.8-14.4 3.7 4.1h-65.9l1.4 10.3h73.6zM1029.7 344.2h-53.4l1.3 10.3h61.3l-9.2-10.3zM979.9 397.9h68.5v105.6h-68.5V397.9z" class="st10" transform="matrix(1.21327 0 0 1.21327 150.714 148)"/><path d="M955.8 354.5h-61.3l-5.4 6.2H955l.8-6.2zM953.6 371h26.3v26.8h-26.3V371zM977.6 354.5l.9 6.2h65.9l-5.5-6.2h-61.3z" class="st11" transform="matrix(1.21327 0 0 1.21327 150.714 148)"/><path d="M977.6 354.5l-1.3-10.3h-19.1l-1.4 10.3-.8 6.2-1.4 10.3h26.3l-1.4-10.3-.9-6.2zM953.6 397.9h26.3v105.6h-26.3V397.9z" class="st8" transform="matrix(1.21327 0 0 1.21327 150.714 148)"/></g><g><path d="M1039-10.4c-1.5 8.8.6 17.8 6 25l76.5 103.9c12.2 16.5 16.9 37.5 12.8 57.6L1113.4 281c-2.7 14-15.7 23.4-29.9 21.7-27-3.1-45.9-3.4-46.5-.1-.8 4.6 34.4 14.6 78.8 22.2s80.8 9.9 81.7 5.1c.6-3.4-17.4-9.4-43.9-15.3-13.9-3.1-23-16.4-21-30.4l15.1-105.9c2.9-20.3 14.2-38.6 31.2-50.1l82.4-56.2 3.5-2.4 3.1-2.1 16.6-11.4.9-.6c1-.7 2-1.4 3-2.2 4-3.5 7.2-7.9 9.2-12.9.8-2.1 1.4-4.3 1.8-6.6L1039-10.4z" class="st12" transform="matrix(1.21327 0 0 1.21327 150.714 148)"/><path d="M1305.9-14.4c-26.5-4.6-51.7 13.4-56.2 39.9l49.9 8.5c-.4 2.3-1 4.5-1.8 6.6l4.3 29.1c.3 2.4-.4 4.7-2 6.5-1.7 1.7-4 2.6-6.3 2.4s-4.6-.6-6.8-1.2c-2.3-.6-4.2-2.1-5.2-4.3-1-2.2-.9-4.7.2-6.8l6.8-12.8c-.9.8-1.9 1.6-3 2.2l-.9.6-4.7 9c-1.1 2.1-3.1 3.6-5.5 4-2.3.4-4.6-.2-6.5-1.7l-3.1 2.1c6.7 6.1 15.1 10.4 24.6 12 26.5 4.6 51.7-13.4 56.2-39.9 4.3-26.5-13.5-51.6-40-56.2zm31.5 32.9c2.1 1 3.7 2.9 4.2 5.2.6 2.2.9 4.6 1 6.9.2 2.4-.7 4.7-2.6 6.4-1.8 1.6-4.1 2.3-6.5 1.9l-32.7-5.5 29.7-14.7c2.3-1.2 4.8-1.3 6.9-.2zM1320.9-2c.9-.2 1.8-.2 2.7 0 1.4.3 2.7.8 3.8 1.8 1.7 1.5 3.3 3.1 4.8 5 1.5 1.8 2.1 4.2 1.6 6.5s-2.1 4.3-4.2 5.4l-29.7 14.7 15.3-29.3c1.3-2.2 3.3-3.7 5.7-4.1zm-58.8 28.6c-2.4-.4-4.4-1.9-5.5-3.9-1.1-2.1-1.3-4.6-.3-6.8.9-2.1 2-4.1 3.2-6.1 1.3-2 3.3-3.3 5.7-3.6.8-.1 1.5 0 2.2 0 1.6.3 3 1 4.3 2.3l23.1 23.6-32.7-5.5zm11-19.6c-1.7-1.7-2.5-4.1-2.1-6.5.3-2.4 1.7-4.4 3.7-5.6 2-1.1 4.1-2.2 6.2-3 1.4-.6 2.8-.7 4.2-.5.9.1 1.7.5 2.6.9 2.1 1.2 3.5 3.3 3.8 5.6l4.8 32.8L1273.1 7zm25.1 23.4l-4.8-32.8c-.3-2.4.4-4.7 2-6.5 1.7-1.7 4-2.6 6.3-2.4 1.1.1 2.3.3 3.4.5s2.3.4 3.4.7c2.3.6 4.2 2.1 5.2 4.3 1 2.2.9 4.7-.2 6.8l-15.3 29.4zm22.5 42c-2 1.1-4.1 2.2-6.2 3-2.2.9-4.7.7-6.8-.4s-3.5-3.3-3.8-5.6l-4.8-32.8 23.2 23.6c1.7 1.7 2.5 4.1 2.1 6.5-.3 2.4-1.6 4.5-3.7 5.7zm18.4-20.9c-.9 2.1-2 4.1-3.2 6.1-1.3 2-3.3 3.3-5.7 3.6-2.4.3-4.7-.6-6.4-2.3l-23.1-23.6 32.7 5.5c2.4.4 4.4 1.9 5.5 3.9 1 2.1 1.1 4.6.2 6.8z" class="st13" transform="matrix(1.21327 0 0 1.21327 150.714 148)"/><path d="M1268 67.6c1.8 1.5 4.1 2.1 6.5 1.7 2.4-.4 4.3-1.9 5.5-4l4.7-9-16.7 11.3zm39.7 7.4c2.1 1.2 4.5 1.4 6.8.4 2.1-.9 4.2-1.9 6.2-3 2.1-1.2 3.4-3.2 3.7-5.6.3-2.4-.5-4.8-2.1-6.5l-23.2-23.6 4.8 32.8c.4 2.2 1.8 4.2 3.8 5.5zm-21 2.3c2.2.6 4.5 1 6.8 1.2 2.4.2 4.7-.6 6.3-2.4 1.7-1.7 2.4-4.1 2-6.5l-4.3-29.1c-1.9 5-5.1 9.4-9.2 12.9l-6.8 12.8c-1.1 2.1-1.2 4.6-.2 6.8 1.2 2.2 3.1 3.7 5.4 4.3zm-22.6-14.1c.1-.2.2-.4.2-.6l-201.8-34.4c-.1.2 0 .4 0 .6l1 1.3 49.6 67.5c18.7 25.4 54.1 31.4 80.2 13.6l63.9-43.6 3.4-2.3 1.9-1.3 1.1-.8h.5zm78.5-32.7c-.1-2.3-.5-4.6-1-6.9-.5-2.3-2.1-4.3-4.2-5.2-2.2-1-4.7-1-6.8.1l-29.7 14.7 32.7 5.5c2.4.4 4.7-.3 6.5-1.9 1.8-1.6 2.7-3.9 2.5-6.3zm-12.5 30.7c2.3-.2 4.4-1.5 5.7-3.6 1.2-2 2.3-4 3.2-6.1 1-2.2.8-4.7-.3-6.8-1.1-2-3.1-3.5-5.5-3.9l-32.7-5.5 23.1 23.7c1.8 1.6 4.2 2.4 6.5 2.2zm10.7-58.1c-8.1-11.5-20.3-19.2-34.3-21.6-13.9-2.4-27.9.9-39.5 9-11.5 8.1-19.2 20.3-21.6 34.3l4.1.7c4.6-26.5 29.7-44.3 56.2-39.9 26.5 4.6 44.3 29.7 39.9 56.2-4.6 26.5-29.7 44.3-56.2 39.9-9.5-1.7-17.9-5.9-24.6-12l-3.5 2.4c7.5 7.1 16.9 11.9 27.3 13.7 13.9 2.4 27.9-.9 39.5-9 11.5-8.1 19.2-20.3 21.6-34.3 2.4-14-.8-27.8-8.9-39.4zm-75.5 3c-2.3.2-4.4 1.5-5.7 3.6-1.2 2-2.3 4-3.2 6.1-1 2.2-.8 4.7.3 6.8 1.1 2 3.1 3.5 5.5 3.9l32.7 5.5-23.2-23.5c-1.1-1.2-2.7-1.9-4.3-2.3-.7-.1-1.5-.2-2.1-.1zm66.9-1.4c-1.5-1.7-3.1-3.4-4.8-5-1.1-1-2.4-1.6-3.8-1.8-.9-.1-1.8-.2-2.7 0-2.4.4-4.3 1.9-5.5 4l-15.3 29.3 29.7-14.7c2.1-1.1 3.7-3.1 4.2-5.4.4-2.1-.2-4.5-1.8-6.4zm-44.6-12.4c-.8-.4-1.7-.7-2.6-.9-1.4-.3-2.9-.1-4.2.5-2.1.9-4.2 1.9-6.2 3-2.1 1.2-3.4 3.2-3.7 5.6s.5 4.8 2.1 6.5l23.2 23.6-4.8-32.8c-.3-2.2-1.8-4.2-3.8-5.5zm21.1-2.3c-1.1-.3-2.3-.5-3.4-.7-1.1-.2-2.3-.4-3.4-.5-2.4-.2-4.7.6-6.3 2.4-1.7 1.7-2.4 4.1-2 6.5l4.8 32.8 15.3-29.3c1.1-2.1 1.2-4.6.2-6.8-1-2.3-2.9-3.8-5.2-4.4z" class="st8" transform="matrix(1.21327 0 0 1.21327 150.714 148)"/></g><g><path d="M486.2 615.6l-6.7-1.9-12.7 3.6-19.4 5.4c-1.9.5-3.1 1.9-3.1 3.5s1.2 3 3.1 3.5l6.7 1.9 12.7-3.6 19.4-5.4c1.9-.5 3.1-1.9 3.1-3.5 0-1.5-1.3-2.9-3.1-3.5zM486.2 651.3l-6.7-1.9-12.7 3.6-19.4 5.4c-1.9.5-3.1 1.9-3.1 3.5s1.2 3 3.1 3.5l6.7 1.9 12.7-3.6 19.4-5.4c1.9-.5 3.1-1.9 3.1-3.5 0-1.5-1.3-2.9-3.1-3.5zM486.2 472.9l-6.7-1.9-12.7 3.6-19.4 5.4c-1.9.5-3.1 1.9-3.1 3.5s1.2 3 3.1 3.5l6.7 1.9 12.7-3.6 19.4-5.4c1.9-.5 3.1-1.9 3.1-3.5s-1.3-3-3.1-3.5zM486.2 579.9l-6.7-1.9-12.7 3.6-19.4 5.4c-1.9.5-3.1 1.9-3.1 3.5s1.2 3 3.1 3.5l6.7 1.9 12.7-3.6 19.4-5.4c1.9-.5 3.1-1.9 3.1-3.5 0-1.5-1.3-2.9-3.1-3.5zM486.2 687l-6.7-1.9-12.7 3.6-19.4 5.4c-1.9.5-3.1 1.9-3.1 3.5s1.2 3 3.1 3.5l6.7 1.9 12.7-3.6 19.4-5.4c1.9-.5 3.1-1.9 3.1-3.5s-1.3-2.9-3.1-3.5zM486.2 544.2l-6.7-1.9-12.7 3.6-19.4 5.4c-1.9.5-3.1 1.9-3.1 3.5s1.2 3 3.1 3.5l6.7 1.9 12.7-3.6 19.4-5.4c1.9-.5 3.1-1.9 3.1-3.5 0-1.5-1.3-2.9-3.1-3.5zM486.2 508.6l-6.7-1.9-12.7 3.6-19.4 5.4c-1.9.5-3.1 1.9-3.1 3.5s1.2 3 3.1 3.5l6.7 1.9 12.7-3.6 19.4-5.4c1.9-.5 3.1-1.9 3.1-3.5s-1.3-3-3.1-3.5zM486.2 901.2l-6.7-1.9-12.7 3.6-19.4 5.4c-1.9.5-3.1 1.9-3.1 3.5s1.2 3 3.1 3.5l6.7 1.9 12.7-3.6 19.4-5.4c1.9-.5 3.1-1.9 3.1-3.5 0-1.5-1.3-2.9-3.1-3.5zM486.2 865.5l-6.7-1.9-12.7 3.6-19.4 5.4c-1.9.5-3.1 1.9-3.1 3.5s1.2 3 3.1 3.5l6.7 1.9 12.7-3.6 19.4-5.4c1.9-.5 3.1-1.9 3.1-3.5 0-1.5-1.3-2.9-3.1-3.5zM486.2 829.8l-6.7-1.9-12.7 3.6-19.4 5.4c-1.9.5-3.1 1.9-3.1 3.5s1.2 3 3.1 3.5l6.7 1.9 12.7-3.6 19.4-5.4c1.9-.5 3.1-1.9 3.1-3.5 0-1.5-1.3-2.9-3.1-3.5zM486.2 794.1l-6.7-1.9-12.7 3.6-19.4 5.4c-1.9.5-3.1 1.9-3.1 3.5s1.2 3 3.1 3.5l6.7 1.9 12.7-3.6 19.4-5.4c1.9-.5 3.1-1.9 3.1-3.5 0-1.5-1.3-2.9-3.1-3.5zM486.2 722.7l-6.7-1.9-12.7 3.6-19.4 5.4c-1.9.5-3.1 1.9-3.1 3.5s1.2 3 3.1 3.5l6.7 1.9 12.7-3.6 19.4-5.4c1.9-.5 3.1-1.9 3.1-3.5 0-1.5-1.3-2.9-3.1-3.5zM486.2 758.4l-6.7-1.9-12.7 3.6-19.4 5.4c-1.9.5-3.1 1.9-3.1 3.5s1.2 3 3.1 3.5l6.7 1.9 12.7-3.6 19.4-5.4c1.9-.5 3.1-1.9 3.1-3.5 0-1.5-1.3-2.9-3.1-3.5z" class="st1" transform="matrix(1.21327 0 0 1.21327 150.714 148)"/><path d="M486.2 604.9l-19.4-5.4-12.7-3.6-6.7-1.9c-1.9-.5-3.1-1.9-3.1-3.5v10.7c0 1.6 1.2 3 3.1 3.5l19.4 5.4 12.7 3.6 6.7 1.9c1.9.5 3.1 1.9 3.1 3.5v-10.7c0-1.6-1.3-3-3.1-3.5zM486.2 676.3l-19.4-5.4-12.7-3.6-6.7-1.9c-1.9-.5-3.1-1.9-3.1-3.5v10.7c0 1.6 1.2 3 3.1 3.5l19.4 5.4 12.7 3.6 6.7 1.9c1.9.5 3.1 1.9 3.1 3.5v-10.7c0-1.6-1.3-3-3.1-3.5zM486.2 640.6l-19.4-5.4-12.7-3.6-6.7-1.9c-1.9-.5-3.1-1.9-3.1-3.5V637c0 1.6 1.2 3 3.1 3.5l19.4 5.4 12.7 3.6 6.7 1.9c1.9.5 3.1 1.9 3.1 3.5v-10.7c0-1.7-1.3-3.1-3.1-3.6zM486.2 569.2l-19.4-5.4-12.7-3.6-6.7-1.9c-1.9-.5-3.1-1.9-3.1-3.5v10.7c0 1.6 1.2 3 3.1 3.5l19.4 5.4 12.7 3.6 6.7 1.9c1.9.5 3.1 1.9 3.1 3.5v-10.7c0-1.6-1.3-3-3.1-3.5zM486.2 497.8l-19.4-5.4-12.7-3.6-6.7-1.9c-1.9-.5-3.1-1.9-3.1-3.5v10.7c0 1.6 1.2 3 3.1 3.5l19.4 5.4 12.7 3.6 6.7 1.9c1.9.5 3.1 1.9 3.1 3.5v-10.7c0-1.6-1.3-3-3.1-3.5zM486.2 533.5l-19.4-5.4-12.7-3.6-6.7-1.9c-1.9-.5-3.1-1.9-3.1-3.5v10.7c0 1.6 1.2 3 3.1 3.5l19.4 5.4 12.7 3.6 6.7 1.9c1.9.5 3.1 1.9 3.1 3.5V537c0-1.6-1.3-3-3.1-3.5zM486.2 712l-19.4-5.4-12.7-3.6-6.7-1.9c-1.9-.5-3.1-1.9-3.1-3.5v10.7c0 1.6 1.2 3 3.1 3.5l19.4 5.4 12.7 3.6 6.7 1.9c1.9.5 3.1 1.9 3.1 3.5v-10.7c0-1.6-1.3-3-3.1-3.5zM486.2 462.1l-19.4-5.4-19.4-5.4c-1.9-.5-3.1-1.9-3.1-3.5v10.7c0 1.6 1.2 3 3.1 3.5l19.4 5.4 12.7 3.6 6.7 1.9c1.9.5 3.1 1.9 3.1 3.5v-10.7c0-1.7-1.3-3.1-3.1-3.6zM486.2 890.5l-19.4-5.4-12.7-3.6-6.7-1.9c-1.9-.5-3.1-1.9-3.1-3.5v10.7c0 1.6 1.2 3 3.1 3.5l19.4 5.4 12.7 3.6 6.7 1.9c1.9.5 3.1 1.9 3.1 3.5V894c0-1.6-1.3-3-3.1-3.5zM486.2 819.1l-19.4-5.4-12.7-3.6-6.7-1.9c-1.9-.5-3.1-1.9-3.1-3.5v10.7c0 1.6 1.2 3 3.1 3.5l19.4 5.4 12.7 3.6 6.7 1.9c1.9.5 3.1 1.9 3.1 3.5v-10.7c0-1.6-1.3-3-3.1-3.5zM486.2 854.8l-19.4-5.4-12.7-3.6-6.7-1.9c-1.9-.5-3.1-1.9-3.1-3.5v10.7c0 1.6 1.2 3 3.1 3.5l19.4 5.4 12.7 3.6 6.7 1.9c1.9.5 3.1 1.9 3.1 3.5v-10.7c0-1.6-1.3-3-3.1-3.5zM486.2 747.7l-19.4-5.4-12.7-3.6-6.7-1.9c-1.9-.5-3.1-1.9-3.1-3.5V744c0 1.6 1.2 3 3.1 3.5l19.4 5.4 12.7 3.6 6.7 1.9c1.9.5 3.1 1.9 3.1 3.5v-10.7c0-1.6-1.3-3-3.1-3.5zM486.2 783.4l-19.4-5.4-12.7-3.6-6.7-1.9c-1.9-.5-3.1-1.9-3.1-3.5v10.7c0 1.6 1.2 3 3.1 3.5l19.4 5.4 12.7 3.6 6.7 1.9c1.9.5 3.1 1.9 3.1 3.5v-10.7c0-1.6-1.3-3-3.1-3.5zM486.2 926.2l-19.4-5.4-12.7-3.6-6.7-1.9c-1.9-.5-3.1-1.9-3.1-3.5v10.7c0 1.6 1.2 3 3.1 3.5l19.4 5.4 19.4 5.4c1.9.5 3.1 1.9 3.1 3.5v-10.7c0-1.5-1.3-2.9-3.1-3.4z" class="st2" transform="matrix(1.21327 0 0 1.21327 150.714 148)"/><g><path d="M574.5 137.6l4.2-5.6 1.2-13.1 1.9-20c.2-2-.7-3.6-2.2-4.1-1.5-.6-3.2 0-4.4 1.6L571 102l-1.2 13.1-1.9 20c-.2 2 .7 3.6 2.2 4.1 1.5.5 3.2-.1 4.4-1.6zM507.9 112l4.2-5.6 1.2-13.1 1.9-20c.2-2-.7-3.6-2.2-4.1-1.5-.6-3.2 0-4.4 1.6l-4.2 5.6-1.2 13.1-1.9 20c-.2 2 .7 3.6 2.2 4.1 1.5.5 3.2-.1 4.4-1.6zM607.9 150.4l4.2-5.6 1.2-13.1 1.9-20c.2-2-.7-3.6-2.2-4.1-1.5-.6-3.2 0-4.4 1.6l-4.2 5.6-1.2 13.1-1.9 20c-.2 2 .7 3.6 2.2 4.1 1.4.5 3.2-.1 4.4-1.6zM541.2 124.8l4.2-5.6 1.2-13.1 1.9-20c.2-2-.7-3.6-2.2-4.1-1.5-.6-3.2 0-4.4 1.6l-4.2 5.6-1.2 13.1-1.9 20c-.2 2 .7 3.6 2.2 4.1 1.5.5 3.2-.1 4.4-1.6zM641.1 163.2l4.2-5.6 1.2-13.1 1.9-20c.2-2-.7-3.6-2.2-4.1-1.5-.6-3.2 0-4.4 1.6l-4.2 5.6-1.2 13.1-1.9 20c-.2 2 .7 3.6 2.2 4.1 1.6.5 3.3-.1 4.4-1.6zM674.4 176l4.2-5.6 1.2-13.1 1.9-20c.2-2-.7-3.6-2.2-4.1-1.5-.6-3.2 0-4.4 1.6l-4.2 5.6-1.2 13.1-1.9 20c-.2 2 .7 3.6 2.2 4.1 1.6.5 3.3-.1 4.4-1.6zM341.3 48l4.2-5.6 1.2-13.1 1.9-20c.2-2-.7-3.6-2.2-4.1-1.5-.6-3.2 0-4.4 1.6l-4.2 5.6-1.2 13.1-1.9 20c-.2 2 .7 3.6 2.2 4.1 1.4.5 3.2-.1 4.4-1.6zM274.6 22.4l4.2-5.6L280 3.7l1.9-20c.2-2-.7-3.6-2.2-4.1-1.5-.6-3.2 0-4.4 1.6l-4.2 5.6-1.1 13-1.9 20c-.2 2 .7 3.6 2.2 4.1 1.4.6 3.1-.1 4.3-1.5zM474.6 99.2l4.2-5.6 1.2-13.1 1.9-20c.2-2-.7-3.6-2.2-4.1-1.5-.6-3.2 0-4.4 1.6l-4.2 5.6-1.1 13.1-1.9 20c-.2 2 .7 3.6 2.2 4.1 1.4.6 3.1-.1 4.3-1.6zM374.6 60.8l4.2-5.6 1.2-13.1 1.9-20c.2-2-.7-3.6-2.2-4.1s-3.2 0-4.4 1.6l-4.2 5.6-1.1 13-1.9 20c-.2 2 .7 3.6 2.2 4.1 1.4.6 3.1 0 4.3-1.5zM308 35.2l4.2-5.6 1.2-13.1 1.9-20c.2-2-.7-3.6-2.2-4.1s-3.2 0-4.4 1.6l-4.2 5.6-1.2 13.1-1.9 20c-.2 2 .7 3.6 2.2 4.1 1.4.5 3.2-.1 4.4-1.6zM441.3 86.4l4.2-5.6 1.2-13.1 1.9-20c.2-2-.7-3.6-2.2-4.1-1.5-.6-3.2 0-4.4 1.6l-4.2 5.6-1.2 13.1-1.9 20c-.2 2 .7 3.6 2.2 4.1 1.4.5 3.1-.1 4.4-1.6zM407.9 73.6l4.2-5.6 1.2-13.1 1.9-20c.2-2-.7-3.6-2.2-4.1-1.5-.6-3.2 0-4.4 1.6l-4.2 5.6-1.1 13-1.9 20c-.2 2 .7 3.6 2.2 4.1 1.4.6 3.1 0 4.3-1.5z" class="st1" transform="matrix(1.21327 0 0 1.21327 150.714 148)"/><path d="M484.6 103.1l12-16.2 7.9-10.6 4.2-5.6c1.1-1.6 2.9-2.2 4.4-1.6l-10-3.8c-1.5-.6-3.2 0-4.4 1.6l-12 16.2-7.9 10.6-4.2 5.6c-1.1 1.6-2.9 2.2-4.4 1.6l10 3.8c1.5.5 3.3-.1 4.4-1.6zM517.9 115.9l12-16.2 7.9-10.6 4.2-5.6c1.1-1.6 2.9-2.2 4.4-1.6L536.3 78c-1.5-.6-3.2 0-4.4 1.6l-12 16.2-7.9 10.6-4.2 5.6c-1.1 1.6-2.9 2.2-4.4 1.6l10 3.8c1.6.6 3.4 0 4.5-1.5zM584.5 141.5l12-16.2 7.9-10.6 4.2-5.6c1.1-1.6 2.9-2.2 4.4-1.6l-10-3.8c-1.5-.6-3.2 0-4.4 1.6l-12 16.2-7.9 10.6-4.2 5.6c-1.1 1.6-2.9 2.2-4.4 1.6l10 3.8c1.6.5 3.3-.1 4.4-1.6zM551.2 128.7l12-16.2 7.9-10.6 4.2-5.6c1.1-1.6 2.9-2.2 4.4-1.6l-10-3.8c-1.5-.6-3.2 0-4.4 1.6l-12 16.2-7.9 10.6-4.2 5.6c-1.1 1.6-2.9 2.2-4.4 1.6l10 3.8c1.6.5 3.3-.1 4.4-1.6zM617.9 154.3l12-16.2 7.9-10.6 4.2-5.6c1.1-1.6 2.9-2.2 4.4-1.6l-10-3.8c-1.5-.6-3.2 0-4.4 1.6l-12 16.2-7.9 10.6-4.2 5.6c-1.1 1.6-2.9 2.2-4.4 1.6l10 3.8c1.5.5 3.2-.1 4.4-1.6zM684.5 179.9l12-16.2 12-16.2c1.1-1.6 2.9-2.2 4.4-1.6l-10-3.8c-1.5-.6-3.2 0-4.4 1.6l-12 16.2-7.9 10.6-4.2 5.6c-1.1 1.6-2.9 2.2-4.4 1.6l10 3.8c1.7.5 3.4-.1 4.5-1.6zM651.2 167.1l12-16.2 7.9-10.6 4.2-5.6c1.1-1.6 2.9-2.2 4.4-1.6l-10-3.8c-1.5-.6-3.2 0-4.4 1.6l-12 16.2-7.9 10.6-4.2 5.6c-1.1 1.6-2.9 2.2-4.4 1.6l10 3.8c1.5.5 3.3-.1 4.4-1.6zM284.6 26.2l12-16.2 7.9-10.6 4.2-5.6c1.1-1.6 2.9-2.2 4.4-1.6l-10-3.8c-1.5-.6-3.2 0-4.4 1.6l-12 16.2-7.9 10.6-4.2 5.6c-1.1 1.6-2.9 2.2-4.4 1.6l10 3.8c1.6.5 3.3-.1 4.4-1.6zM317.9 39l12-16.2 7.9-10.6 4.2-5.6c1.1-1.6 2.9-2.2 4.4-1.6l-10-3.8c-1.5-.6-3.2 0-4.4 1.6L320 19l-7.9 10.6-4.2 5.6c-1.1 1.6-2.9 2.2-4.4 1.6l10 3.8c1.6.5 3.3-.1 4.4-1.6zM251.3 13.4l12-16.2 7.9-10.6 4.2-5.6c1.1-1.6 2.9-2.2 4.4-1.6l-10-3.8c-1.5-.6-3.2 0-4.4 1.6L241.3 9.5c-1.1 1.6-2.9 2.2-4.4 1.6l10 3.8c1.5.6 3.3 0 4.4-1.5zM451.2 90.2l12-16.2 7.9-10.6 4.2-5.6c1.1-1.6 2.9-2.2 4.4-1.6l-10-3.8c-1.5-.6-3.2 0-4.4 1.6l-12 16.2-7.9 10.6-4.2 5.6c-1.1 1.6-2.9 2.2-4.4 1.6l10 3.8c1.6.6 3.3 0 4.4-1.6zM351.3 51.8l12-16.2 7.9-10.6 4.2-5.6c1.1-1.6 2.9-2.2 4.4-1.6l-10-3.8c-1.5-.6-3.2 0-4.4 1.6l-12 16.2-7.9 10.6-4.2 5.6c-1.1 1.6-2.9 2.2-4.4 1.6l10 3.8c1.5.5 3.3-.1 4.4-1.6zM417.9 77.4l12-16.2 7.9-10.6L442 45c1.1-1.6 2.9-2.2 4.4-1.6l-10-3.8c-1.5-.6-3.2 0-4.4 1.6l-12 16.2-7.9 10.6-4.2 5.6c-1.1 1.6-2.9 2.2-4.4 1.6l10 3.8c1.6.6 3.3-.1 4.4-1.6zM384.6 64.6l12-16.2 7.9-10.6 4.2-5.6c1.1-1.6 2.9-2.2 4.4-1.6l-10-3.8c-1.5-.6-3.2 0-4.4 1.6l-12 16.2-7.9 10.6-4.2 5.6c-1.1 1.6-2.9 2.2-4.4 1.6l10 3.8c1.5.6 3.3-.1 4.4-1.6z" class="st2" transform="matrix(1.21327 0 0 1.21327 150.714 148)"/></g><g><path d="M842.7-26.2l-.1-7-7.2-11.1-10.8-17c-1-1.7-2.7-2.4-4.3-1.9-1.5.5-2.5 2-2.4 4l.1 7 7.2 11.1 10.8 17c1 1.7 2.7 2.4 4.3 1.9 1.4-.5 2.4-2.1 2.4-4zM774.4-5.4l-.1-7-7.2-11.1-10.8-17c-1-1.7-2.7-2.4-4.3-1.9-1.5.5-2.5 2-2.4 4l.1 7 7.2 11.1 10.8 17c1 1.7 2.7 2.4 4.3 1.9s2.4-2 2.4-4zM876.9-36.7l-.1-7-7.2-11.1-10.8-17c-1-1.7-2.7-2.4-4.3-1.9s-2.5 2-2.4 4l.1 7 7.2 11.1 10.8 17c1 1.7 2.7 2.4 4.3 1.9 1.4-.4 2.3-2 2.4-4zM808.6-15.8l-.1-7-7.2-11.1-10.8-17c-1-1.7-2.7-2.4-4.3-1.9-1.5.5-2.5 2-2.4 4l.1 7 7.2 11.1 10.8 17c1 1.7 2.7 2.4 4.3 1.9 1.4-.5 2.4-2 2.4-4zM911-47.1l-.1-7-7.2-11.1-10.8-17c-1-1.7-2.7-2.4-4.3-1.9-1.5.5-2.5 2-2.4 4l.1 7 7.2 11.1 10.8 17c1 1.7 2.7 2.4 4.3 1.9 1.4-.5 2.4-2 2.4-4zM945-57.5l-.1-7-7.2-11.1-10.8-17c-1-1.7-2.7-2.4-4.3-1.9-1.5.5-2.5 2-2.4 4l.1 7 7.2 11.1 10.8 17c1 1.7 2.7 2.4 4.3 1.9 1.5-.5 2.5-2.1 2.4-4zM637.9 36.4l-.1-7-7.2-11.1-10.8-17c-1-1.7-2.7-2.4-4.3-1.9s-2.5 2-2.4 4l.1 7 7.2 11.1 10.8 17c1 1.7 2.7 2.4 4.3 1.9 1.4-.5 2.4-2 2.4-4zM603.7 46.8l-.1-7-7.2-11.1-10.8-17c-1-1.7-2.7-2.4-4.3-1.9-1.5.5-2.5 2-2.4 4l.1 7 7.2 11.1 10.8 17c1 1.7 2.7 2.4 4.3 1.9 1.4-.4 2.4-2 2.4-4zM569.6 57.2l-.1-7-7.2-11.1-10.8-17c-1-1.7-2.7-2.4-4.3-1.9s-2.5 2-2.4 4l.1 7 7.2 11.1 10.8 17c1 1.7 2.7 2.4 4.3 1.9 1.4-.4 2.4-2 2.4-4zM979.2-68l-.1-7-7.2-11-10.8-17c-1-1.7-2.7-2.4-4.3-1.9s-2.5 2-2.4 4l.1 7 7.2 11.1 10.8 17c1 1.7 2.7 2.4 4.3 1.9 1.5-.5 2.5-2.1 2.4-4.1zM740.3 5.1l-.1-7L733-13l-10.8-17c-1-1.7-2.7-2.4-4.3-1.9-1.5.5-2.5 2-2.4 4l.1 7 7.2 11.1 10.8 17c1 1.7 2.7 2.4 4.3 1.9 1.4-.5 2.4-2 2.4-4zM706.2 15.5l-.1-7-7.2-11.1-10.8-17c-1-1.7-2.7-2.4-4.3-1.9-1.5.5-2.5 2-2.4 4l.1 7L688.7.6l10.8 17c1 1.7 2.7 2.4 4.3 1.9 1.4-.5 2.3-2 2.4-4zM672 25.9l-.1-7-7.2-11.1-10.8-17c-1-1.7-2.7-2.4-4.3-1.9s-2.5 2-2.4 4l.1 7 7.2 11.1 10.8 17c1 1.7 2.7 2.4 4.3 1.9 1.4-.4 2.4-2 2.4-4z" class="st14" transform="matrix(1.21327 0 0 1.21327 150.714 148)"/><path d="M989.5-71.1l-.5-20.2-.5-20.1c-.1-2 .9-3.5 2.4-4l-10.2 3.1c-1.5.5-2.5 2-2.4 4l.5 20.1.3 13.2.1 7c.1 2-.9 3.5-2.4 4l10.2-3.1c1.6-.5 2.6-2.1 2.5-4zM887.1-39.8l-.5-20.1-.3-13.2-.1-7c-.1-2 .9-3.5 2.4-4L878.4-81c-1.5.5-2.5 2-2.4 4l.5 20.1.3 13.2.1 7c.1 2-.9 3.5-2.4 4l10.2-3.1c1.5-.5 2.5-2 2.4-4zM853-29.4l-.5-20.1-.3-13.2-.1-7c-.1-2 .9-3.5 2.4-4l-10.2 3.1c-1.5.5-2.5 2-2.4 4l.5 20.1.3 13.2.1 7c.1 2-.9 3.5-2.4 4l10.2-3.1c1.4-.5 2.4-2 2.4-4zM784.7-8.5l-.5-20.1-.3-13.2-.1-7c-.1-2 .9-3.5 2.4-4L776-49.7c-1.5.5-2.5 2-2.4 4l.5 20.1.3 13.2.1 7c.1 2-.9 3.5-2.4 4l10.2-3.1c1.5-.5 2.4-2 2.4-4zM955.4-60.7l-.5-20.1-.3-13.2-.1-7c-.1-2 .9-3.5 2.4-4l-10.2 3.1c-1.5.5-2.5 2-2.4 4l.5 20.1.3 13.2.1 7c.1 2-.9 3.5-2.4 4l10.2-3.1c1.5-.5 2.5-2 2.4-4zM921.2-50.2l-.5-20.1-.3-13.2-.1-7c-.1-2 .9-3.5 2.4-4l-10.2 3.1c-1.5.5-2.5 2-2.4 4l.5 20.1.3 13.2.1 7c.1 2-.9 3.5-2.4 4l10.2-3.1c1.5-.5 2.5-2.1 2.4-4zM614 43.7l-.5-20.1-.3-13.2-.1-7c-.1-2 .9-3.5 2.4-4l-10.2 3.1c-1.5.5-2.5 2-2.4 4l.5 20.1.3 13.2.1 7c.1 2-.9 3.5-2.4 4l10.2-3.1c1.5-.5 2.4-2.1 2.4-4zM750.5 1.9l-.5-20.1-.3-13.2-.1-7c-.1-2 .9-3.5 2.4-4l-10.2 3.1c-1.5.5-2.5 2-2.4 4l.5 20.1.3 13.2.1 7c.1 2-.9 3.5-2.4 4l10.2-3.1c1.5-.4 2.5-2 2.4-4zM579.8 54.1l-.5-20.1-.3-13.2-.1-7c-.1-2 .9-3.5 2.4-4L571.1 13c-1.5.5-2.5 2-2.4 4l.5 20.1.3 13.2.1 7c.1 2-.9 3.5-2.4 4l10.2-3.1c1.5-.6 2.5-2.1 2.4-4.1zM545.7 64.6l-.5-20.1-.3-13.2-.1-7c-.1-2 .9-3.5 2.4-4L537 23.4c-1.5.5-2.5 2-2.4 4l.9 40.2c.1 2-.9 3.5-2.4 4l10.2-3.1c1.5-.4 2.5-2 2.4-3.9zM648.1 33.2l-.5-20.1-.3-13.2-.1-7c-.1-2 .9-3.5 2.4-4L639.4-8c-1.5.5-2.5 2-2.4 4l.5 20.1.3 13.2.1 7c.1 2-.9 3.5-2.4 4l10.2-3.1c1.5-.4 2.5-2 2.4-4zM682.2 22.8l-.5-20.1-.3-13.2-.1-7c-.1-2 .9-3.5 2.4-4l-10.2 3.1c-1.5.5-2.5 2-2.4 4l.5 20.1.3 13.2.1 7c.1 2-.9 3.5-2.4 4l10.2-3.1c1.5-.5 2.5-2 2.4-4zM716.4 12.4l-.5-20.1-.3-13.3-.1-7c-.1-2 .9-3.5 2.4-4l-10.2 3.1c-1.5.5-2.5 2-2.4 4l.5 20.1.2 13.3.1 7c.1 2-.9 3.5-2.4 4l10.2-3.1c1.6-.5 2.6-2.1 2.5-4zM818.8-18.9l-.5-20.1-.3-13.3-.1-7c-.1-2 .9-3.5 2.4-4L810-60.1c-1.5.5-2.5 2-2.4 4l.5 20.1.3 13.2.1 7c.1 2-.9 3.5-2.4 4l10.2-3.1c1.6-.5 2.6-2.1 2.5-4z" class="st6" transform="matrix(1.21327 0 0 1.21327 150.714 148)"/></g><g><path d="M1203.2 961l3.7-5.9.1-13.2.3-20.1c.1-2-1-3.5-2.5-4s-3.2.3-4.2 2l-3.7 5.9-.1 13.2-.3 20.1c-.1 2 1 3.5 2.5 4 1.4.4 3.1-.3 4.2-2zM1134.7 940.9l3.7-5.9.1-13.2.3-20.1c.1-2-1-3.5-2.5-4s-3.2.3-4.2 2l-3.7 5.9-.1 13.2-.3 20.1c-.1 2 1 3.5 2.5 4 1.4.4 3.1-.3 4.2-2zM1169 951l3.7-5.9.1-13.2.3-20.1c.1-2-1-3.5-2.5-4s-3.2.3-4.2 2l-3.7 5.9-.1 13.2-.3 20.1c-.1 2 1 3.5 2.5 4 1.4.4 3.1-.4 4.2-2zM1237.5 971.1l3.7-5.9.1-13.2.3-20.1c.1-2-1-3.5-2.5-4s-3.2.3-4.2 2l-3.7 5.9-.2 13.2-.3 20.1c-.1 2 1 3.5 2.5 4 1.5.4 3.2-.4 4.3-2zM1305.9 991.1l3.7-5.9.1-13.2.3-20.1c.1-2-1-3.5-2.5-4s-3.2.3-4.2 2l-3.7 5.9-.1 13.2-.3 20.1c-.1 2 1 3.5 2.5 4s3.2-.3 4.2-2zM1271.6 981.1l3.7-5.9.1-13.2.3-20.1c.1-2-1-3.5-2.5-4s-3.2.3-4.2 2l-3.7 5.9-.1 13.2-.3 20.1c-.1 2 1 3.5 2.5 4 1.5.4 3.2-.3 4.2-2zM1031.9 910.7l3.7-5.9.1-13.2.3-20.1c.1-2-1-3.5-2.5-4s-3.2.3-4.2 2l-3.7 5.9-.1 13.2-.3 20.1c-.1 2 1 3.5 2.5 4s3.1-.3 4.2-2zM963.4 890.6l3.7-5.9.1-13.2.3-20.1c.1-2-1-3.5-2.5-4s-3.2.3-4.2 2l-3.7 5.9-.1 13.2-.3 20.1c-.1 2 1 3.5 2.5 4 1.4.4 3.1-.3 4.2-2zM929.2 880.6l3.7-5.9.1-13.2.3-20.1c.1-2-1-3.5-2.5-4s-3.2.3-4.2 2l-3.7 5.9-.1 13.2-.3 20.1c-.1 2 1 3.5 2.5 4 1.4.4 3.1-.4 4.2-2zM997.7 900.7l3.7-5.9.1-13.2.3-20.1c.1-2-1-3.5-2.5-4s-3.2.3-4.2 2l-3.7 5.9-.1 13.2-.3 20.1c-.1 2 1 3.5 2.5 4 1.4.4 3.1-.4 4.2-2zM1100.5 930.9l3.7-5.9.1-13.2.3-20.1c.1-2-1-3.5-2.5-4s-3.2.3-4.2 2l-3.7 5.9-.1 13.2-.3 20.1c-.1 2 1 3.5 2.5 4 1.5.4 3-.4 4.2-2zM1066.2 920.8l3.7-5.9.1-13.2.3-20.1c.1-2-1-3.5-2.5-4s-3.2.3-4.2 2l-3.7 5.9-.1 13.2-.3 20.1c-.1 2 1 3.5 2.5 4 1.4.4 3.1-.3 4.2-2zM894.9 870.5l3.7-5.9.1-13.2.3-20.1c.1-2-1-3.5-2.5-4s-3.2.3-4.2 2l-3.7 5.9-.1 13.2-.3 20.1c-.1 2 1 3.5 2.5 4 1.4.4 3.1-.3 4.2-2z" class="st14" transform="matrix(1.21327 0 0 1.21327 150.714 148)"/><path d="M1179.2 954l10.6-17.1 7-11.2 3.7-5.9c1-1.7 2.7-2.4 4.2-2l-10.3-3c-1.5-.5-3.2.3-4.2 2l-10.6 17.1-7 11.2-3.7 5.9c-1 1.7-2.7 2.4-4.2 2l10.3 3c1.5.4 3.2-.3 4.2-2zM1213.5 964l10.6-17.1 7-11.2 3.7-5.9c1-1.7 2.7-2.4 4.2-2l-10.3-3c-1.5-.5-3.2.3-4.2 2l-10.6 17.1-7 11.2-3.7 5.9c-1 1.7-2.7 2.4-4.2 2l10.3 3c1.5.5 3.2-.3 4.2-2zM1145 943.9l10.6-17.1 7-11.2 3.7-5.9c1-1.7 2.7-2.4 4.2-2l-10.4-3c-1.5-.5-3.2.3-4.2 2l-10.6 17.1-7 11.2-3.7 5.9c-1 1.7-2.7 2.4-4.2 2l10.3 3c1.6.5 3.3-.3 4.3-2zM1316.3 994.2l10.6-17.1 10.6-17.1c1-1.7 2.7-2.4 4.2-2l-10.3-3c-1.5-.5-3.2.3-4.2 2l-10.6 17.1-7 11.2-3.7 5.9c-1 1.7-2.7 2.4-4.2 2l10.3 3c1.6.4 3.2-.3 4.3-2zM870.9 863.5l10.6-17.1 7-11.2 3.7-5.9c1-1.7 2.7-2.4 4.2-2l-10.3-3c-1.5-.5-3.2.3-4.2 2l-10.6 17.1-10.6 17.1c-1 1.7-2.7 2.4-4.2 2l10.3 3c1.4.4 3.1-.3 4.1-2zM1110.7 933.9l10.6-17.1 7-11.2 3.7-5.9c1-1.7 2.7-2.4 4.2-2l-10.3-3c-1.5-.5-3.2.3-4.2 2l-10.6 17.1-7 11.2-3.7 5.9c-1 1.7-2.7 2.4-4.2 2l10.3 3c1.5.4 3.2-.4 4.2-2zM1282 984.1l10.6-17.1 7-11.2 3.7-5.9c1-1.7 2.7-2.4 4.2-2l-10.3-3c-1.5-.5-3.2.3-4.2 2l-10.6 17.1-7 11.2-3.7 5.9c-1 1.7-2.7 2.4-4.2 2l10.3 3c1.5.5 3.2-.3 4.2-2zM1247.7 974.1l10.6-17.1 7-11.2 3.7-5.9c1-1.7 2.7-2.4 4.2-2l-10.3-3c-1.5-.5-3.2.3-4.2 2l-10.6 17.1-7 11.2-3.7 5.9c-1 1.7-2.7 2.4-4.2 2l10.3 3c1.5.4 3.2-.3 4.2-2zM973.7 893.6l10.6-17.1 7-11.2 3.7-5.9c1-1.7 2.7-2.4 4.2-2l-10.3-3c-1.5-.5-3.2.3-4.2 2l-10.6 17.1-7 11.2-3.7 5.9c-1 1.7-2.7 2.4-4.2 2l10.3 3c1.5.5 3.2-.3 4.2-2zM939.4 883.6l10.6-17.1 7-11.2 3.7-5.9c1-1.7 2.7-2.4 4.2-2l-10.3-3c-1.5-.5-3.2.3-4.2 2l-10.6 17.1-7 11.2-3.7 5.9c-1 1.7-2.7 2.4-4.2 2l10.3 3c1.6.4 3.2-.3 4.2-2zM905.2 873.5l10.6-17.1 7-11.2 3.7-5.9c1-1.7 2.7-2.4 4.2-2l-10.3-3c-1.5-.5-3.2.3-4.2 2l-10.6 17.1-7 11.2-3.7 5.9c-1 1.7-2.7 2.4-4.2 2l10.3 3c1.5.5 3.2-.3 4.2-2zM1076.5 923.8l10.6-17.1 7-11.2 3.7-5.9c1-1.7 2.7-2.4 4.2-2l-10.3-3c-1.5-.5-3.2.3-4.2 2l-10.6 17.1-7 11.2-3.7 5.9c-1 1.7-2.7 2.4-4.2 2l10.3 3c1.5.4 3.2-.3 4.2-2zM1008 903.7l10.6-17.1 7-11.2 3.7-5.9c1-1.7 2.7-2.4 4.2-2l-10.3-3c-1.5-.5-3.2.3-4.2 2l-10.6 17.1-7 11.2-3.7 5.9c-1 1.7-2.7 2.4-4.2 2l10.3 3c1.5.4 3.1-.3 4.2-2zM1042.2 913.8l10.6-17.1 7-11.2 3.7-5.9c1-1.7 2.7-2.4 4.2-2l-10.3-3c-1.5-.5-3.2.3-4.2 2l-10.6 17.1-7 11.2-3.7 5.9c-1 1.7-2.7 2.4-4.2 2l10.3 3c1.5.4 3.2-.4 4.2-2z" class="st6" transform="matrix(1.21327 0 0 1.21327 150.714 148)"/></g></g><g><path d="M809.8 580.1c10.7-11.9 21.1-24.1 31.4-36.4-15.9-2.6-31.8-5.5-47.6-8.7 5.1 15.1 10.5 30.2 16.2 45.1zm306.9 14.1c7-14.4 13.8-29 20.3-43.6-16 1.8-32.1 3.3-48.2 4.4 9 13.2 18.3 26.3 27.9 39.2zm119.4-59.4c10.8 11.8 21.8 23.4 33 34.8 5-15.2 9.7-30.4 14.2-45.7-15.7 4-31.4 7.6-47.2 10.9z" class="st15" transform="matrix(1.21327 0 0 1.21327 150.714 148)"/><path d="M911.7 594.2c9.5-12.9 18.8-26 27.9-39.2-16.1-1.1-32.2-2.6-48.2-4.4 6.5 14.7 13.3 29.2 20.3 43.6zm-202.4-37.5c11.7-10.8 23.2-21.9 34.5-33.1-15.6-4-31.1-8.3-46.6-13 3.8 15.4 7.8 30.7 12.1 46.1zm304.9.8c-8.1 0-16.2-.1-24.2-.3 7.8 14 15.9 27.9 24.2 41.7 8.3-13.8 16.4-27.6 24.2-41.7-8 .2-16.1.3-24.2.3 0 0 .1 0 0 0zm204.4 22.6c5.7-14.9 11.1-30 16.2-45.1-15.8 3.3-31.7 6.2-47.6 8.7 10.3 12.4 20.7 24.5 31.4 36.4zm66.1-56.6c11.3 11.2 22.8 22.3 34.5 33.1 4.3-15.3 8.3-30.7 12.1-46.2-15.5 4.8-31 9.1-46.6 13.1z" class="st8" transform="matrix(1.21327 0 0 1.21327 150.714 148)"/><path d="M860.6 588.3c10.1-12.5 20-25.1 29.7-37.9-16-1.8-32-4-47.9-6.5 5.8 14.9 11.9 29.7 18.2 44.4zm-101.2-18.7c11.2-11.4 22.2-23 33-34.8-15.8-3.3-31.5-6.9-47.1-10.9 4.4 15.3 9.1 30.5 14.1 45.7zm378.7-19.1c9.7 12.8 19.6 25.4 29.7 37.9 6.3-14.7 12.4-29.5 18.3-44.4-16 2.5-32 4.7-48 6.5zm-72.5 47.2c7.7-14.1 15.1-28.3 22.3-42.7-16.1 1.1-32.2 1.8-48.4 2.2 8.4 13.7 17.1 27.2 26.1 40.5zm-102.7 0c8.9-13.4 17.6-26.9 26.1-40.5-16.2-.4-32.3-1.1-48.4-2.2 7.2 14.4 14.7 28.6 22.3 42.7z" class="st2" transform="matrix(1.21327 0 0 1.21327 150.714 148)"/><path d="M1331.2 507.6c-102.7 31.3-209.4 47.1-317 47.1s-214.3-15.9-317-47.1l-.8 2.6c.3.1.5.2.8.2 15.4 4.7 31 9 46.6 13 .5.1 1 .2 1.4.4 15.6 4 31.3 7.6 47.1 10.9.4.1.8.2 1.2.2 15.8 3.3 31.7 6.2 47.6 8.7.4.1.8.1 1.2.2 15.9 2.5 31.9 4.7 47.9 6.5.4 0 .7.1 1.1.1 16 1.8 32.1 3.3 48.2 4.4.3 0 .7 0 1 .1 16.1 1.1 32.2 1.8 48.4 2.2h1c8.1.2 16.1.3 24.2.3 8.1 0 16.2-.1 24.2-.3h1c16.2-.4 32.3-1.1 48.4-2.2.3 0 .6 0 .9-.1 16.1-1.1 32.2-2.6 48.2-4.4.4 0 .7-.1 1.1-.1 16-1.8 32-4 47.9-6.5.4-.1.8-.1 1.2-.2 15.9-2.6 31.8-5.5 47.6-8.7.4-.1.9-.2 1.3-.3 15.8-3.3 31.5-6.9 47.1-10.9.5-.1 1-.2 1.4-.4 15.6-4 31.1-8.3 46.6-13 .3-.1.5-.2.8-.2l-.6-2.5z" class="st4" transform="matrix(1.21327 0 0 1.21327 150.714 148)"/><g><path d="M-74.5 53.6C-63.8 39.2-53.4 24.7-43.1 10c-15.9 1.1-31.8 1.8-47.6 2.1 5.1 14.1 10.5 27.9 16.2 41.5zm306.9-56c7-16 13.8-32 20.3-48.2-16 5.5-32.1 10.6-48.1 15.3 9 11.3 18.3 22.2 27.8 32.9zM351.9-89c10.8 9.3 21.7 18.4 32.9 27.2 5-16.2 9.7-32.5 14.1-48.8-15.6 7.5-31.3 14.7-47 21.6z" class="st15" transform="matrix(1.21327 0 0 1.21327 150.714 148)"/><path d="M105.8-10.4c7.8 12.2 15.9 24.3 24.2 36.1 8.3-15.6 16.4-31.3 24.2-47.2-8 2-15.9 3.9-23.9 5.7-8.2 2-16.4 3.7-24.5 5.4zM-175 53.1c11.7-13.5 23.2-27.2 34.5-41.1-15.6-.4-31.2-1.2-46.6-2.4 3.8 14.7 7.8 29.2 12.1 43.5zm202.4-8.6c9.5-15.1 18.8-30.3 27.9-45.6C39.2 1.5 23.1 3.7 7.1 5.5c6.5 13.1 13.3 26.1 20.3 39zm373.1-155.9c11.3 8.6 22.8 17 34.4 25.2 4.3-16.3 8.3-32.5 12-48.8-15.4 8.2-30.9 16.1-46.4 23.6zm-66.2 71.7c5.7-16.2 11-32.4 16.2-48.7-15.8 6.8-31.6 13.4-47.5 19.5 10.2 10 20.6 19.7 31.3 29.2z" class="st8" transform="matrix(1.21327 0 0 1.21327 150.714 148)"/><path d="M-139.1 12.1c4.5 14.3 9.2 28.5 14.2 42.5 11.2-14 22.2-28.1 33-42.4-7 .1-14 .2-20.9.2-8.8 0-17.5-.1-26.3-.3zm115.4 38.1C-13.6 35.4-3.7 20.6 6 5.6-10 7.4-26 8.9-42 10c5.9 13.6 12 27 18.3 40.2zm205-37.4C189-3 196.4-18.9 203.5-34.9c-16.1 4.7-32.2 9.2-48.3 13.2 8.5 11.7 17.1 23.2 26.1 34.5zm72.5-63.7c9.7 10.6 19.5 20.9 29.6 31 6.3-16.1 12.4-32.3 18.2-48.5-15.8 6.2-31.8 12-47.8 17.5zM78.6 36.3c8.9-15.4 17.6-30.9 26.1-46.4-16.1 3.3-32.3 6.3-48.3 8.8C63.5 11.4 71 23.9 78.6 36.3z" class="st2" transform="matrix(1.21327 0 0 1.21327 150.714 148)"/><path d="M446.7-138C343.9-83.2 237.3-43 129.6-18.4 22 6.2-84.7 14.7-187.4 6.9l-.2 2.7h.5c15.5 1.2 31 2 46.6 2.4h1.4c8.7.2 17.5.4 26.2.4 7 0 13.9-.1 20.9-.2h1.2c15.8-.3 31.7-1.1 47.6-2.1.4 0 .8-.1 1.2-.1 15.9-1.1 31.9-2.6 48-4.4.4 0 .7-.1 1.1-.1 16-1.8 32.1-4.1 48.2-6.6.4-.1.7-.1 1.1-.2 16.1-2.6 32.2-5.5 48.3-8.8.3-.1.7-.1 1-.2 8.2-1.7 16.3-3.5 24.5-5.3 8-1.8 15.9-3.7 23.9-5.7.4-.1.7-.2 1.1-.3 16.1-4.1 32.2-8.5 48.3-13.2.3-.1.7-.2 1-.3 16.1-4.8 32.1-9.9 48.1-15.3.4-.1.8-.3 1.2-.4 16-5.5 32-11.3 47.9-17.4.4-.2.9-.3 1.3-.5 15.9-6.2 31.7-12.7 47.5-19.5.5-.2.9-.4 1.4-.6 15.7-6.9 31.4-14.1 47-21.6.5-.2 1-.5 1.6-.8 15.6-7.5 31.1-15.4 46.5-23.6.4-.2.7-.4 1.1-.6l-1.4-2.6z" class="st4" transform="matrix(1.21327 0 0 1.21327 150.714 148)"/></g><g><path d="M759.4 655.5c11.2-8 22.1-16.3 32.9-24.9-15.7-8-31.4-16.3-47-24.9 4.4 16.6 9.1 33.2 14.1 49.8zm427.9 102.3c10.2 15.4 20.7 30.6 31.4 45.8 5.7-13.3 11.1-26.7 16.2-40.3-15.8-1.5-31.6-3.3-47.6-5.5zm-275.5-32c9.5-10 18.8-20.3 27.9-30.8-16.1-5.9-32.1-12.2-48.1-18.7 6.5 16.5 13.2 33 20.2 49.5z" class="st15" transform="matrix(1.21327 0 0 1.21327 150.714 148)"/><path d="M990.1 712.3c7.8 16.3 15.9 32.6 24.2 48.8 8.3-11.2 16.4-22.7 24.2-34.4-8.2-2.3-16.4-4.6-24.6-7.1-8-2.3-15.9-4.8-23.8-7.3zm-180.2-31.1c10.6-8.7 21.1-17.7 31.3-26.9-15.9-7.3-31.7-14.9-47.4-22.9 5.1 16.6 10.5 33.2 16.1 49.8zm-100.6-53.7c11.7-7.3 23.1-14.9 34.4-22.7-15.6-8.6-31-17.6-46.4-26.9 3.7 16.6 7.7 33.1 12 49.6zm617.6 140.1c-14 0-28.1-.3-42.3-.9 11.3 14.7 22.8 29.2 34.6 43.5 4.3-14.1 8.3-28.3 12.1-42.6h-4.4zm-210.1 19.5c7-12.3 13.8-24.8 20.3-37.5-16-3-32.1-6.3-48.2-10 9.1 15.9 18.4 31.8 27.9 47.5z" class="st8" transform="matrix(1.21327 0 0 1.21327 150.714 148)"/><path d="M860.7 704.6c10.1-9.4 19.9-19 29.6-28.9-16-6.6-31.9-13.5-47.8-20.8 5.8 16.6 11.9 33.1 18.2 49.7zm102.2 40c8.9-10.7 17.6-21.5 26.1-32.6-16.1-5.2-32.2-10.7-48.3-16.6 7.2 16.4 14.6 32.8 22.2 49.2zm205 52c6.3-12.8 12.4-25.8 18.3-39-15.9-2.2-31.9-4.8-47.9-7.8 9.6 15.7 19.5 31.3 29.6 46.8zm-102.3-21.3c7.7-11.8 15.1-23.8 22.3-36-16.1-3.7-32.2-7.8-48.3-12.3 8.4 16.2 17 32.3 26 48.3zm170.5-11.9c10.8 15 21.8 29.9 33 44.7 5-13.7 9.7-27.5 14.2-41.5-15.7-.7-31.4-1.7-47.2-3.2z" class="st2" transform="matrix(1.21327 0 0 1.21327 150.714 148)"/><path d="M1331.6 764.9h-4.7c-101.3 0-206.3-16.1-312.3-47.8-107.6-32.3-214.3-80.1-317-142.2l-1.4 2.4c.4.2.8.5 1.1.7 15.4 9.3 30.9 18.2 46.4 26.9.5.3 1.1.6 1.6.9 15.6 8.6 31.2 16.9 47 24.9.5.2 1 .5 1.5.7 15.8 8 31.6 15.6 47.4 22.9.4.2.9.4 1.3.6 15.9 7.3 31.8 14.2 47.8 20.8.4.2.8.3 1.2.5 16 6.6 32 12.8 48.1 18.7.3.1.7.3 1 .4 16.1 5.9 32.2 11.4 48.3 16.6.4.1.7.2 1.1.3 7.9 2.5 15.8 5 23.8 7.4 8.2 2.5 16.4 4.8 24.6 7.1.4.1.7.2 1.1.3 16.1 4.5 32.3 8.5 48.3 12.3.4.1.7.2 1.1.2 16.1 3.7 32.2 7.1 48.2 10 .4.1.7.1 1.1.2 16 3 32 5.6 47.9 7.8.4.1.8.1 1.2.2 15.9 2.2 31.8 4 47.6 5.5.4 0 .8.1 1.2.1 15.8 1.4 31.5 2.5 47.2 3.2.5 0 .9 0 1.4.1 14.2.6 28.3.9 42.3.9h4.7l-.1-2.6z" class="st4" transform="matrix(1.21327 0 0 1.21327 150.714 148)"/></g></g><g><path d="M171.9 319.6L209 603.4c.2 1.3 1.3 2.2 2.6 2s2.2-1.3 2-2.6l-37-283.8-4.7.6z" class="st4" transform="matrix(1.21327 0 0 1.21327 150.714 148)"/><path d="M190 308.3l-3.2-4.2c-4.5 1.8-9.2 3.1-14 3.7-4.9.6-9.7.6-14.5 0l-2 4.9c-1.7 4.2 1.7 8.7 6.2 8.1l23.7-3.1c4.4-.5 6.6-5.7 3.8-9.4z" class="st5" transform="matrix(1.21327 0 0 1.21327 150.714 148)"/><path d="M211.8 67.6c-20.1-15.4-46-23.2-73.1-19.6-27.1 3.5-50.1 17.7-65.6 37.8-15.4 20.1-23.2 46-19.6 73.1 3.8 29.2 13.9 58.3 27.9 82.8 14 24.5 31.9 44.5 51.2 55.5 8.5 4.9 17.4 8 26.2 9.1 4.5.5 9 .5 13.5-.1s8.9-1.8 13.1-3.4c8.3-3.3 16-8.6 23-15.5 10.6-10.4 19.5-24.5 26.4-40.8 13.9-32.6 19.6-74.2 14.6-113.2-3.4-27.2-17.5-50.3-37.6-65.7zM69.4 136c-.8 6.7-.8 13.7.1 20.7.3 2.1-1.2 3.9-3.2 4.2-2.1.3-3.9-1.2-4.2-3.2-1-7.7-1-15.2-.1-22.6.2-1.7 1.6-3.1 3.2-3.3h.9c2 .2 3.5 2.1 3.3 4.2zm71.4-72.2c-16.2 2.1-30.8 8.8-42.5 18.7-11.7 9.8-20.5 22.8-25.4 37.4-.5 1.4-1.7 2.4-3.1 2.5-.5.1-1.1 0-1.7-.2-2-.7-3-2.8-2.4-4.7 5.3-15.9 14.9-30 27.7-40.7 12.7-10.7 28.6-18.1 46.3-20.4 2.1-.3 3.9 1.2 4.2 3.2.4 2.1-1 4-3.1 4.2z" class="st6" transform="matrix(1.21327 0 0 1.21327 150.714 148)"/><path d="M138.5 46.1c-55.2 7.2-94 57.8-86.8 112.9 5.1 39.3 21.5 78.2 43.5 106.5 11 14.1 23.4 25.6 36.6 33.1 8.6 4.9 17.4 8.1 26.4 9.2 4.8.6 9.7.6 14.5 0 4.9-.6 9.5-1.9 14-3.7 8.4-3.4 16.1-8.8 23.2-15.7 16.2-16 28.4-40.1 35.7-67.6s9.6-58.4 5.8-87.9c-7.2-55.2-57.7-94-112.9-86.8zM235 246.3c-6.9 16.3-15.9 30.4-26.4 40.8-7 6.9-14.7 12.2-23 15.5-4.2 1.7-8.6 2.8-13.1 3.4s-9 .6-13.5.1c-8.9-1-17.7-4.2-26.2-9.1-19.3-11-37.2-31-51.2-55.5s-24.1-53.6-27.9-82.8c-3.5-27.1 4.2-53 19.6-73.1s38.5-34.2 65.6-37.8c27.1-3.5 53 4.2 73.1 19.6s34.2 38.5 37.8 65.6c4.9 39.1-.9 80.6-14.8 113.3z" class="st7" transform="matrix(1.21327 0 0 1.21327 150.714 148)"/><path d="M66.1 131.8h-.9c-1.7.2-3 1.5-3.2 3.3-1 7.3-1 14.9 0 22.5.3 2.1 2.2 3.5 4.2 3.2 2.1-.3 3.5-2.2 3.2-4.2-.9-7-.9-14-.1-20.7.3-2-1.2-3.9-3.2-4.1zm73.8-75.4c-17.7 2.3-33.6 9.6-46.3 20.4-12.7 10.7-22.4 24.8-27.7 40.7-.7 2 .4 4.1 2.4 4.7.6.2 1.1.2 1.7.2 1.4-.2 2.6-1.1 3.1-2.5 4.9-14.6 13.7-27.5 25.4-37.4 11.7-9.8 26.2-16.5 42.5-18.7 2.1-.3 3.5-2.2 3.2-4.2-.4-2-2.3-3.5-4.3-3.2z" class="st16" transform="matrix(1.21327 0 0 1.21327 150.714 148)"/></g><g><path d="M112.3 478.7l53.2 144.1c.3.7 1 1 1.7.8.7-.3 1-1 .8-1.7l-53.2-144.1-2.5.9z" class="st4" transform="matrix(1.21327 0 0 1.21327 150.714 148)"/><path d="M120.9 470.1l-2.3-1.9c-2.3 1.6-4.7 2.9-7.3 3.9-2.6 1-5.3 1.6-8.1 1.9l-.5 3c-.4 2.6 2.1 4.6 4.5 3.7l12.8-4.8c2.4-1 2.9-4.2.9-5.8z" class="st5" transform="matrix(1.21327 0 0 1.21327 150.714 148)"/><path d="M102.3 333.2c-13.1-6-28.6-7-43.2-1.6-14.7 5.4-25.7 16.3-31.7 29.4-6 13.1-7 28.6-1.6 43.2C31.7 420 41 434.9 52 446.7c10.9 11.9 23.5 20.7 35.6 24.3 5.4 1.6 10.7 2.2 15.8 1.7 2.6-.3 5.1-.9 7.5-1.8s4.7-2.1 6.9-3.6c4.2-2.9 7.8-6.8 10.8-11.6 4.5-7.2 7.7-16.1 9.5-26.1 3.5-20 1.4-43.8-6.4-64.9-5.4-14.5-16.3-25.5-29.4-31.5zm-70.6 56.3c.4 3.9 1.3 7.7 2.7 11.5.4 1.1-.2 2.3-1.3 2.8-1.1.4-2.3-.2-2.8-1.3-1.5-4.1-2.5-8.4-3-12.6-.1-1 .5-1.9 1.4-2.2.2-.1.3-.1.5-.1 1.3-.1 2.4.7 2.5 1.9zm30.6-49.3c-8.8 3.3-16 8.9-21.3 15.8-5.3 7-8.5 15.3-9.4 24.1-.1.8-.6 1.5-1.4 1.8-.3.1-.6.2-1 .1-1.2-.1-2-1.2-1.9-2.3.9-9.5 4.5-18.6 10.2-26.2 5.7-7.6 13.6-13.7 23.2-17.3 1.1-.4 2.3.2 2.8 1.3.4 1-.1 2.3-1.2 2.7z" class="st6" transform="matrix(1.21327 0 0 1.21327 150.714 148)"/><path d="M58.7 330.6c-29.8 11.1-45 44.2-33.9 74 7.9 21.2 22 40.8 37.9 53.8 7.9 6.5 16.3 11.3 24.6 13.8 5.4 1.6 10.7 2.3 15.9 1.8 2.8-.3 5.5-.9 8.1-1.9s5.1-2.3 7.3-3.9c4.2-3 7.9-7 10.9-11.7 7-11 10.7-26 11.2-42.3s-2.1-33.8-8-49.7c-11.1-29.8-44.2-45-74-33.9zm79.4 99.1c-1.8 10-4.9 19-9.5 26.1-3 4.7-6.6 8.7-10.8 11.6-2.1 1.5-4.4 2.7-6.9 3.6-2.4.9-5 1.5-7.5 1.8-5.1.6-10.4-.1-15.8-1.7-12.2-3.7-24.7-12.5-35.6-24.3-11-11.9-20.3-26.8-26.2-42.6-5.4-14.6-4.4-30.1 1.6-43.2 6-13.1 17.1-24 31.7-29.4s30.1-4.4 43.2 1.6 24 17.1 29.4 31.7c7.8 21 9.9 44.9 6.4 64.8z" class="st7" transform="matrix(1.21327 0 0 1.21327 150.714 148)"/><path d="M29.3 387.6c-.2 0-.4.1-.5.1-.9.3-1.5 1.2-1.4 2.2.4 4.2 1.4 8.4 3 12.6.4 1.1 1.6 1.7 2.8 1.3 1.1-.4 1.7-1.6 1.3-2.8-1.4-3.8-2.3-7.7-2.7-11.5-.2-1.2-1.3-2-2.5-1.9zm31.5-51.4c-9.6 3.6-17.5 9.7-23.2 17.3-5.7 7.6-9.3 16.7-10.2 26.2-.1 1.2.8 2.2 1.9 2.3.3 0 .7 0 1-.1.7-.3 1.3-1 1.4-1.8.8-8.7 4.1-17.1 9.4-24.1 5.3-7 12.5-12.6 21.3-15.8 1.1-.4 1.7-1.6 1.3-2.8-.6-1.1-1.8-1.7-2.9-1.2z" class="st16" transform="matrix(1.21327 0 0 1.21327 150.714 148)"/></g><g><path d="M922.3 131.1l19.4-12.1-95.5-95.5-12.1 19.4 88.2 88.2zm-98.4-72L813.4 76l-8.6 13.8-12.1 19.4-8.6 13.8-12.1 19.5-8.6 13.8-12.1 19.4-8.6 13.8-12.1 19.4-24.2 38.8 6.6 6.6 4.4 4.4 76-47.4 15.4-9.6 47-29.3 19.4-12.1 13.8-8.6 7.9-4.9 1.9-1.2 23.4-14.6L834 42.7l-9 14.5-1.1 1.9zm182.5 19.4L886.6-41.4l-40.4 64.8 95.5 95.5 64.7-40.4zM846.2 23.4zm-12.1 19.4z" class="st12" transform="matrix(1.21327 0 0 1.21327 150.714 148)"/><path d="M846.2 23.4l95.4 95.5-95.4-95.5z" class="st3" transform="matrix(1.21327 0 0 1.21327 150.714 148)"/><path d="M840.1 21.7v22.9-22.9zM922.3 131.1l-88.2-88.2 88.2 88.2zM941.6 119l-19.3 12.1 19.3-12.1-95.4-95.5 95.4 95.5zM823.9 59.1l1.2-1.8L813.4 76l10.5-16.9zM889.1 151.8l9.7-6.1-1.8 1.2-7.9 4.9zM855.9 172.4l19.4-12-19.4 12zM792.7 109.2l12.1-19.4-12.1 19.4zM784.1 123.1l-12 19.3 12-19.3zM757.4 154.5v22.9-22.9zM730.7 208.8l12.1-19.4-12.1 19.4 25.7 25.7-25.7-25.7z" class="st2" transform="matrix(1.21327 0 0 1.21327 150.714 148)"/><path d="M813.4 76zm-62 99.6l-8.6 13.8 33 33-19.4 12.1-25.7-25.7-24.2 38.8 6.6 6.6 4.4 4.4 76-47.4-4 2.5-38.1-38.1zm32.7-52.5l58 58-19.4 12.1-50.7-50.7-8.6 13.8 45.5 45.5 47-29.3-63.2-63.2-8.6 13.8zm-32.7 52.5zm82.7-132.8zm52.5-84.2l-40.4 64.8 95.5 95.5 64.8-40.4L886.6-41.4zM813.4 76l-8.6 13.8 70.5 70.5 13.8-8.6-37.9-37.9L813.4 76zm11.7-18.7l-1.1 1.8 1.6-2.5 83 83-11.5 7.2 1.9-1.2 23.4-14.6-88.2-88.2-9.1 14.5z" class="st13" transform="matrix(1.21327 0 0 1.21327 150.714 148)"/><path d="M713.2 254.2l-6.7-6.6-1.5-1.5-26 26 14.1 14.1 26-26-5.9-6z" class="st11" transform="matrix(1.21327 0 0 1.21327 150.714 148)"/></g><g><path d="M781.5 764.6l7.6 7 30.2-52.8-9.9-3-27.9 48.8zm19.6-51.2l-8.6-2.6-7-2.1-9.9-3-7-2.1-9.9-3-7-2.1-9.9-3-7-2.1-9.9-3-19.7-5.9-2.1 3.7-1.4 2.5 29.6 27.4 6 5.6 18.3 17 7.6 7 5.4 5 3.1 2.8.7.7 9.1 8.5 27.9-48.8-7.4-2.2-.9-.3zm13.1 81.7l38-66.3-33-9.9-30.2 52.7 25.2 23.5zm5-76.3zm-9.8-3z" class="st12" transform="matrix(1.21327 0 0 1.21327 150.714 148)"/><path d="M819.2 718.8L789 771.6l30.2-52.8z" class="st3" transform="matrix(1.21327 0 0 1.21327 150.714 148)"/><path d="M814.3 712.2v10.3-10.3zM781.4 764.7l27.9-48.8-27.9 48.8zM789 771.6l-7.5-7 7.5 7 30.2-52.8-30.2 52.8zM801.1 713.4l.9.2-9.5-2.8 8.6 2.6zM768.5 752.7l3.8 3.5-.7-.7-3.1-2.8zM755.6 740.7l7.6 7-7.6-7zM775.6 705.7l9.9 3-9.9-3zM768.6 703.6l-9.9-3 9.9 3zM746.8 691.9v10.3-10.3zM725 690.5l9.8 3-9.8-3-8.2 14.2 8.2-14.2z" class="st2" transform="matrix(1.21327 0 0 1.21327 150.714 148)"/><path d="M792.5 710.8zm-50.7-15.2l-7-2.1-10.4 18.3-7.6-7 8.1-14.2-19.7-5.9-2.1 3.7-1.4 2.5 29.6 27.4-1.6-1.5 12.1-21.2zm26.8 8l-18.4 32.1-7.6-7 16-28-7-2.1-14.4 25.2 18.3 17 20-35-6.9-2.2zm-26.8-8zm67.6 20.2zm42.8 12.9l-33-9.9-30.2 52.8 25.2 23.4 38-66.3zm-59.7-17.9l-7-2.1-22.3 39 5.4 5 12-20.9 11.9-21zm9.5 2.8l-.9-.3 1.3.4-26.3 45.9-4.5-4.2.7.7 9.1 8.5 27.9-48.8-7.3-2.2z" class="st13" transform="matrix(1.21327 0 0 1.21327 150.714 148)"/><path d="M703.1 688.2l2.1-3.6.5-.9-14.4-8.2-4.5 7.8 14.4 8.2 1.9-3.3z" class="st17" transform="matrix(1.21327 0 0 1.21327 150.714 148)"/></g><g><path d="M1280.6 477.9l10.3-.5-16.7-58.5-9 5 15.4 54zm-23-49.8l-7.8 4.3-6.4 3.5-9 5-6.4 3.5-9 5-6.4 3.5-9 5-6.4 3.5-9 5-18 10 1.2 4.1.8 2.7 40.3-2 8.2-.4 24.9-1.2 10.3-.5 7.3-.4 4.2-.2h1l12.4-.6-15.4-54.1-6.7 3.7-1.1.6zm67.7 47.6l-21-73.5-30.1 16.7 16.7 58.5 34.4-1.7zm-51.1-56.8zm-9 5z" class="st12" transform="matrix(1.21327 0 0 1.21327 150.714 148)"/><path d="M1274.2 418.9l16.7 58.5-16.7-58.5z" class="st3" transform="matrix(1.21327 0 0 1.21327 150.714 148)"/><path d="M1269.7 416.2v10.3-10.3zM1280.6 477.9l-15.4-54 15.4 54zM1290.9 477.4l-10.3.5 10.3-.5-16.7-58.5 16.7 58.5zM1257.6 428.1l.8-.5-8.6 4.8 7.8-4.3zM1263 478.8l5.2-.3-1 .1-4.2.2zM1245.4 479.7l10.3-.5-10.3.5zM1234.3 440.8l9-5-9 5zM1227.9 444.5l-9 5 9-5zM1208 450.4v10.3-10.3zM1188.1 466.6l9-5-9 5 4.5 15.7-4.5-15.7z" class="st2" transform="matrix(1.21327 0 0 1.21327 150.714 148)"/><path d="M1249.8 432.4zm-46.3 25.6l-6.4 3.5 5.8 20.2-10.3.5-4.5-15.8-18 10 1.2 4.1.8 2.7 40.3-2-2.1.1-6.8-23.3zm24.4-13.5l10.1 35.6-10.3.5-8.9-31.1-6.4 3.5 8 27.9 24.9-1.2-11-38.7-6.4 3.5zm-24.4 13.5zm61.7-34.1zm39.1-21.7l-30.1 16.7 16.7 58.5 34.4-1.7-21-73.5zm-54.5 30.2l-6.4 3.5 12.3 43.2 7.3-.4-6.6-23.2-6.6-23.1zm8.6-4.8l-.8.5 1.2-.7 14.5 50.9-6.1.3h1l12.4-.6-15.4-54.1-6.8 3.7z" class="st13" transform="matrix(1.21327 0 0 1.21327 150.714 148)"/><path d="M1171.2 480.6l-1.2-4.1-.2-.9-16 4.6 2.5 8.6 16-4.5-1.1-3.7z" class="st17" transform="matrix(1.21327 0 0 1.21327 150.714 148)"/></g><g><path d="M673.4 392.7l-8.3-6.2-24.5 55.7 10.1 1.9 22.7-51.4zm-14 53l8.8 1.7 7.2 1.4 10.1 1.9 7.2 1.4 10.1 1.9 7.2 1.4 10.1 1.9 7.2 1.4 10.1 1.9 20.3 3.8 1.7-3.9 1.1-2.6-32.3-24.2-6.5-4.9-20-15-8.3-6.2-5.9-4.4-3.3-2.6-.8-.7-10-7.5-22.4 51.3 7.6 1.5.8.5zm-21.7-79.8l-30.8 69.9 33.9 6.4 24.5-55.7-27.6-20.6zm3 76.4zm10.1 1.9z" class="st12" transform="matrix(1.21327 0 0 1.21327 150.714 148)"/><path d="M640.7 442.3l24.6-55.8-24.6 55.8z" class="st3" transform="matrix(1.21327 0 0 1.21327 150.714 148)"/><path d="M641.7 446.4l8-6.5-8 6.5zM673.5 392.6L650.8 444l22.7-51.4zM665.2 386.5l8.2 6.2-8.2-6.2-24.6 55.8 24.6-55.8zM659.4 445.7l-1-.1 9.8 1.8-8.8-1.7zM687.6 403.3l-4.1-3.1.8.5 3.3 2.6zM701.7 413.8l-8.3-6.2 8.3 6.2zM685.4 450.7l-10.1-1.9 10.1 1.9zM692.7 452l10.1 1.9-10.1-1.9zM711 459.5l8-6.5-8 6.5zM737.4 460.5l-10.1-1.9 10.1 1.9 6.6-14.9-6.6 14.9z" class="st2" transform="matrix(1.21327 0 0 1.21327 150.714 148)"/><path d="M668.1 447.4zm52 9.8l7.2 1.4 8.5-19.3 8.3 6.2-6.6 14.9 20.3 3.8 1.7-3.9 1.1-2.6-32.3-24.2 1.7 1.3-9.9 22.4zm-27.4-5.2l14.9-33.8 8.3 6.2-13 29.6 7.2 1.4 11.6-26.5-20-15-16.2 36.9 7.2 1.2zm27.4 5.2zm-69.3-13zm-43.9-8.4l33.9 6.4 24.5-55.7-27.6-20.7-30.8 70zm61.2 11.6l7.2 1.4 18.1-41.1-5.9-4.4-9.7 22.1-9.7 22zm-9.7-1.8l.9.2-1.3-.2 21.3-48.5 4.9 3.7-.8-.7-10-7.5-22.7 51.5 7.7 1.5z" class="st13" transform="matrix(1.21327 0 0 1.21327 150.714 148)"/><path d="M759.3 460.4l-1.7 3.9-.4.8 15.2 6.8 3.6-8.3-15.1-6.7-1.6 3.5z" class="st17" transform="matrix(1.21327 0 0 1.21327 150.714 148)"/></g></svg>