<?xml version="1.0" encoding="utf-8"?>
<!-- Generator: Adobe Illustrator 23.0.1, SVG Export Plug-In . SVG Version: 6.00 Build 0)  -->
<svg version="1.1" id="master-artboard" xmlns="http://www.w3.org/2000/svg" xmlns:xlink="http://www.w3.org/1999/xlink" x="0px"
	 y="0px" viewBox="0 0 1990 1500" style="enable-background:new 0 0 1990 1500;" xml:space="preserve">
<style type="text/css">
	.st0{fill:#FFFFFF;}
	.st1{fill:#1C75BC;}
	.st2{fill:#27AAE1;}
	.st3{fill:none;}
	.st4{fill:#808080;}
	.st5{fill:#C61653;}
	.st6{fill:#DA1C5C;}
	.st7{fill:#F7B3CC;}
	.st8{fill:#EE2A7B;}
	.st9{fill:#7A1878;}
	.st10{fill:#851F83;}
	.st11{fill:#D82470;}
	.st12{fill:#29AAE2;}
	.st13{fill:#1B75BC;}
	.st14{fill:#BA1E50;}
	.st15{fill:#FBB040;}
	.st16{fill:#E9959D;}
	.st17{fill:#B3B3B3;}
</style>
<rect id="ee-background" y="0" class="st0" width="1990" height="1500"/>
<path class="st0" d="M0,0h1990v1500H0V0z"/>
<g transform="matrix(1.213265299797058, 0, 0, 1.213265299797058, 150.7142791748047, 148)">
	<g>
		<path class="st1" d="M358.2,59.5c0.3,0,0.6,0.1,0.9,0.2c0.3,0.1,0.6,0.1,0.9,0.3c0.7,0.2,1.3,0.5,2.1,0.8c0.3,0.2,0.7,0.4,1.1,0.6
			c0.3,0.2,0.7,0.4,1.1,0.7c0.7,0.5,1.4,1.1,2.1,1.7c0.7,0.6,1.3,1.4,1.9,2.2s1.1,1.6,1.6,2.5s0.9,1.7,1.3,2.6
			c0.8,1.7,1.3,3.5,1.7,5c0.8,3,1,5.1,1,5.1l0,0l0,0l0,0l0,0c0-0.2,0.2-2.3,1-5.3c0.4-1.6,1-3.4,1.8-5.2c0.4-0.9,0.8-1.8,1.4-2.7
			c0.5-0.9,1.1-1.8,1.7-2.6c0.6-0.8,1.3-1.6,2-2.3s1.4-1.3,2.2-1.9c0.4-0.3,0.8-0.5,1.1-0.7c0.4-0.2,0.8-0.4,1.1-0.6
			c0.8-0.4,1.5-0.7,2.2-0.9c0.3-0.1,0.7-0.2,1-0.3s0.6-0.2,0.9-0.2c0.6-0.1,1.1-0.2,1.5-0.2c0.8-0.1,1.3-0.1,1.3-0.1l-0.7-5.6
			c0,0-0.6,0.1-1.6,0.4c-0.5,0.1-1.1,0.4-1.9,0.6c-0.4,0.1-0.7,0.3-1.1,0.5s-0.8,0.3-1.2,0.6c-0.8,0.4-1.7,0.9-2.5,1.5
			c-0.4,0.3-0.9,0.6-1.3,1s-0.8,0.7-1.2,1.1c-0.8,0.8-1.6,1.7-2.2,2.6c-0.7,0.9-1.3,2-1.8,3c0,0,0,0,0,0.1c0.1-0.3,0.2-0.5,0.2-0.8
			c0.4-1.1,0.8-2.1,1.2-3.1c0.2-0.5,0.4-1,0.7-1.5c0.2-0.5,0.5-0.9,0.7-1.4c0.5-0.9,1-1.7,1.5-2.4c0.3-0.3,0.5-0.7,0.8-1
			s0.5-0.6,0.8-0.8s0.5-0.5,0.8-0.7s0.5-0.4,0.7-0.5s0.4-0.2,0.6-0.3s0.4-0.1,0.6-0.2c0.3-0.2,0.6-0.2,0.8-0.2
			c0.2,0,0.3-0.1,0.3-0.1l-1.4-5.5c0,0-0.2,0.1-0.5,0.2c-0.3,0.1-0.9,0.3-1.4,0.6c-0.3,0.2-0.6,0.3-0.9,0.6c-0.3,0.2-0.6,0.5-1,0.8
			c-0.3,0.3-0.7,0.6-1,1c-0.3,0.3-0.6,0.7-1,1.1c-0.3,0.4-0.6,0.8-0.9,1.3s-0.6,0.9-0.8,1.4c-0.5,1-1,2-1.4,3.1
			c-0.2,0.5-0.4,1.1-0.6,1.7c-0.2,0.6-0.3,1.1-0.5,1.7c-0.3,1.2-0.5,2.3-0.7,3.5c-0.5,2.7-0.7,5.3-0.9,7.8c-0.1-2.5-0.4-5.1-0.9-7.8
			c-0.2-1.2-0.4-2.4-0.7-3.5c-0.1-0.6-0.3-1.2-0.5-1.7c-0.2-0.6-0.4-1.1-0.6-1.7c-0.4-1.1-0.9-2.1-1.4-3.1c-0.3-0.5-0.5-1-0.8-1.4
			s-0.6-0.9-0.9-1.3c-0.3-0.4-0.6-0.8-1-1.1s-0.7-0.7-1-1c-0.4-0.3-0.7-0.5-1-0.8c-0.3-0.2-0.7-0.4-0.9-0.6
			c-0.6-0.4-1.1-0.5-1.4-0.6s-0.5-0.2-0.5-0.2l-1.4,5.5c0,0,0.1,0,0.3,0.1c0.2,0.1,0.5,0.1,0.8,0.2c0.2,0.1,0.4,0.1,0.6,0.2
			c0.2,0.1,0.4,0.2,0.6,0.3s0.5,0.3,0.7,0.5c0.3,0.2,0.5,0.4,0.8,0.7c0.3,0.2,0.5,0.5,0.8,0.8s0.5,0.6,0.8,1
			c0.5,0.7,1.1,1.5,1.5,2.4c0.2,0.4,0.5,0.9,0.7,1.4s0.5,1,0.7,1.5c0.4,1,0.8,2.1,1.2,3.1c0.2,0.7,0.5,1.5,0.7,2.2
			c-0.1-0.2-0.2-0.5-0.4-0.7c-0.5-1-1.1-2-1.8-2.8c-0.6-0.9-1.4-1.7-2.2-2.5c-0.4-0.4-0.8-0.7-1.2-1.1c-0.4-0.3-0.8-0.6-1.2-0.9
			c-0.8-0.6-1.7-1.1-2.5-1.5c-0.4-0.2-0.8-0.4-1.2-0.5c-0.4-0.2-0.7-0.3-1.1-0.4c-0.7-0.2-1.3-0.4-1.8-0.6c-1-0.2-1.6-0.4-1.6-0.4
			l-0.7,5.6c0,0,0.5,0,1.3,0.1C357.2,59.3,357.7,59.4,358.2,59.5z M443.5,258.1L443.5,258.1l-3.9-9.9l-8.3-21.1l-6.2-15.7
			l-18.8-47.9l-2.4-6.2l-3.9-10.1l-26-66.3l-26,66.3l-3.9,10.1l-2.4,6.2L323,211.4l-6.2,15.7l-8.3,21.1l-3.9,9.9l0,0l-43.5,111v2.4
			c0,18.6,50.5,33.8,112.9,33.8s113-15.1,113-33.7v-2.4L443.5,258.1z"/>
		<g>
			<path class="st2" d="M361.9,50.9c0.2,0.1,0.4,0.1,0.6,0.2c0.2,0.1,0.4,0.2,0.6,0.3s0.5,0.3,0.7,0.5c0.3,0.2,0.5,0.4,0.8,0.7
				c0.3,0.2,0.5,0.5,0.8,0.8s0.5,0.6,0.8,1c0.5,0.7,1.1,1.5,1.5,2.4c0.2,0.4,0.5,0.9,0.7,1.4s0.5,1,0.7,1.5c0.4,1,0.8,2.1,1.2,3.1
				c0.2,0.7,0.5,1.5,0.7,2.2c0.4,0.7,0.7,1.5,1,2.3c0.4,1,0.7,2,0.9,3c0.4,1.8,0.7,3.4,0.9,4.9c0,0.2,0,0.4,0.1,0.5
				c0,0.5,0.1,1,0.1,1.5c0-0.5,0.1-1.1,0.1-1.7c0-0.1,0-0.3,0-0.4c0.2-1.6,0.4-3.3,0.9-5.2c0.3-1,0.6-2.1,1-3.1s0.8-2.1,1.3-3.1
				c0.1-0.3,0.2-0.5,0.2-0.8c0.4-1.1,0.8-2.1,1.2-3.1c0.2-0.5,0.4-1,0.7-1.5c0.2-0.5,0.5-0.9,0.7-1.4c0.5-0.9,1-1.7,1.5-2.4
				c0.3-0.3,0.5-0.7,0.8-1s0.5-0.6,0.8-0.8s0.5-0.5,0.8-0.7s0.5-0.4,0.7-0.5s0.4-0.2,0.6-0.3s0.4-0.1,0.6-0.2
				c0.3-0.2,0.6-0.2,0.8-0.2c0.2,0,0.3-0.1,0.3-0.1l-1.4-5.5c0,0-0.2,0.1-0.5,0.2c-0.3,0.1-0.9,0.3-1.4,0.6
				c-0.3,0.2-0.6,0.3-0.9,0.6c-0.3,0.2-0.6,0.5-1,0.8c-0.3,0.3-0.7,0.6-1,1c-0.3,0.3-0.6,0.7-1,1.1c-0.3,0.4-0.6,0.8-0.9,1.3
				s-0.6,0.9-0.8,1.4c-0.5,1-1,2-1.4,3.1c-0.2,0.5-0.4,1.1-0.6,1.7c-0.2,0.6-0.3,1.1-0.5,1.7c-0.3,1.2-0.5,2.3-0.7,3.5
				c-0.5,2.7-0.7,5.3-0.9,7.8c-0.1-2.5-0.4-5.1-0.9-7.8c-0.2-1.2-0.4-2.4-0.7-3.5c-0.1-0.6-0.3-1.2-0.5-1.7
				c-0.2-0.6-0.4-1.1-0.6-1.7c-0.4-1.1-0.9-2.1-1.4-3.1c-0.3-0.5-0.5-1-0.8-1.4s-0.6-0.9-0.9-1.3c-0.3-0.4-0.6-0.8-1-1.1
				s-0.7-0.7-1-1c-0.4-0.3-0.7-0.5-1-0.8c-0.3-0.2-0.7-0.4-0.9-0.6c-0.6-0.4-1.1-0.5-1.4-0.6s-0.5-0.2-0.5-0.2l-1.4,5.5
				c0,0,0.1,0,0.3,0.1C361.3,50.8,361.6,50.8,361.9,50.9z M374.1,251.5c25.4,0,48.1-3.4,63.3-8.8l2.2,5.5l-8.3-21.1
				c-14.5,4.5-34.8,7.3-57.3,7.3s-42.8-2.8-57.3-7.3l-8.3,21.1l2.2-5.5C326,248.1,348.7,251.5,374.1,251.5z M400.1,147.3l-26-66.3
				l-26,66.3c7.9,1.1,16.7,1.7,26,1.7C383.4,148.9,392.2,148.3,400.1,147.3z M361.1,114.3c4.2,0.3,8.6,0.5,13,0.5
				c4.5,0,8.9-0.2,13-0.5l6.5,16.6c-6.1,0.6-12.7,1-19.5,1s-13.4-0.3-19.5-1L361.1,114.3z M425.2,211.4l-18.8-47.9
				c-9.6,1.6-20.6,2.5-32.3,2.5s-22.8-0.9-32.3-2.5L323,211.4c13.5,3.6,31.4,5.9,51.1,5.9C393.8,217.3,411.7,215.1,425.2,211.4z
				 M335.5,179.6c11.1,2.2,24.3,3.5,38.6,3.5c14.3,0,27.6-1.3,38.6-3.5l6.3,16c-12.4,2.9-28,4.6-44.9,4.6s-32.5-1.7-44.9-4.6
				L335.5,179.6z M443.5,258.1c-15.7,6.3-41,10.5-69.4,10.5s-53.7-4.1-69.4-10.5l-43.5,111v2.4c0,18.6,50.5,33.8,112.9,33.8
				S487,390.2,487,371.6v-2.4L443.5,258.1z"/>
			<path class="st1" d="M393.7,130.9l-6.5-16.6c-4.2,0.3-8.6,0.5-13,0.5c-4.5,0-8.9-0.2-13-0.5l-6.5,16.6c6.1,0.6,12.7,1,19.5,1
				C381,131.8,387.6,131.5,393.7,130.9z M358.2,59.5c0.3,0,0.6,0.1,0.9,0.2c0.3,0.1,0.6,0.1,0.9,0.3c0.7,0.2,1.3,0.5,2.1,0.8
				c0.3,0.2,0.7,0.4,1.1,0.6c0.3,0.2,0.7,0.4,1.1,0.7c0.7,0.5,1.4,1.1,2.1,1.7c0.7,0.6,1.3,1.4,1.9,2.2s1.1,1.6,1.6,2.5
				s0.9,1.7,1.3,2.6c0.8,1.7,1.3,3.5,1.7,5c0.8,3,1,5.1,1,5.1l0,0l0,0l0,0l0,0c0-0.2,0.2-2.3,1-5.3c0.4-1.6,1-3.4,1.8-5.2
				c0.4-0.9,0.8-1.8,1.4-2.7c0.5-0.9,1.1-1.8,1.7-2.6c0.6-0.8,1.3-1.6,2-2.3s1.4-1.3,2.2-1.9c0.4-0.3,0.8-0.5,1.1-0.7
				c0.4-0.2,0.8-0.4,1.1-0.6c0.8-0.4,1.5-0.7,2.2-0.9c0.3-0.1,0.7-0.2,1-0.3s0.6-0.2,0.9-0.2c0.6-0.1,1.1-0.2,1.5-0.2
				c0.8-0.1,1.3-0.1,1.3-0.1l-0.7-5.6c0,0-0.6,0.1-1.6,0.4c-0.5,0.1-1.1,0.4-1.9,0.6c-0.4,0.1-0.7,0.3-1.1,0.5s-0.8,0.3-1.2,0.6
				c-0.8,0.4-1.7,0.9-2.5,1.5c-0.4,0.3-0.9,0.6-1.3,1s-0.8,0.7-1.2,1.1c-0.8,0.8-1.6,1.7-2.2,2.6c-0.7,0.9-1.3,2-1.8,3
				c0,0,0,0,0,0.1c-0.5,1-1,2.1-1.3,3.1c-0.4,1-0.7,2.1-1,3.1c-0.5,1.9-0.7,3.7-0.9,5.2c0,0.1,0,0.3,0,0.4c-0.1,0.6-0.1,1.2-0.1,1.7
				c0-0.5-0.1-1-0.1-1.5c0-0.2,0-0.3-0.1-0.5c-0.2-1.5-0.4-3.1-0.9-4.9c-0.3-1-0.5-2-0.9-3c-0.3-0.8-0.6-1.5-1-2.3
				c-0.1-0.2-0.2-0.5-0.4-0.7c-0.5-1-1.1-2-1.8-2.8c-0.6-0.9-1.4-1.7-2.2-2.5c-0.4-0.4-0.8-0.7-1.2-1.1c-0.4-0.3-0.8-0.6-1.2-0.9
				c-0.8-0.6-1.7-1.1-2.5-1.5c-0.4-0.2-0.8-0.4-1.2-0.5c-0.4-0.2-0.7-0.3-1.1-0.4c-0.7-0.2-1.3-0.4-1.8-0.6c-1-0.2-1.6-0.4-1.6-0.4
				l-0.7,5.6c0,0,0.5,0,1.3,0.1C357.2,59.3,357.7,59.4,358.2,59.5z M439.7,248.3l-2.2-5.5c-15.2,5.4-38,8.8-63.3,8.8
				c-25.4,0-48.1-3.4-63.3-8.8l-2.2,5.5l-3.9,9.9l0,0c15.7,6.3,41,10.5,69.4,10.5s53.7-4.1,69.4-10.5l0,0L439.7,248.3z M406.5,163.5
				l-2.4-6.2l-3.9-10.1c-7.9,1.1-16.7,1.7-26,1.7s-18-0.6-26-1.7l-3.9,10.1l-2.4,6.2c9.6,1.6,20.6,2.5,32.3,2.5
				S396.9,165.1,406.5,163.5z M419,195.6l-6.3-16c-11.1,2.2-24.3,3.5-38.6,3.5c-14.3,0-27.6-1.3-38.6-3.5l-6.3,16
				c12.4,2.9,28,4.6,44.9,4.6C391.1,200.2,406.6,198.5,419,195.6z M431.4,227.1l-6.2-15.7c-13.5,3.6-31.4,5.9-51.1,5.9
				s-37.6-2.2-51.1-5.9l-6.2,15.7c14.5,4.5,34.8,7.3,57.3,7.3C396.6,234.4,416.9,231.6,431.4,227.1z"/>
		</g>
	</g>
	<g>
		<path class="st3" d="M139.8,796.9c-2.3,0.6-4.4-1.5-3.8-3.7l0.7-2.7c-0.1,0-0.2,0-0.4,0l0,0c-1.8,0-3.6-0.2-5.5-0.5
			c-1.3,1.5-2.7,2.9-4.2,4.1l2.2,1.6c1.9,1.4,1.7,4.3-0.5,5.3l-4.5,2.1l56.3,122l-35.6-129.6L139.8,796.9z"/>
		<path class="st3" d="M176.4,785.3l1.4-2.4c-5-1.3-9.9-3.9-14.6-7.8c-3.5,4.9-7.5,8.8-12,11.4l2,1.9c1.7,1.7,0.9,4.5-1.3,5.2
			L147,795l37.1,135.2V790l0,0h-5C176.7,790,175.3,787.4,176.4,785.3z"/>
		<path class="st3" d="M219.5,761.7c-7.8,11.4-16.9,18.8-26.6,21.3l1.4,2.4c1.2,2.1-0.3,4.6-2.7,4.6h-5l0,0v142.9l53-132.7l0,0
			l-4.6-1.9c-2.2-0.9-2.6-3.8-0.8-5.3l2.2-1.7C228.2,785.4,222.4,775.2,219.5,761.7z"/>
		<path class="st4" d="M239.5,800.1L239.5,800.1l-53,132.7V790l0,0h-2.4l0,0v140.2L147,795l-2.4,0.6l35.6,129.6l-56.3-122l-2.2,1
			l62.5,135.5l0,0c0,0.1,0.1,0.1,0.1,0.1l0,0l0,0l0.1,0.1l0,0l0,0l0,0l0,0l0.1,0.1l0,0l0,0l0,0c0,0,0.1,0,0.1,0.1c0,0,0,0,0.1,0l0,0
			l0,0c0,0,0,0,0.1,0l0,0l0,0c0,0,0,0,0.1,0l0,0c0.1,0,0.1,0,0.2,0l0,0l0,0h0.1c0.1,0,0.1,0,0.2,0l0,0l0,0l0,0l0,0l0,0h0.1l0,0l0,0
			h0.1l0,0l0,0l0,0l0,0c0,0,0,0,0.1-0.1c0,0,0,0,0.1-0.1l0,0l0,0l0,0l0,0c0,0,0-0.1,0.1-0.1l0,0v-0.1v-0.1l0,0L241.2,801l0,0
			L239.5,800.1z"/>
		<path class="st5" d="M151.2,786.6c-2.2,1.3-4.6,2.3-7,2.9c-2.4,0.7-4.9,1-7.5,1l-0.7,2.7c-0.6,2.3,1.5,4.4,3.8,3.7l4.8-1.3
			l2.4-0.6l4.8-1.3c2.3-0.6,3-3.5,1.3-5.2L151.2,786.6z M250.6,799.6l-0.4-2.7c-2.6-0.3-5-0.9-7.3-1.9c-2.3-0.9-4.6-2.2-6.6-3.7
			l-2.2,1.7c-1.9,1.5-1.4,4.4,0.8,5.3l4.6,1.9l2.3,0.9l4.6,1.9C248.6,803.8,251,802,250.6,799.6z M128.9,795.8l-2.2-1.6
			c-2,1.6-4.1,3-6.4,4c-2.3,1.1-4.7,1.8-7.2,2.2l-0.3,2.8c-0.2,2.4,2.2,4.1,4.4,3.1l4.5-2.1l2.2-1l4.5-2.1
			C130.6,800.1,130.9,797.2,128.9,795.8z M192.9,783c-2.5,0.6-5,1-7.5,1s-5-0.3-7.5-1l-1.4,2.4c-1.2,2.1,0.3,4.6,2.7,4.6h12.4
			c2.4,0,3.9-2.6,2.7-4.6L192.9,783z"/>
		<path class="st6" d="M109.2,662c1-0.3,2.1,0.3,2.4,1.4c0.3,1-0.3,2.1-1.4,2.4c-3.9,1.1-7.6,2.7-11,4.8c14.4,4.2,26.6,14.4,33,28.4
			c0.2,0.4,0.4,0.8,0.6,1.3c0-0.5,0-0.9,0-1.4c0-14,5.5-26.7,14.4-36.1c-7.6-4.4-16.4-6.8-25.6-6.8c-4.6,0-9.2,0.6-13.7,1.9
			c-7.6,2.1-14.5,5.8-20.2,10.8c2.1,0.1,4.2,0.4,6.2,0.8C98.6,665.9,103.7,663.5,109.2,662z M321.8,695.6
			c-5.4-12.6-15.5-22.4-28.3-27.5c-6.1-2.4-12.6-3.7-19.1-3.7c-10.2,0-20.1,3-28.6,8.7c-4,2.7-7.6,5.8-10.6,9.4
			c0.6,1.8,1.1,3.6,1.5,5.4c0.7-0.6,1.7-0.7,2.4-0.1c0.9,0.6,1.1,1.9,0.4,2.7c-0.7,1-1.4,2-2,3c0.2,1.8,0.3,3.5,0.3,5.3
			c0,20.3-5.6,41.5-15.3,58c-0.8,1.3-1.5,2.6-2.3,3.8c2.9,13.9,8.7,24.2,16.9,30.1c1.9,1.4,4,2.5,6.2,3.4s4.5,1.5,6.8,1.8
			c1.4,0.2,2.7,0.3,4.1,0.3l0,0c11.9,0,25.5-6.5,38.4-18.2c12.7-11.5,23.2-26.8,29.7-43C327.4,722.2,327.2,708.2,321.8,695.6z
			 M293,674.7c-0.4,1-1.5,1.5-2.5,1.1c-15.3-6.1-33-2.9-45.1,8.2c-0.4,0.3-0.8,0.5-1.3,0.5s-1.1-0.2-1.4-0.6c-0.7-0.8-0.7-2,0.1-2.8
			c6.4-5.9,14.4-9.9,23-11.5c8.8-1.7,17.9-0.8,26.3,2.5C292.9,672.6,293.4,673.7,293,674.7z M142.1,744.8c0-0.5,0-1-0.1-1.4
			c0-0.5,0-1-0.1-1.5c-0.7-12.2-3.4-24.7-8-36.3c-0.2-0.5-0.4-0.9-0.6-1.4c-0.2-0.4-0.4-0.9-0.5-1.3c-0.5-1.2-1-2.3-1.5-3.5
			c-6.4-14-18.8-24.1-33.2-28.1c-1.7-0.5-3.4-0.9-5.2-1.1c-2-0.3-4.1-0.6-6.2-0.6c-0.2,0-0.4,0-0.7,0c-0.2,0-0.5,0-0.7,0
			c-0.3,0-0.5,0-0.8,0c-7.5,0-14.7,1.6-21.6,4.8c-12.5,5.8-22,16.1-26.8,29C31.4,716,32,730,37.8,742.5
			c14.9,32.2,45.4,57.5,69.4,57.5l0,0c2,0,4-0.2,5.9-0.5c2.4-0.4,4.6-1.1,6.7-2.1s4.1-2.2,6-3.7c1.4-1.1,2.7-2.4,3.9-3.7
			c0.1-0.1,0.2-0.3,0.4-0.4c0.1-0.1,0.2-0.3,0.4-0.4c6-7.3,9.9-17.9,11.2-31.1C142.1,753.6,142.3,749.2,142.1,744.8z M44.4,741.6
			c-0.3,0.1-0.5,0.2-0.8,0.2c-0.7,0-1.4-0.4-1.8-1.1c-1.7-3.6-2.9-7.4-3.6-11.2c-0.2-1.1,0.5-2.1,1.6-2.3s2.1,0.5,2.3,1.6
			c0.6,3.5,1.7,7,3.3,10.3C45.8,740,45.4,741.2,44.4,741.6z M66.5,681.7c-14.9,6.9-24.7,22-25.1,38.4c0,1.1-0.9,1.9-2,1.9l0,0
			c-1.1,0-1.9-0.9-1.9-2c0.2-8.7,2.7-17.2,7.5-24.6c4.8-7.6,11.7-13.6,19.9-17.3c1-0.5,2.1,0,2.6,1
			C67.9,680.1,67.5,681.3,66.5,681.7z M236.9,698.8c0-1.3,0-2.6-0.1-3.9c-0.2-2.1-0.4-4.1-0.8-6c-0.4-1.9-0.8-3.7-1.4-5.5
			c-0.1-0.2-0.1-0.4-0.2-0.5c-0.1-0.2-0.1-0.4-0.2-0.5c-6.9-20.3-26.2-35-48.8-35c-14.3,0-27.2,5.8-36.5,15.2
			c-0.1,0.1-0.2,0.2-0.3,0.3s-0.2,0.2-0.4,0.4c-8.9,9.3-14.3,21.8-14.3,35.6c0,1.3,0,2.5,0.1,3.8c5.6,13.3,8.8,27.9,9.2,42
			c1.7,4.1,3.7,8,5.9,11.7c4.2,7.2,9,13.1,14.1,17.5c0.1,0.1,0.2,0.2,0.3,0.3s0.3,0.2,0.4,0.3c4.6,3.8,9.5,6.4,14.5,7.7
			c2.3,0.6,4.7,0.9,7,0.9c2.4,0,4.7-0.3,7-0.9c9.7-2.4,19-9.9,26.8-21.7c0.1-0.2,0.3-0.4,0.4-0.6c0.1-0.2,0.3-0.4,0.4-0.6
			c0.6-0.9,1.2-1.9,1.8-2.9C231.3,739.9,236.9,718.9,236.9,698.8z M143.5,688.1c-0.9,3.5-1.3,7.1-1.3,10.7c0,1.1-0.9,2-2,2
			s-2-0.9-2-2c0-3.9,0.5-7.9,1.5-11.7c0.3-1,1.3-1.7,2.4-1.4C143.1,686,143.8,687,143.5,688.1z M185.3,655.6
			c-11.1,0-21.7,4.4-29.6,11.8c-0.1,0.1-0.2,0.2-0.3,0.3s-0.2,0.2-0.4,0.4c-3.5,3.4-6.4,7.4-8.6,11.9c-0.3,0.7-1,1.1-1.8,1.1
			c-0.3,0-0.6-0.1-0.9-0.2c-1-0.5-1.4-1.6-0.9-2.6c2.3-4.7,5.3-8.9,9-12.6c0.1-0.1,0.2-0.3,0.4-0.4c0.1-0.1,0.2-0.2,0.3-0.3
			c2.3-2.2,4.7-4.2,7.4-5.9c7.6-4.8,16.3-7.4,25.3-7.4c1.1,0,2,0.9,2,2C187.3,654.7,186.4,655.6,185.3,655.6z M148.1,756.8
			c-1.8-3.1-3.5-6.3-5-9.7c0,3.7-0.1,7.3-0.5,10.9c-1.3,13.1-5.1,23.8-11.1,31.2c1.6,0.2,3.2,0.4,4.7,0.4l0,0c0.2,0,0.4,0,0.6,0
			c2.4,0,4.7-0.4,7-1s4.4-1.5,6.5-2.7c4.5-2.5,8.5-6.3,12-11.3C157.3,770.1,152.5,764.2,148.1,756.8z"/>
		<path class="st7" d="M64.8,678.2c-8.2,3.8-15,9.8-19.9,17.3c-4.7,7.4-7.3,15.9-7.5,24.6c0,1.1,0.8,2,1.9,2l0,0
			c1.1,0,1.9-0.9,2-1.9c0.3-16.5,10.2-31.6,25.1-38.4c1-0.5,1.4-1.6,1-2.6C67,678.1,65.8,677.7,64.8,678.2z M42.1,728.7
			c-0.2-1.1-1.2-1.8-2.3-1.6s-1.8,1.2-1.6,2.3c0.7,3.9,1.9,7.6,3.6,11.2c0.3,0.7,1,1.1,1.8,1.1c0.3,0,0.6-0.1,0.8-0.2
			c1-0.5,1.4-1.6,1-2.6C43.9,735.7,42.8,732.3,42.1,728.7z M142.1,685.7c-1-0.3-2.1,0.4-2.4,1.4c-1,3.8-1.5,7.7-1.5,11.7
			c0,1.1,0.9,2,2,2s2-0.9,2-2c0-3.6,0.5-7.2,1.3-10.7C143.8,687,143.1,686,142.1,685.7z M185.3,651.7c-9,0-17.8,2.6-25.3,7.4
			c-2.7,1.7-5.2,3.7-7.4,5.9c-0.1,0.1-0.2,0.2-0.3,0.3s-0.2,0.2-0.4,0.4c-3.6,3.7-6.7,7.9-9,12.6c-0.5,1-0.1,2.1,0.9,2.6
			c0.3,0.1,0.6,0.2,0.9,0.2c0.7,0,1.4-0.4,1.8-1.1c2.2-4.5,5.1-8.5,8.6-11.9c0.1-0.1,0.2-0.2,0.4-0.4c0.1-0.1,0.2-0.2,0.3-0.3
			c7.9-7.4,18.5-11.8,29.6-11.8c1.1,0,2-0.9,2-2C187.3,652.6,186.4,651.7,185.3,651.7z M322.7,695.2c-5.5-12.9-15.8-22.9-28.8-28.1
			c-6.2-2.5-12.8-3.8-19.5-3.8c-10.4,0-20.5,3.1-29.1,8.8c-3.9,2.6-7.4,5.7-10.4,9.2c-7.2-20.4-26.7-35.1-49.5-35.1
			c-14.6,0-27.9,6-37.4,15.7c-7.8-4.5-16.8-7.1-26.3-7.1c-4.7,0-9.4,0.6-13.9,1.9c-8.1,2.2-15.3,6.2-21.4,11.7c-0.6,0-1.2,0-1.9,0
			c-7.6,0-15,1.6-22,4.8c-12.7,5.9-22.4,16.4-27.3,29.5c-4.8,13.2-4.3,27.4,1.6,40.2c15,32.6,45.9,58.1,70.3,58.1l0,0
			c2,0,3.9-0.2,5.8-0.5c2.5-0.5,5-1.2,7.2-2.2c2.3-1.1,4.4-2.4,6.4-4c1.5-1.2,2.9-2.6,4.2-4.1c1.8,0.3,3.7,0.5,5.5,0.5l0,0
			c0.1,0,0.2,0,0.4,0c2.6,0,5.1-0.4,7.5-1c2.4-0.7,4.8-1.7,7-2.9c4.5-2.6,8.5-6.4,12-11.4c4.6,3.8,9.6,6.5,14.6,7.8
			c2.5,0.6,5,1,7.5,1s5-0.3,7.5-1c9.7-2.5,18.8-9.8,26.6-21.3c3,13.5,8.8,23.7,16.8,29.6c2.1,1.5,4.3,2.8,6.6,3.7s4.8,1.5,7.3,1.9
			c1.3,0.2,2.6,0.3,4,0.3l0,0c12.1,0,26-6.5,39.1-18.4c12.8-11.6,23.4-27,29.9-43.3C328.4,722.3,328.3,708.1,322.7,695.2z
			 M108,657.7c4.5-1.2,9.1-1.9,13.7-1.9c9.2,0,18,2.5,25.6,6.8c-8.9,9.4-14.4,22.1-14.4,36.1c0,0.5,0,0.9,0,1.4
			c-0.2-0.4-0.4-0.9-0.6-1.3c-6.4-14-18.7-24.2-33-28.4c3.4-2.1,7.1-3.7,11-4.8c1-0.3,1.7-1.4,1.4-2.4c-0.3-1-1.4-1.7-2.4-1.4
			c-5.5,1.5-10.6,4-15.2,7.3c-2-0.4-4.1-0.6-6.2-0.8C93.5,663.5,100.4,659.8,108,657.7z M130.5,789c-0.1,0.1-0.2,0.3-0.4,0.4
			c-0.1,0.1-0.2,0.3-0.4,0.4c-1.2,1.4-2.5,2.6-3.9,3.7c-1.9,1.5-3.9,2.8-6,3.7c-2.1,1-4.4,1.7-6.7,2.1c-1.9,0.4-3.9,0.5-5.9,0.5l0,0
			c-24.1,0-54.6-25.3-69.4-57.5C32,730,31.4,716,36.2,703.1s14.3-23.2,26.8-29c6.8-3.2,14.1-4.8,21.6-4.8c0.3,0,0.5,0,0.8,0
			c0.2,0,0.5,0,0.7,0s0.4,0,0.7,0c2.1,0.1,4.1,0.3,6.2,0.6c1.8,0.3,3.5,0.7,5.2,1.1c14.5,4,26.8,14.1,33.2,28.1
			c0.5,1.1,1,2.3,1.5,3.5c0.2,0.4,0.4,0.9,0.5,1.3c0.2,0.5,0.4,0.9,0.6,1.4c4.5,11.6,7.3,24.1,8,36.3c0,0.5,0.1,1,0.1,1.5
			s0,1,0.1,1.4c0.1,4.5,0,8.9-0.4,13.1C140.4,771.1,136.5,781.7,130.5,789z M150.5,785.8c-2.1,1.2-4.3,2.1-6.5,2.7
			c-2.3,0.6-4.6,1-7,1c-0.2,0-0.4,0-0.6,0l0,0c-1.6,0-3.1-0.1-4.7-0.4c5.9-7.4,9.8-18.1,11.1-31.2c0.4-3.5,0.5-7.2,0.5-10.9
			c1.5,3.4,3.2,6.6,5,9.7c4.3,7.4,9.2,13.3,14.4,17.8C159,779.5,155,783.3,150.5,785.8z M219.6,759.8c-0.1,0.2-0.3,0.4-0.4,0.6
			c-7.8,11.8-17.1,19.3-26.8,21.7c-2.3,0.6-4.7,0.9-7,0.9c-2.4,0-4.7-0.3-7-0.9c-5-1.3-9.9-3.9-14.5-7.7c-0.1-0.1-0.3-0.2-0.4-0.3
			c-0.1-0.1-0.2-0.2-0.3-0.3c-5.1-4.4-9.8-10.2-14.1-17.5c-2.2-3.7-4.1-7.6-5.9-11.7c-0.5-14.1-3.7-28.7-9.2-42
			c0-1.3-0.1-2.5-0.1-3.8c0-13.8,5.5-26.4,14.3-35.6c0.1-0.1,0.2-0.3,0.4-0.4c0.1-0.1,0.2-0.2,0.3-0.3c9.3-9.4,22.3-15.2,36.5-15.2
			c22.6,0,41.9,14.7,48.8,35c0.1,0.2,0.1,0.4,0.2,0.5c0.1,0.2,0.1,0.4,0.2,0.5c0.6,1.8,1,3.7,1.4,5.5c0.4,2,0.7,4,0.8,6
			c0.1,1.3,0.1,2.6,0.1,3.9c0,20.1-5.5,41.1-15.2,57.5c-0.6,1-1.2,2-1.8,2.9C219.8,759.4,219.7,759.6,219.6,759.8z M322.3,735
			c-6.5,16.2-17,31.4-29.7,43c-12.9,11.7-26.5,18.2-38.4,18.2l0,0c-1.4,0-2.8-0.1-4.1-0.3c-2.4-0.3-4.7-0.9-6.8-1.8
			c-2.2-0.9-4.2-2-6.2-3.4c-8.1-5.9-14-16.3-16.9-30.1c0.8-1.2,1.6-2.5,2.3-3.8c9.7-16.6,15.3-37.7,15.3-58c0-1.8-0.1-3.6-0.3-5.3
			c0.6-1,1.3-2,2-3c0.6-0.9,0.4-2.1-0.4-2.7c-0.8-0.5-1.8-0.5-2.4,0.1c-0.4-1.8-0.9-3.6-1.5-5.4c3.1-3.6,6.6-6.8,10.6-9.4
			c8.5-5.7,18.4-8.7,28.6-8.7c6.5,0,13,1.2,19.1,3.7c12.8,5.1,22.8,14.9,28.3,27.5C327.2,708.2,327.4,722.2,322.3,735z M291.9,672.2
			c-8.4-3.3-17.4-4.2-26.3-2.5c-8.6,1.6-16.5,5.6-23,11.5c-0.8,0.7-0.9,2-0.1,2.8c0.4,0.4,0.9,0.6,1.4,0.6s0.9-0.2,1.3-0.5
			c12.2-11.1,29.9-14.3,45.1-8.2c1,0.4,2.1-0.1,2.5-1.1C293.4,673.7,292.9,672.6,291.9,672.2z"/>
	</g>
	<g>
		<path class="st8" d="M639.9,237.1l2.1,2.4l-4.2-4.8l-7.1-8h-97.6l-7.1,8l-0.2,0.2l-11.1,12.6v20.8h3.9v81.8h126.5v-81.8h4v-20.8
			L639.9,237.1z"/>
		<g>
			<path class="st9" d="M592,247.5h57v20.8h-57V247.5z"/>
			<path class="st9" d="M514.7,247.5h57v20.8h-57V247.5z"/>
			<path class="st10" d="M642,239.5h-51l1,8h57.1l-9.2-10.4L642,239.5z"/>
			<path class="st10" d="M592,268.3h53.1v81.8H592V268.3z"/>
			<path class="st10" d="M518.6,268.3h53.1v81.8h-53.1V268.3z"/>
			<path class="st10" d="M525.8,234.9l-11.1,12.6h57l1.1-8h-51.1L525.8,234.9z"/>
			<path class="st10" d="M630.7,226.7h-41.4l1,8h47.5L630.7,226.7z"/>
			<path class="st10" d="M526,234.7h47.4l1.1-8h-41.4L526,234.7z"/>
			<path class="st11" d="M590.3,234.7l0.7,4.8h51l-4.2-4.8H590.3z"/>
			<path class="st11" d="M571.7,247.5H592v20.8h-20.3V247.5z"/>
			<path class="st11" d="M573.4,234.7H526l-0.2,0.2l-4.1,4.6h51.1L573.4,234.7z"/>
			<path class="st8" d="M571.7,268.3H592v81.8h-20.3V268.3z"/>
			<path class="st8" d="M590.3,234.7l-1-8h-14.8l-1.1,8l-0.6,4.8l-1.1,8H592l-1-8L590.3,234.7z"/>
		</g>
	</g>
	<g>
		<path class="st8" d="M1386.4,227.9l1.7,2.7l-3.3-5.4l-5.6-9.2l-96-17.6l-8.4,6.6l-0.2,0.2l-13.2,10.3l-3.8,20.5l4,0.7l-14.8,80.4
			l124.4,22.8l14.7-80.4l4,0.7l3.7-20.4L1386.4,227.9z"/>
		<g>
			<path class="st9" d="M1389.8,260.3l-56.1-10.3l3.8-20.5l56.1,10.3L1389.8,260.3z"/>
			<path class="st9" d="M1313.7,246.3l-56.1-10.3l3.8-20.5l56.1,10.3L1313.7,246.3z"/>
			<path class="st10" d="M1388.1,230.6l-50.2-9.2l-0.4,8.1l56.1,10.3l-7.2-11.9L1388.1,230.6z"/>
			<path class="st10" d="M1371.1,340l-52.2-9.6l14.8-80.5l52.2,9.6L1371.1,340z"/>
			<path class="st10" d="M1299,326.8l-52.2-9.6l14.8-80.5l52.2,9.6L1299,326.8z"/>
			<path class="st10" d="M1274.6,205.2l-13.2,10.3l56.1,10.3l2.5-7.7l-50.2-9.2L1274.6,205.2z"/>
			<path class="st10" d="M1379.2,216l-40.7-7.5l-0.4,8.1l46.7,8.6L1379.2,216z"/>
			<path class="st10" d="M1274.8,205l46.7,8.6l2.5-7.7l-40.8-7.5L1274.8,205z"/>
			<path class="st11" d="M1338.1,216.6l-0.2,4.8l50.2,9.2l-3.3-5.4L1338.1,216.6z"/>
			<path class="st11" d="M1333.7,250l-20-3.7l3.8-20.5l20,3.7L1333.7,250z"/>
			<path class="st11" d="M1321.5,213.6l-46.7-8.6l-0.2,0.2l-4.8,3.7l50.2,9.2L1321.5,213.6z"/>
			<path class="st8" d="M1318.9,330.5l-20-3.7l14.8-80.5l20,3.7L1318.9,330.5z"/>
			<path class="st8" d="M1338.1,216.6l0.4-8.1l-14.5-2.6l-2.5,7.7l-1.5,4.5l-2.5,7.7l20,3.7l0.4-8.1L1338.1,216.6z"/>
		</g>
	</g>
	<g>
		<path class="st8" d="M723.5,785.2l-0.1-0.2l-7.1-8h-97.6l-7.1,8l-4.3,4.8l2.1-2.4l-9.2,10.4v20.8h4v81.8h126.5v-81.8h4v-20.8
			L723.5,785.2z"/>
		<g>
			<path class="st9" d="M677.6,797.8h57v20.8h-57V797.8z"/>
			<path class="st9" d="M600.2,797.8h57v20.8h-57V797.8z"/>
			<path class="st10" d="M611.6,785H659l1.1-8h-41.4L611.6,785z"/>
			<path class="st10" d="M609.4,787.4l-9.2,10.4h57.1l1.1-8h-51.1L609.4,787.4z"/>
			<path class="st10" d="M734.7,797.8l-11.2-12.6l4.1,4.6h-51l1,8H734.7z"/>
			<path class="st10" d="M716.3,777h-41.5l1.1,8h47.5L716.3,777z"/>
			<path class="st10" d="M677.6,818.6h53.1v81.8h-53.1V818.6z"/>
			<path class="st10" d="M604.2,818.6h53.1v81.8h-53.1V818.6z"/>
			<path class="st11" d="M727.6,789.8l-4.1-4.6l-0.1-0.2h-47.5l0.7,4.8H727.6z"/>
			<path class="st11" d="M657.3,797.8h20.3v20.8h-20.3V797.8z"/>
			<path class="st11" d="M659,785h-47.4l-4.3,4.8h51.1L659,785z"/>
			<path class="st8" d="M676.6,789.8l-0.7-4.8l-1.1-8h-14.7l-1.1,8l-0.6,4.8l-1.1,8h20.3L676.6,789.8z"/>
			<path class="st8" d="M657.3,818.6h20.3v81.8h-20.3V818.6z"/>
		</g>
	</g>
	<g>
		<path class="st8" d="M1040.7,356.6l3.7,4.1l-5.5-6.2l-9.2-10.3h-126l-9.2,10.3l-5.4,6.2l3.6-4.1L879.9,371v26.9h5.2v105.6h163.3
			V397.9h5.1V371L1040.7,356.6z"/>
		<g>
			<path class="st9" d="M879.9,371h73.7v26.8h-73.7V371z"/>
			<path class="st9" d="M979.9,371h73.7v26.8h-73.7V371z"/>
			<path class="st10" d="M885.1,397.9h68.5v105.6h-68.5V397.9z"/>
			<path class="st10" d="M892.7,356.6L879.9,371h73.7l1.4-10.3h-65.9L892.7,356.6z"/>
			<path class="st10" d="M894.5,354.5h61.3l1.4-10.3h-53.5L894.5,354.5z"/>
			<path class="st10" d="M1053.5,371l-12.8-14.4l3.7,4.1h-65.9l1.4,10.3H1053.5z"/>
			<path class="st10" d="M1029.7,344.2h-53.4l1.3,10.3h61.3L1029.7,344.2z"/>
			<path class="st10" d="M979.9,397.9h68.5v105.6h-68.5V397.9z"/>
			<path class="st11" d="M955.8,354.5h-61.3l-5.4,6.2H955L955.8,354.5z"/>
			<path class="st11" d="M953.6,371h26.3v26.8h-26.3V371z"/>
			<path class="st11" d="M977.6,354.5l0.9,6.2h65.9l-5.5-6.2H977.6z"/>
			<path class="st8" d="M977.6,354.5l-1.3-10.3h-19.1l-1.4,10.3l-0.8,6.2l-1.4,10.3h26.3l-1.4-10.3L977.6,354.5z"/>
			<path class="st8" d="M953.6,397.9h26.3v105.6h-26.3V397.9z"/>
		</g>
	</g>
	<g>
		<path class="st12" d="M1039-10.4c-1.5,8.8,0.6,17.8,6,25l76.5,103.9c12.2,16.5,16.9,37.5,12.8,57.6L1113.4,281
			c-2.7,14-15.7,23.4-29.9,21.7c-27-3.1-45.9-3.4-46.5-0.1c-0.8,4.6,34.4,14.6,78.8,22.2s80.8,9.9,81.7,5.1
			c0.6-3.4-17.4-9.4-43.9-15.3c-13.9-3.1-23-16.4-21-30.4l15.1-105.9c2.9-20.3,14.2-38.6,31.2-50.1l82.4-56.2l3.5-2.4l3.1-2.1
			l16.6-11.4l0.9-0.6c1-0.7,2-1.4,3-2.2c4-3.5,7.2-7.9,9.2-12.9c0.8-2.1,1.4-4.3,1.8-6.6L1039-10.4z"/>
		<path class="st13" d="M1305.9-14.4c-26.5-4.6-51.7,13.4-56.2,39.9l49.9,8.5c-0.4,2.3-1,4.5-1.8,6.6l4.3,29.1
			c0.3,2.4-0.4,4.7-2,6.5c-1.7,1.7-4,2.6-6.3,2.4s-4.6-0.6-6.8-1.2c-2.3-0.6-4.2-2.1-5.2-4.3c-1-2.2-0.9-4.7,0.2-6.8l6.8-12.8
			c-0.9,0.8-1.9,1.6-3,2.2l-0.9,0.6l-4.7,9c-1.1,2.1-3.1,3.6-5.5,4c-2.3,0.4-4.6-0.2-6.5-1.7l-3.1,2.1c6.7,6.1,15.1,10.4,24.6,12
			c26.5,4.6,51.7-13.4,56.2-39.9C1350.2,15.3,1332.4-9.8,1305.9-14.4z M1337.4,18.5c2.1,1,3.7,2.9,4.2,5.2c0.6,2.2,0.9,4.6,1,6.9
			c0.2,2.4-0.7,4.7-2.6,6.4c-1.8,1.6-4.1,2.3-6.5,1.9l-32.7-5.5l29.7-14.7C1332.8,17.5,1335.3,17.4,1337.4,18.5z M1320.9-2
			c0.9-0.2,1.8-0.2,2.7,0c1.4,0.3,2.7,0.8,3.8,1.8c1.7,1.5,3.3,3.1,4.8,5c1.5,1.8,2.1,4.2,1.6,6.5c-0.5,2.3-2.1,4.3-4.2,5.4
			l-29.7,14.7l15.3-29.3C1316.5-0.1,1318.5-1.6,1320.9-2z M1262.1,26.6c-2.4-0.4-4.4-1.9-5.5-3.9c-1.1-2.1-1.3-4.6-0.3-6.8
			c0.9-2.1,2-4.1,3.2-6.1c1.3-2,3.3-3.3,5.7-3.6c0.8-0.1,1.5,0,2.2,0c1.6,0.3,3,1,4.3,2.3l23.1,23.6L1262.1,26.6z M1273.1,7
			c-1.7-1.7-2.5-4.1-2.1-6.5c0.3-2.4,1.7-4.4,3.7-5.6c2-1.1,4.1-2.2,6.2-3c1.4-0.6,2.8-0.7,4.2-0.5c0.9,0.1,1.7,0.5,2.6,0.9
			c2.1,1.2,3.5,3.3,3.8,5.6l4.8,32.8L1273.1,7z M1298.2,30.4l-4.8-32.8c-0.3-2.4,0.4-4.7,2-6.5c1.7-1.7,4-2.6,6.3-2.4
			c1.1,0.1,2.3,0.3,3.4,0.5c1.1,0.2,2.3,0.4,3.4,0.7c2.3,0.6,4.2,2.1,5.2,4.3c1,2.2,0.9,4.7-0.2,6.8L1298.2,30.4z M1320.7,72.4
			c-2,1.1-4.1,2.2-6.2,3c-2.2,0.9-4.7,0.7-6.8-0.4s-3.5-3.3-3.8-5.6l-4.8-32.8l23.2,23.6c1.7,1.7,2.5,4.1,2.1,6.5
			C1324.1,69.1,1322.8,71.2,1320.7,72.4z M1339.1,51.5c-0.9,2.1-2,4.1-3.2,6.1c-1.3,2-3.3,3.3-5.7,3.6c-2.4,0.3-4.7-0.6-6.4-2.3
			l-23.1-23.6l32.7,5.5c2.4,0.4,4.4,1.9,5.5,3.9C1339.9,46.8,1340,49.3,1339.1,51.5z"/>
		<path class="st8" d="M1268,67.6c1.8,1.5,4.1,2.1,6.5,1.7c2.4-0.4,4.3-1.9,5.5-4l4.7-9L1268,67.6z M1307.7,75
			c2.1,1.2,4.5,1.4,6.8,0.4c2.1-0.9,4.2-1.9,6.2-3c2.1-1.2,3.4-3.2,3.7-5.6c0.3-2.4-0.5-4.8-2.1-6.5l-23.2-23.6l4.8,32.8
			C1304.3,71.7,1305.7,73.7,1307.7,75z M1286.7,77.3c2.2,0.6,4.5,1,6.8,1.2c2.4,0.2,4.7-0.6,6.3-2.4c1.7-1.7,2.4-4.1,2-6.5
			l-4.3-29.1c-1.9,5-5.1,9.4-9.2,12.9l-6.8,12.8c-1.1,2.1-1.2,4.6-0.2,6.8C1282.5,75.2,1284.4,76.7,1286.7,77.3z M1264.1,63.2
			c0.1-0.2,0.2-0.4,0.2-0.6l-201.8-34.4c-0.1,0.2,0,0.4,0,0.6l1,1.3l49.6,67.5c18.7,25.4,54.1,31.4,80.2,13.6l63.9-43.6l3.4-2.3
			l1.9-1.3l1.1-0.8L1264.1,63.2z M1342.6,30.5c-0.1-2.3-0.5-4.6-1-6.9c-0.5-2.3-2.1-4.3-4.2-5.2c-2.2-1-4.7-1-6.8,0.1l-29.7,14.7
			l32.7,5.5c2.4,0.4,4.7-0.3,6.5-1.9C1341.9,35.2,1342.8,32.9,1342.6,30.5z M1330.1,61.2c2.3-0.2,4.4-1.5,5.7-3.6
			c1.2-2,2.3-4,3.2-6.1c1-2.2,0.8-4.7-0.3-6.8c-1.1-2-3.1-3.5-5.5-3.9l-32.7-5.5l23.1,23.7C1325.4,60.6,1327.8,61.4,1330.1,61.2z
			 M1340.8,3.1c-8.1-11.5-20.3-19.2-34.3-21.6c-13.9-2.4-27.9,0.9-39.5,9c-11.5,8.1-19.2,20.3-21.6,34.3l4.1,0.7
			c4.6-26.5,29.7-44.3,56.2-39.9c26.5,4.6,44.3,29.7,39.9,56.2c-4.6,26.5-29.7,44.3-56.2,39.9c-9.5-1.7-17.9-5.9-24.6-12l-3.5,2.4
			c7.5,7.1,16.9,11.9,27.3,13.7c13.9,2.4,27.9-0.9,39.5-9c11.5-8.1,19.2-20.3,21.6-34.3C1352.1,28.5,1348.9,14.7,1340.8,3.1z
			 M1265.3,6.1c-2.3,0.2-4.4,1.5-5.7,3.6c-1.2,2-2.3,4-3.2,6.1c-1,2.2-0.8,4.7,0.3,6.8c1.1,2,3.1,3.5,5.5,3.9l32.7,5.5l-23.2-23.5
			c-1.1-1.2-2.7-1.9-4.3-2.3C1266.7,6.1,1265.9,6,1265.3,6.1z M1332.2,4.7c-1.5-1.7-3.1-3.4-4.8-5c-1.1-1-2.4-1.6-3.8-1.8
			c-0.9-0.1-1.8-0.2-2.7,0c-2.4,0.4-4.3,1.9-5.5,4l-15.3,29.3l29.7-14.7c2.1-1.1,3.7-3.1,4.2-5.4C1334.4,9,1333.8,6.6,1332.2,4.7z
			 M1287.6-7.7c-0.8-0.4-1.7-0.7-2.6-0.9c-1.4-0.3-2.9-0.1-4.2,0.5c-2.1,0.9-4.2,1.9-6.2,3c-2.1,1.2-3.4,3.2-3.7,5.6
			s0.5,4.8,2.1,6.5l23.2,23.6l-4.8-32.8C1291.1-4.4,1289.6-6.4,1287.6-7.7z M1308.7-10c-1.1-0.3-2.3-0.5-3.4-0.7
			c-1.1-0.2-2.3-0.4-3.4-0.5c-2.4-0.2-4.7,0.6-6.3,2.4c-1.7,1.7-2.4,4.1-2,6.5l4.8,32.8l15.3-29.3c1.1-2.1,1.2-4.6,0.2-6.8
			C1312.9-7.9,1311-9.4,1308.7-10z"/>
	</g>
	<g>
		<g>
			<path class="st1" d="M486.2,615.6l-6.7-1.9l-12.7,3.6l-19.4,5.4c-1.9,0.5-3.1,1.9-3.1,3.5s1.2,3,3.1,3.5l6.7,1.9l12.7-3.6
				l19.4-5.4c1.9-0.5,3.1-1.9,3.1-3.5C489.3,617.6,488,616.2,486.2,615.6z"/>
			<path class="st1" d="M486.2,651.3l-6.7-1.9l-12.7,3.6l-19.4,5.4c-1.9,0.5-3.1,1.9-3.1,3.5s1.2,3,3.1,3.5l6.7,1.9l12.7-3.6
				l19.4-5.4c1.9-0.5,3.1-1.9,3.1-3.5C489.3,653.3,488,651.9,486.2,651.3z"/>
			<path class="st1" d="M486.2,472.9l-6.7-1.9l-12.7,3.6l-19.4,5.4c-1.9,0.5-3.1,1.9-3.1,3.5s1.2,3,3.1,3.5l6.7,1.9l12.7-3.6
				l19.4-5.4c1.9-0.5,3.1-1.9,3.1-3.5l0,0C489.3,474.8,488,473.4,486.2,472.9z"/>
			<path class="st1" d="M486.2,579.9l-6.7-1.9l-12.7,3.6l-19.4,5.4c-1.9,0.5-3.1,1.9-3.1,3.5s1.2,3,3.1,3.5l6.7,1.9l12.7-3.6
				l19.4-5.4c1.9-0.5,3.1-1.9,3.1-3.5C489.3,581.9,488,580.5,486.2,579.9z"/>
			<path class="st1" d="M486.2,687l-6.7-1.9l-12.7,3.6l-19.4,5.4c-1.9,0.5-3.1,1.9-3.1,3.5s1.2,3,3.1,3.5l6.7,1.9l12.7-3.6l19.4-5.4
				c1.9-0.5,3.1-1.9,3.1-3.5S488,687.6,486.2,687z"/>
			<path class="st1" d="M486.2,544.2l-6.7-1.9l-12.7,3.6l-19.4,5.4c-1.9,0.5-3.1,1.9-3.1,3.5s1.2,3,3.1,3.5l6.7,1.9l12.7-3.6
				l19.4-5.4c1.9-0.5,3.1-1.9,3.1-3.5l0,0C489.3,546.2,488,544.8,486.2,544.2z"/>
			<path class="st1" d="M486.2,508.6l-6.7-1.9l-12.7,3.6l-19.4,5.4c-1.9,0.5-3.1,1.9-3.1,3.5s1.2,3,3.1,3.5l6.7,1.9l12.7-3.6
				l19.4-5.4c1.9-0.5,3.1-1.9,3.1-3.5C489.3,510.5,488,509.1,486.2,508.6z"/>
			<path class="st1" d="M486.2,901.2l-6.7-1.9l-12.7,3.6l-19.4,5.4c-1.9,0.5-3.1,1.9-3.1,3.5c0,1.6,1.2,3,3.1,3.5l6.7,1.9l12.7-3.6
				l19.4-5.4c1.9-0.5,3.1-1.9,3.1-3.5C489.3,903.2,488,901.8,486.2,901.2z"/>
			<path class="st1" d="M486.2,865.5l-6.7-1.9l-12.7,3.6l-19.4,5.4c-1.9,0.5-3.1,1.9-3.1,3.5s1.2,3,3.1,3.5l6.7,1.9l12.7-3.6
				l19.4-5.4c1.9-0.5,3.1-1.9,3.1-3.5C489.3,867.5,488,866.1,486.2,865.5z"/>
			<path class="st1" d="M486.2,829.8l-6.7-1.9l-12.7,3.6l-19.4,5.4c-1.9,0.5-3.1,1.9-3.1,3.5s1.2,3,3.1,3.5l6.7,1.9l12.7-3.6
				l19.4-5.4c1.9-0.5,3.1-1.9,3.1-3.5C489.3,831.8,488,830.4,486.2,829.8z"/>
			<path class="st1" d="M486.2,794.1l-6.7-1.9l-12.7,3.6l-19.4,5.4c-1.9,0.5-3.1,1.9-3.1,3.5s1.2,3,3.1,3.5l6.7,1.9l12.7-3.6
				l19.4-5.4c1.9-0.5,3.1-1.9,3.1-3.5C489.3,796.1,488,794.7,486.2,794.1z"/>
			<path class="st1" d="M486.2,722.7l-6.7-1.9l-12.7,3.6l-19.4,5.4c-1.9,0.5-3.1,1.9-3.1,3.5l0,0c0,1.6,1.2,3,3.1,3.5l6.7,1.9
				l12.7-3.6l19.4-5.4c1.9-0.5,3.1-1.9,3.1-3.5C489.3,724.7,488,723.3,486.2,722.7z"/>
			<path class="st1" d="M486.2,758.4l-6.7-1.9l-12.7,3.6l-19.4,5.4c-1.9,0.5-3.1,1.9-3.1,3.5s1.2,3,3.1,3.5l6.7,1.9l12.7-3.6
				l19.4-5.4c1.9-0.5,3.1-1.9,3.1-3.5C489.3,760.4,488,759,486.2,758.4z"/>
			<path class="st2" d="M486.2,604.9l-19.4-5.4l-12.7-3.6l-6.7-1.9c-1.9-0.5-3.1-1.9-3.1-3.5v10.7c0,1.6,1.2,3,3.1,3.5l19.4,5.4
				l12.7,3.6l6.7,1.9c1.9,0.5,3.1,1.9,3.1,3.5v-10.7C489.3,606.8,488,605.4,486.2,604.9z"/>
			<path class="st2" d="M486.2,676.3l-19.4-5.4l-12.7-3.6l-6.7-1.9c-1.9-0.5-3.1-1.9-3.1-3.5v10.7c0,1.6,1.2,3,3.1,3.5l19.4,5.4
				l12.7,3.6l6.7,1.9c1.9,0.5,3.1,1.9,3.1,3.5v-10.7C489.3,678.2,488,676.8,486.2,676.3z"/>
			<path class="st2" d="M486.2,640.6l-19.4-5.4l-12.7-3.6l-6.7-1.9c-1.9-0.5-3.1-1.9-3.1-3.5V637c0,1.6,1.2,3,3.1,3.5l19.4,5.4
				l12.7,3.6l6.7,1.9c1.9,0.5,3.1,1.9,3.1,3.5v-10.7C489.3,642.5,488,641.1,486.2,640.6z"/>
			<path class="st2" d="M486.2,569.2l-19.4-5.4l-12.7-3.6l-6.7-1.9c-1.9-0.5-3.1-1.9-3.1-3.5v10.7c0,1.6,1.2,3,3.1,3.5l19.4,5.4
				l12.7,3.6l6.7,1.9c1.9,0.5,3.1,1.9,3.1,3.5v-10.7C489.3,571.1,488,569.7,486.2,569.2z"/>
			<path class="st2" d="M486.2,497.8l-19.4-5.4l-12.7-3.6l-6.7-1.9c-1.9-0.5-3.1-1.9-3.1-3.5v10.7c0,1.6,1.2,3,3.1,3.5l19.4,5.4
				l12.7,3.6l6.7,1.9c1.9,0.5,3.1,1.9,3.1,3.5v-10.7C489.3,499.7,488,498.3,486.2,497.8z"/>
			<path class="st2" d="M486.2,533.5l-19.4-5.4l-12.7-3.6l-6.7-1.9c-1.9-0.5-3.1-1.9-3.1-3.5v10.7c0,1.6,1.2,3,3.1,3.5l19.4,5.4
				l12.7,3.6l6.7,1.9c1.9,0.5,3.1,1.9,3.1,3.5V537C489.3,535.4,488,534,486.2,533.5z"/>
			<path class="st2" d="M486.2,712l-19.4-5.4l-12.7-3.6l-6.7-1.9c-1.9-0.5-3.1-1.9-3.1-3.5v10.7c0,1.6,1.2,3,3.1,3.5l19.4,5.4
				l12.7,3.6l6.7,1.9c1.9,0.5,3.1,1.9,3.1,3.5v-10.7C489.3,713.9,488,712.5,486.2,712z"/>
			<path class="st2" d="M486.2,462.1l-19.4-5.4l-19.4-5.4c-1.9-0.5-3.1-1.9-3.1-3.5v10.7c0,1.6,1.2,3,3.1,3.5l19.4,5.4l12.7,3.6
				l6.7,1.9c1.9,0.5,3.1,1.9,3.1,3.5v-10.7C489.3,464,488,462.6,486.2,462.1z"/>
			<path class="st2" d="M486.2,890.5l-19.4-5.4l-12.7-3.6l-6.7-1.9c-1.9-0.5-3.1-1.9-3.1-3.5v10.7c0,1.6,1.2,3,3.1,3.5l19.4,5.4
				l12.7,3.6l6.7,1.9c1.9,0.5,3.1,1.9,3.1,3.5V894C489.3,892.4,488,891,486.2,890.5z"/>
			<path class="st2" d="M486.2,819.1l-19.4-5.4l-12.7-3.6l-6.7-1.9c-1.9-0.5-3.1-1.9-3.1-3.5v10.7c0,1.6,1.2,3,3.1,3.5l19.4,5.4
				l12.7,3.6l6.7,1.9c1.9,0.5,3.1,1.9,3.1,3.5v-10.7C489.3,821,488,819.6,486.2,819.1z"/>
			<path class="st2" d="M486.2,854.8l-19.4-5.4l-12.7-3.6l-6.7-1.9c-1.9-0.5-3.1-1.9-3.1-3.5v10.7c0,1.6,1.2,3,3.1,3.5l19.4,5.4
				l12.7,3.6l6.7,1.9c1.9,0.5,3.1,1.9,3.1,3.5v-10.7C489.3,856.7,488,855.3,486.2,854.8z"/>
			<path class="st2" d="M486.2,747.7l-19.4-5.4l-12.7-3.6l-6.7-1.9c-1.9-0.5-3.1-1.9-3.1-3.5V744c0,1.6,1.2,3,3.1,3.5l19.4,5.4
				l12.7,3.6l6.7,1.9c1.9,0.5,3.1,1.9,3.1,3.5v-10.7C489.3,749.6,488,748.2,486.2,747.7z"/>
			<path class="st2" d="M486.2,783.4l-19.4-5.4l-12.7-3.6l-6.7-1.9c-1.9-0.5-3.1-1.9-3.1-3.5v10.7c0,1.6,1.2,3,3.1,3.5l19.4,5.4
				l12.7,3.6l6.7,1.9c1.9,0.5,3.1,1.9,3.1,3.5v-10.7C489.3,785.3,488,783.9,486.2,783.4z"/>
			<path class="st2" d="M486.2,926.2l-19.4-5.4l-12.7-3.6l-6.7-1.9c-1.9-0.5-3.1-1.9-3.1-3.5v10.7c0,1.6,1.2,3,3.1,3.5l19.4,5.4
				l19.4,5.4c1.9,0.5,3.1,1.9,3.1,3.5v-10.7C489.3,928.1,488,926.7,486.2,926.2z"/>
		</g>
		<g>
			<path class="st1" d="M574.5,137.6l4.2-5.6l1.2-13.1l1.9-20c0.2-2-0.7-3.6-2.2-4.1c-1.5-0.6-3.2,0-4.4,1.6l-4.2,5.6l-1.2,13.1
				l-1.9,20c-0.2,2,0.7,3.6,2.2,4.1C571.6,139.7,573.3,139.1,574.5,137.6z"/>
			<path class="st1" d="M507.9,112l4.2-5.6l1.2-13.1l1.9-20c0.2-2-0.7-3.6-2.2-4.1c-1.5-0.6-3.2,0-4.4,1.6l-4.2,5.6l-1.2,13.1
				l-1.9,20c-0.2,2,0.7,3.6,2.2,4.1C505,114.1,506.7,113.5,507.9,112z"/>
			<path class="st1" d="M607.9,150.4l4.2-5.6l1.2-13.1l1.9-20c0.2-2-0.7-3.6-2.2-4.1c-1.5-0.6-3.2,0-4.4,1.6l-4.2,5.6l-1.2,13.1
				l-1.9,20c-0.2,2,0.7,3.6,2.2,4.1l0,0C604.9,152.5,606.7,151.9,607.9,150.4z"/>
			<path class="st1" d="M541.2,124.8l4.2-5.6l1.2-13.1l1.9-20c0.2-2-0.7-3.6-2.2-4.1c-1.5-0.6-3.2,0-4.4,1.6l-4.2,5.6l-1.2,13.1
				l-1.9,20c-0.2,2,0.7,3.6,2.2,4.1C538.3,126.9,540,126.3,541.2,124.8z"/>
			<path class="st1" d="M641.1,163.2l4.2-5.6l1.2-13.1l1.9-20c0.2-2-0.7-3.6-2.2-4.1c-1.5-0.6-3.2,0-4.4,1.6l-4.2,5.6l-1.2,13.1
				l-1.9,20c-0.2,2,0.7,3.6,2.2,4.1C638.3,165.3,640,164.7,641.1,163.2z"/>
			<path class="st1" d="M674.4,176l4.2-5.6l1.2-13.1l1.9-20c0.2-2-0.7-3.6-2.2-4.1c-1.5-0.6-3.2,0-4.4,1.6l-4.2,5.6l-1.2,13.1
				l-1.9,20c-0.2,2,0.7,3.6,2.2,4.1l0,0C671.6,178.1,673.3,177.5,674.4,176z"/>
			<path class="st1" d="M341.3,48l4.2-5.6l1.2-13.1l1.9-20c0.2-2-0.7-3.6-2.2-4.1c-1.5-0.6-3.2,0-4.4,1.6l-4.2,5.6l-1.2,13.1
				l-1.9,20c-0.2,2,0.7,3.6,2.2,4.1C338.3,50.1,340.1,49.5,341.3,48z"/>
			<path class="st1" d="M274.6,22.4l4.2-5.6L280,3.7l1.9-20c0.2-2-0.7-3.6-2.2-4.1c-1.5-0.6-3.2,0-4.4,1.6l-4.2,5.6L270-0.2l-1.9,20
				c-0.2,2,0.7,3.6,2.2,4.1C271.7,24.5,273.4,23.8,274.6,22.4z"/>
			<path class="st1" d="M474.6,99.2l4.2-5.6l1.2-13.1l1.9-20c0.2-2-0.7-3.6-2.2-4.1c-1.5-0.6-3.2,0-4.4,1.6l-4.2,5.6L470,76.7
				l-1.9,20c-0.2,2,0.7,3.6,2.2,4.1C471.7,101.4,473.4,100.7,474.6,99.2z"/>
			<path class="st1" d="M374.6,60.8l4.2-5.6l1.2-13.1l1.9-20c0.2-2-0.7-3.6-2.2-4.1s-3.2,0-4.4,1.6l-4.2,5.6L370,38.2l-1.9,20
				c-0.2,2,0.7,3.6,2.2,4.1C371.7,62.9,373.4,62.3,374.6,60.8z"/>
			<path class="st1" d="M308,35.2l4.2-5.6l1.2-13.1l1.9-20c0.2-2-0.7-3.6-2.2-4.1s-3.2,0-4.4,1.6l-4.2,5.6l-1.2,13.1l-1.9,20
				c-0.2,2,0.7,3.6,2.2,4.1C305,37.3,306.8,36.7,308,35.2z"/>
			<path class="st1" d="M441.3,86.4l4.2-5.6l1.2-13.1l1.9-20c0.2-2-0.7-3.6-2.2-4.1l0,0c-1.5-0.6-3.2,0-4.4,1.6l-4.2,5.6l-1.2,13.1
				l-1.9,20c-0.2,2,0.7,3.6,2.2,4.1C438.3,88.5,440,87.9,441.3,86.4z"/>
			<path class="st1" d="M407.9,73.6l4.2-5.6l1.2-13.1l1.9-20c0.2-2-0.7-3.6-2.2-4.1c-1.5-0.6-3.2,0-4.4,1.6l-4.2,5.6L403.3,51
				l-1.9,20c-0.2,2,0.7,3.6,2.2,4.1C405,75.7,406.7,75.1,407.9,73.6z"/>
			<path class="st2" d="M484.6,103.1l12-16.2l7.9-10.6l4.2-5.6c1.1-1.6,2.9-2.2,4.4-1.6l-10-3.8c-1.5-0.6-3.2,0-4.4,1.6l-12,16.2
				l-7.9,10.6l-4.2,5.6c-1.1,1.6-2.9,2.2-4.4,1.6l10,3.8C481.7,105.2,483.5,104.6,484.6,103.1z"/>
			<path class="st2" d="M517.9,115.9l12-16.2l7.9-10.6l4.2-5.6c1.1-1.6,2.9-2.2,4.4-1.6L536.3,78c-1.5-0.6-3.2,0-4.4,1.6l-12,16.2
				l-7.9,10.6l-4.2,5.6c-1.1,1.6-2.9,2.2-4.4,1.6l10,3.8C515,118,516.8,117.4,517.9,115.9z"/>
			<path class="st2" d="M584.5,141.5l12-16.2l7.9-10.6l4.2-5.6c1.1-1.6,2.9-2.2,4.4-1.6l-10-3.8c-1.5-0.6-3.2,0-4.4,1.6l-12,16.2
				l-7.9,10.6l-4.2,5.6c-1.1,1.6-2.9,2.2-4.4,1.6l10,3.8C581.7,143.6,583.4,143,584.5,141.5z"/>
			<path class="st2" d="M551.2,128.7l12-16.2l7.9-10.6l4.2-5.6c1.1-1.6,2.9-2.2,4.4-1.6l-10-3.8c-1.5-0.6-3.2,0-4.4,1.6l-12,16.2
				l-7.9,10.6l-4.2,5.6c-1.1,1.6-2.9,2.2-4.4,1.6l10,3.8C548.4,130.8,550.1,130.2,551.2,128.7z"/>
			<path class="st2" d="M617.9,154.3l12-16.2l7.9-10.6l4.2-5.6c1.1-1.6,2.9-2.2,4.4-1.6l-10-3.8c-1.5-0.6-3.2,0-4.4,1.6l-12,16.2
				l-7.9,10.6l-4.2,5.6c-1.1,1.6-2.9,2.2-4.4,1.6l10,3.8C615,156.4,616.7,155.8,617.9,154.3z"/>
			<path class="st2" d="M684.5,179.9l12-16.2l12-16.2c1.1-1.6,2.9-2.2,4.4-1.6l-10-3.8c-1.5-0.6-3.2,0-4.4,1.6l-12,16.2l-7.9,10.6
				l-4.2,5.6c-1.1,1.6-2.9,2.2-4.4,1.6l10,3.8C681.7,182,683.4,181.4,684.5,179.9z"/>
			<path class="st2" d="M651.2,167.1l12-16.2l7.9-10.6l4.2-5.6c1.1-1.6,2.9-2.2,4.4-1.6l-10-3.8c-1.5-0.6-3.2,0-4.4,1.6l-12,16.2
				l-7.9,10.6l-4.2,5.6c-1.1,1.6-2.9,2.2-4.4,1.6l10,3.8C648.3,169.2,650.1,168.6,651.2,167.1z"/>
			<path class="st2" d="M284.6,26.2l12-16.2l7.9-10.6l4.2-5.6c1.1-1.6,2.9-2.2,4.4-1.6l-10-3.8c-1.5-0.6-3.2,0-4.4,1.6l-12,16.2
				l-7.9,10.6l-4.2,5.6c-1.1,1.6-2.9,2.2-4.4,1.6l10,3.8C281.8,28.3,283.5,27.7,284.6,26.2z"/>
			<path class="st2" d="M317.9,39l12-16.2l7.9-10.6l4.2-5.6c1.1-1.6,2.9-2.2,4.4-1.6l-10-3.8c-1.5-0.6-3.2,0-4.4,1.6l-12,16.2
				l-7.9,10.6l-4.2,5.6c-1.1,1.6-2.9,2.2-4.4,1.6l10,3.8C315.1,41.1,316.8,40.5,317.9,39z"/>
			<path class="st2" d="M251.3,13.4l12-16.2l7.9-10.6l4.2-5.6c1.1-1.6,2.9-2.2,4.4-1.6l-10-3.8c-1.5-0.6-3.2,0-4.4,1.6L241.3,9.5
				c-1.1,1.6-2.9,2.2-4.4,1.6l10,3.8C248.4,15.5,250.2,14.9,251.3,13.4z"/>
			<path class="st2" d="M451.2,90.2l12-16.2l7.9-10.6l4.2-5.6c1.1-1.6,2.9-2.2,4.4-1.6l-10-3.8c-1.5-0.6-3.2,0-4.4,1.6l-12,16.2
				l-7.9,10.6l-4.2,5.6c-1.1,1.6-2.9,2.2-4.4,1.6l10,3.8C448.4,92.4,450.1,91.8,451.2,90.2z"/>
			<path class="st2" d="M351.3,51.8l12-16.2l7.9-10.6l4.2-5.6c1.1-1.6,2.9-2.2,4.4-1.6l-10-3.8c-1.5-0.6-3.2,0-4.4,1.6l-12,16.2
				l-7.9,10.6l-4.2,5.6c-1.1,1.6-2.9,2.2-4.4,1.6l10,3.8C348.4,53.9,350.2,53.3,351.3,51.8z"/>
			<path class="st2" d="M417.9,77.4l12-16.2l7.9-10.6l4.2-5.6c1.1-1.6,2.9-2.2,4.4-1.6l-10-3.8c-1.5-0.6-3.2,0-4.4,1.6l-12,16.2
				L412.1,68l-4.2,5.6c-1.1,1.6-2.9,2.2-4.4,1.6l10,3.8C415.1,79.6,416.8,78.9,417.9,77.4z"/>
			<path class="st2" d="M384.6,64.6l12-16.2l7.9-10.6l4.2-5.6c1.1-1.6,2.9-2.2,4.4-1.6l-10-3.8c-1.5-0.6-3.2,0-4.4,1.6l-12,16.2
				l-7.9,10.6l-4.2,5.6c-1.1,1.6-2.9,2.2-4.4,1.6l10,3.8C381.7,66.8,383.5,66.1,384.6,64.6z"/>
		</g>
		<g>
			<path class="st14" d="M842.7-26.2l-0.1-7l-7.2-11.1l-10.8-17c-1-1.7-2.7-2.4-4.3-1.9c-1.5,0.5-2.5,2-2.4,4l0.1,7l7.2,11.1
				l10.8,17c1,1.7,2.7,2.4,4.3,1.9C841.7-22.7,842.7-24.3,842.7-26.2z"/>
			<path class="st14" d="M774.4-5.4l-0.1-7l-7.2-11.1l-10.8-17c-1-1.7-2.7-2.4-4.3-1.9c-1.5,0.5-2.5,2-2.4,4l0.1,7l7.2,11.1l10.8,17
				c1,1.7,2.7,2.4,4.3,1.9S774.4-3.4,774.4-5.4z"/>
			<path class="st14" d="M876.9-36.7l-0.1-7l-7.2-11.1l-10.8-17c-1-1.7-2.7-2.4-4.3-1.9s-2.5,2-2.4,4l0.1,7l7.2,11.1l10.8,17
				c1,1.7,2.7,2.4,4.3,1.9C875.9-33.1,876.8-34.7,876.9-36.7z"/>
			<path class="st14" d="M808.6-15.8l-0.1-7l-7.2-11.1l-10.8-17c-1-1.7-2.7-2.4-4.3-1.9c-1.5,0.5-2.5,2-2.4,4l0.1,7l7.2,11.1
				l10.8,17c1,1.7,2.7,2.4,4.3,1.9C807.6-12.3,808.6-13.8,808.6-15.8z"/>
			<path class="st14" d="M911-47.1l-0.1-7l-7.2-11.1l-10.8-17c-1-1.7-2.7-2.4-4.3-1.9c-1.5,0.5-2.5,2-2.4,4l0.1,7l7.2,11.1l10.8,17
				c1,1.7,2.7,2.4,4.3,1.9l0,0C910-43.6,911-45.1,911-47.1z"/>
			<path class="st14" d="M945-57.5l-0.1-7l-7.2-11.1l-10.8-17c-1-1.7-2.7-2.4-4.3-1.9c-1.5,0.5-2.5,2-2.4,4l0.1,7l7.2,11.1l10.8,17
				c1,1.7,2.7,2.4,4.3,1.9C944.1-54,945.1-55.6,945-57.5z"/>
			<path class="st14" d="M637.9,36.4l-0.1-7l-7.2-11.1l-10.8-17c-1-1.7-2.7-2.4-4.3-1.9s-2.5,2-2.4,4l0.1,7l7.2,11.1l10.8,17
				c1,1.7,2.7,2.4,4.3,1.9C636.9,39.9,637.9,38.4,637.9,36.4z"/>
			<path class="st14" d="M603.7,46.8l-0.1-7l-7.2-11.1l-10.8-17c-1-1.7-2.7-2.4-4.3-1.9c-1.5,0.5-2.5,2-2.4,4l0.1,7l7.2,11.1
				l10.8,17c1,1.7,2.7,2.4,4.3,1.9C602.7,50.4,603.7,48.8,603.7,46.8z"/>
			<path class="st14" d="M569.6,57.2l-0.1-7l-7.2-11.1l-10.8-17c-1-1.7-2.7-2.4-4.3-1.9s-2.5,2-2.4,4l0.1,7l7.2,11.1l10.8,17
				c1,1.7,2.7,2.4,4.3,1.9C568.6,60.8,569.6,59.2,569.6,57.2z"/>
			<path class="st14" d="M979.2-68l-0.1-7L971.9-86l-10.8-17c-1-1.7-2.7-2.4-4.3-1.9s-2.5,2-2.4,4l0.1,7l7.2,11.1l10.8,17
				c1,1.7,2.7,2.4,4.3,1.9l0,0C978.3-64.4,979.3-66,979.2-68z"/>
			<path class="st14" d="M740.3,5.1l-0.1-7L733-13l-10.8-17c-1-1.7-2.7-2.4-4.3-1.9l0,0c-1.5,0.5-2.5,2-2.4,4l0.1,7l7.2,11.1
				l10.8,17c1,1.7,2.7,2.4,4.3,1.9C739.3,8.6,740.3,7.1,740.3,5.1z"/>
			<path class="st14" d="M706.2,15.5l-0.1-7l-7.2-11.1l-10.8-17c-1-1.7-2.7-2.4-4.3-1.9c-1.5,0.5-2.5,2-2.4,4l0.1,7l7.2,11.1
				l10.8,17c1,1.7,2.7,2.4,4.3,1.9C705.2,19,706.1,17.5,706.2,15.5z"/>
			<path class="st14" d="M672,25.9l-0.1-7l-7.2-11.1l-10.8-17c-1-1.7-2.7-2.4-4.3-1.9s-2.5,2-2.4,4l0.1,7l7.2,11.1l10.8,17
				c1,1.7,2.7,2.4,4.3,1.9C671,29.5,672,27.9,672,25.9z"/>
			<path class="st6" d="M989.5-71.1L989-91.3l-0.5-20.1c-0.1-2,0.9-3.5,2.4-4l-10.2,3.1c-1.5,0.5-2.5,2-2.4,4l0.5,20.1l0.3,13.2
				l0.1,7c0.1,2-0.9,3.5-2.4,4l10.2-3.1C988.6-67.6,989.6-69.2,989.5-71.1z"/>
			<path class="st6" d="M887.1-39.8l-0.5-20.1l-0.3-13.2l-0.1-7c-0.1-2,0.9-3.5,2.4-4L878.4-81c-1.5,0.5-2.5,2-2.4,4l0.5,20.1
				l0.3,13.2l0.1,7c0.1,2-0.9,3.5-2.4,4l10.2-3.1C886.2-36.3,887.2-37.8,887.1-39.8z"/>
			<path class="st6" d="M853-29.4l-0.5-20.1l-0.3-13.2l-0.1-7c-0.1-2,0.9-3.5,2.4-4l-10.2,3.1c-1.5,0.5-2.5,2-2.4,4l0.5,20.1
				l0.3,13.2l0.1,7c0.1,2-0.9,3.5-2.4,4l10.2-3.1C852-25.9,853-27.4,853-29.4z"/>
			<path class="st6" d="M784.7-8.5l-0.5-20.1l-0.3-13.2l-0.1-7c-0.1-2,0.9-3.5,2.4-4L776-49.7c-1.5,0.5-2.5,2-2.4,4l0.5,20.1
				l0.3,13.2l0.1,7c0.1,2-0.9,3.5-2.4,4l10.2-3.1C783.8-5,784.7-6.5,784.7-8.5z"/>
			<path class="st6" d="M955.4-60.7l-0.5-20.1L954.6-94l-0.1-7c-0.1-2,0.9-3.5,2.4-4l-10.2,3.1c-1.5,0.5-2.5,2-2.4,4l0.5,20.1
				l0.3,13.2l0.1,7c0.1,2-0.9,3.5-2.4,4l10.2-3.1C954.5-57.2,955.5-58.7,955.4-60.7z"/>
			<path class="st6" d="M921.2-50.2l-0.5-20.1l-0.3-13.2l-0.1-7c-0.1-2,0.9-3.5,2.4-4l-10.2,3.1c-1.5,0.5-2.5,2-2.4,4l0.5,20.1
				l0.3,13.2l0.1,7c0.1,2-0.9,3.5-2.4,4l10.2-3.1C920.3-46.7,921.3-48.3,921.2-50.2z"/>
			<path class="st6" d="M614,43.7l-0.5-20.1l-0.3-13.2l-0.1-7c-0.1-2,0.9-3.5,2.4-4l-10.2,3.1c-1.5,0.5-2.5,2-2.4,4l0.5,20.1
				l0.3,13.2l0.1,7c0.1,2-0.9,3.5-2.4,4l10.2-3.1C613.1,47.2,614,45.6,614,43.7z"/>
			<path class="st6" d="M750.5,1.9L750-18.2l-0.3-13.2l-0.1-7c-0.1-2,0.9-3.5,2.4-4l-10.2,3.1c-1.5,0.5-2.5,2-2.4,4l0.5,20.1
				l0.3,13.2l0.1,7c0.1,2-0.9,3.5-2.4,4l10.2-3.1C749.6,5.5,750.6,3.9,750.5,1.9z"/>
			<path class="st6" d="M579.8,54.1L579.3,34l-0.3-13.2l-0.1-7c-0.1-2,0.9-3.5,2.4-4L571.1,13c-1.5,0.5-2.5,2-2.4,4l0.5,20.1
				l0.3,13.2l0.1,7c0.1,2-0.9,3.5-2.4,4l10.2-3.1C578.9,57.6,579.9,56.1,579.8,54.1z"/>
			<path class="st6" d="M545.7,64.6l-0.5-20.1l-0.3-13.2l-0.1-7c-0.1-2,0.9-3.5,2.4-4L537,23.4c-1.5,0.5-2.5,2-2.4,4l0.9,40.2
				c0.1,2-0.9,3.5-2.4,4l10.2-3.1C544.8,68.1,545.8,66.5,545.7,64.6z"/>
			<path class="st6" d="M648.1,33.2l-0.5-20.1l-0.3-13.2l-0.1-7c-0.1-2,0.9-3.5,2.4-4l-10.2,3.1c-1.5,0.5-2.5,2-2.4,4l0.5,20.1
				l0.3,13.2l0.1,7c0.1,2-0.9,3.5-2.4,4l10.2-3.1C647.2,36.8,648.2,35.2,648.1,33.2z"/>
			<path class="st6" d="M682.2,22.8l-0.5-20.1l-0.3-13.2l-0.1-7c-0.1-2,0.9-3.5,2.4-4l-10.2,3.1c-1.5,0.5-2.5,2-2.4,4l0.5,20.1
				l0.3,13.2l0.1,7c0.1,2-0.9,3.5-2.4,4l10.2-3.1C681.3,26.3,682.3,24.8,682.2,22.8z"/>
			<path class="st6" d="M716.4,12.4l-0.5-20.1L715.6-21l-0.1-7c-0.1-2,0.9-3.5,2.4-4l-10.2,3.1c-1.5,0.5-2.5,2-2.4,4l0.5,20.1
				L706,8.5l0.1,7c0.1,2-0.9,3.5-2.4,4l10.2-3.1C715.5,15.9,716.5,14.3,716.4,12.4z"/>
			<path class="st6" d="M818.8-18.9l-0.5-20.1L818-52.3l-0.1-7c-0.1-2,0.9-3.5,2.4-4L810-60.1c-1.5,0.5-2.5,2-2.4,4l0.5,20.1
				l0.3,13.2l0.1,7c0.1,2-0.9,3.5-2.4,4l10.2-3.1C817.9-15.4,818.9-17,818.8-18.9z"/>
		</g>
		<g>
			<path class="st14" d="M1203.2,961l3.7-5.9l0.1-13.2l0.3-20.1c0.1-2-1-3.5-2.5-4c-1.5-0.5-3.2,0.3-4.2,2l-3.7,5.9l-0.1,13.2
				l-0.3,20.1c-0.1,2,1,3.5,2.5,4C1200.4,963.4,1202.1,962.7,1203.2,961z"/>
			<path class="st14" d="M1134.7,940.9l3.7-5.9l0.1-13.2l0.3-20.1c0.1-2-1-3.5-2.5-4c-1.5-0.5-3.2,0.3-4.2,2l-3.7,5.9l-0.1,13.2
				l-0.3,20.1c-0.1,2,1,3.5,2.5,4C1131.9,943.3,1133.6,942.6,1134.7,940.9z"/>
			<path class="st14" d="M1169,951l3.7-5.9l0.1-13.2l0.3-20.1c0.1-2-1-3.5-2.5-4c-1.5-0.5-3.2,0.3-4.2,2l-3.7,5.9l-0.1,13.2
				l-0.3,20.1c-0.1,2,1,3.5,2.5,4C1166.2,953.4,1167.9,952.6,1169,951z"/>
			<path class="st14" d="M1237.5,971.1l3.7-5.9l0.1-13.2l0.3-20.1c0.1-2-1-3.5-2.5-4c-1.5-0.5-3.2,0.3-4.2,2l-3.7,5.9L1231,949
				l-0.3,20.1c-0.1,2,1,3.5,2.5,4l0,0C1234.7,973.5,1236.4,972.7,1237.5,971.1z"/>
			<path class="st14" d="M1305.9,991.1l3.7-5.9l0.1-13.2l0.3-20.1c0.1-2-1-3.5-2.5-4c-1.5-0.5-3.2,0.3-4.2,2l-3.7,5.9l-0.1,13.2
				l-0.3,20.1c-0.1,2,1,3.5,2.5,4l0,0C1303.2,993.6,1304.9,992.8,1305.9,991.1z"/>
			<path class="st14" d="M1271.6,981.1l3.7-5.9l0.1-13.2l0.3-20.1c0.1-2-1-3.5-2.5-4c-1.5-0.5-3.2,0.3-4.2,2l-3.7,5.9l-0.1,13.2
				l-0.3,20.1c-0.1,2,1,3.5,2.5,4C1268.9,983.5,1270.6,982.8,1271.6,981.1z"/>
			<path class="st14" d="M1031.9,910.7l3.7-5.9l0.1-13.2l0.3-20.1c0.1-2-1-3.5-2.5-4c-1.5-0.5-3.2,0.3-4.2,2l-3.7,5.9l-0.1,13.2
				l-0.3,20.1c-0.1,2,1,3.5,2.5,4C1029.2,913.2,1030.8,912.4,1031.9,910.7z"/>
			<path class="st14" d="M963.4,890.6l3.7-5.9l0.1-13.2l0.3-20.1c0.1-2-1-3.5-2.5-4c-1.5-0.5-3.2,0.3-4.2,2l-3.7,5.9l-0.1,13.2
				l-0.3,20.1c-0.1,2,1,3.5,2.5,4C960.6,893,962.3,892.3,963.4,890.6z"/>
			<path class="st14" d="M929.2,880.6l3.7-5.9l0.1-13.2l0.3-20.1c0.1-2-1-3.5-2.5-4s-3.2,0.3-4.2,2l-3.7,5.9l-0.1,13.2l-0.3,20.1
				c-0.1,2,1,3.5,2.5,4C926.4,883,928.1,882.2,929.2,880.6z"/>
			<path class="st14" d="M997.7,900.7l3.7-5.9l0.1-13.2l0.3-20.1c0.1-2-1-3.5-2.5-4c-1.5-0.5-3.2,0.3-4.2,2l-3.7,5.9l-0.1,13.2
				l-0.3,20.1c-0.1,2,1,3.5,2.5,4C994.9,903.1,996.6,902.3,997.7,900.7z"/>
			<path class="st14" d="M1100.5,930.9l3.7-5.9l0.1-13.2l0.3-20.1c0.1-2-1-3.5-2.5-4c-1.5-0.5-3.2,0.3-4.2,2l-3.7,5.9l-0.1,13.2
				l-0.3,20.1c-0.1,2,1,3.5,2.5,4C1097.8,933.3,1099.3,932.5,1100.5,930.9z"/>
			<path class="st14" d="M1066.2,920.8l3.7-5.9l0.1-13.2l0.3-20.1c0.1-2-1-3.5-2.5-4l0,0c-1.5-0.5-3.2,0.3-4.2,2l-3.7,5.9l-0.1,13.2
				l-0.3,20.1c-0.1,2,1,3.5,2.5,4C1063.4,923.2,1065.1,922.5,1066.2,920.8z"/>
			<path class="st14" d="M894.9,870.5l3.7-5.9l0.1-13.2l0.3-20.1c0.1-2-1-3.5-2.5-4c-1.5-0.5-3.2,0.3-4.2,2l-3.7,5.9l-0.1,13.2
				l-0.3,20.1c-0.1,2,1,3.5,2.5,4C892.1,872.9,893.8,872.2,894.9,870.5z"/>
			<path class="st6" d="M1179.2,954l10.6-17.1l7-11.2l3.7-5.9c1-1.7,2.7-2.4,4.2-2l-10.3-3c-1.5-0.5-3.2,0.3-4.2,2l-10.6,17.1
				l-7,11.2l-3.7,5.9c-1,1.7-2.7,2.4-4.2,2l10.3,3C1176.5,956.4,1178.2,955.7,1179.2,954z"/>
			<path class="st6" d="M1213.5,964l10.6-17.1l7-11.2l3.7-5.9c1-1.7,2.7-2.4,4.2-2l-10.3-3c-1.5-0.5-3.2,0.3-4.2,2l-10.6,17.1
				l-7,11.2l-3.7,5.9c-1,1.7-2.7,2.4-4.2,2l10.3,3C1210.8,966.5,1212.5,965.7,1213.5,964z"/>
			<path class="st6" d="M1145,943.9l10.6-17.1l7-11.2l3.7-5.9c1-1.7,2.7-2.4,4.2-2l-10.4-3c-1.5-0.5-3.2,0.3-4.2,2l-10.6,17.1
				l-7,11.2l-3.7,5.9c-1,1.7-2.7,2.4-4.2,2l10.3,3C1142.3,946.4,1144,945.6,1145,943.9z"/>
			<path class="st6" d="M1316.3,994.2l10.6-17.1l10.6-17.1c1-1.7,2.7-2.4,4.2-2l-10.3-3c-1.5-0.5-3.2,0.3-4.2,2l-10.6,17.1l-7,11.2
				l-3.7,5.9c-1,1.7-2.7,2.4-4.2,2l10.3,3C1313.6,996.6,1315.2,995.9,1316.3,994.2z"/>
			<path class="st6" d="M870.9,863.5l10.6-17.1l7-11.2l3.7-5.9c1-1.7,2.7-2.4,4.2-2l-10.3-3c-1.5-0.5-3.2,0.3-4.2,2l-10.6,17.1
				l-10.6,17.1c-1,1.7-2.7,2.4-4.2,2l10.3,3C868.2,865.9,869.9,865.2,870.9,863.5z"/>
			<path class="st6" d="M1110.7,933.9l10.6-17.1l7-11.2l3.7-5.9c1-1.7,2.7-2.4,4.2-2l-10.3-3c-1.5-0.5-3.2,0.3-4.2,2l-10.6,17.1
				l-7,11.2l-3.7,5.9c-1,1.7-2.7,2.4-4.2,2l10.3,3C1108,936.3,1109.7,935.5,1110.7,933.9z"/>
			<path class="st6" d="M1282,984.1l10.6-17.1l7-11.2l3.7-5.9c1-1.7,2.7-2.4,4.2-2l-10.3-3c-1.5-0.5-3.2,0.3-4.2,2l-10.6,17.1
				l-7,11.2l-3.7,5.9c-1,1.7-2.7,2.4-4.2,2l10.3,3C1279.3,986.6,1281,985.8,1282,984.1z"/>
			<path class="st6" d="M1247.7,974.1l10.6-17.1l7-11.2l3.7-5.9c1-1.7,2.7-2.4,4.2-2l-10.3-3c-1.5-0.5-3.2,0.3-4.2,2l-10.6,17.1
				l-7,11.2l-3.7,5.9c-1,1.7-2.7,2.4-4.2,2l10.3,3C1245,976.5,1246.7,975.8,1247.7,974.1z"/>
			<path class="st6" d="M973.7,893.6l10.6-17.1l7-11.2l3.7-5.9c1-1.7,2.7-2.4,4.2-2l-10.3-3c-1.5-0.5-3.2,0.3-4.2,2l-10.6,17.1
				l-7,11.2l-3.7,5.9c-1,1.7-2.7,2.4-4.2,2l10.3,3C971,896.1,972.7,895.3,973.7,893.6z"/>
			<path class="st6" d="M939.4,883.6l10.6-17.1l7-11.2l3.7-5.9c1-1.7,2.7-2.4,4.2-2l-10.3-3c-1.5-0.5-3.2,0.3-4.2,2l-10.6,17.1
				l-7,11.2l-3.7,5.9c-1,1.7-2.7,2.4-4.2,2l10.3,3C936.8,886,938.4,885.3,939.4,883.6z"/>
			<path class="st6" d="M905.2,873.5l10.6-17.1l7-11.2l3.7-5.9c1-1.7,2.7-2.4,4.2-2l-10.3-3c-1.5-0.5-3.2,0.3-4.2,2l-10.6,17.1
				l-7,11.2l-3.7,5.9c-1,1.7-2.7,2.4-4.2,2l10.3,3C902.5,876,904.2,875.2,905.2,873.5z"/>
			<path class="st6" d="M1076.5,923.8l10.6-17.1l7-11.2l3.7-5.9c1-1.7,2.7-2.4,4.2-2l-10.3-3c-1.5-0.5-3.2,0.3-4.2,2l-10.6,17.1
				l-7,11.2l-3.7,5.9c-1,1.7-2.7,2.4-4.2,2l10.3,3C1073.8,926.2,1075.5,925.5,1076.5,923.8z"/>
			<path class="st6" d="M1008,903.7l10.6-17.1l7-11.2l3.7-5.9c1-1.7,2.7-2.4,4.2-2l-10.3-3c-1.5-0.5-3.2,0.3-4.2,2l-10.6,17.1
				l-7,11.2l-3.7,5.9c-1,1.7-2.7,2.4-4.2,2l10.3,3C1005.3,906.1,1006.9,905.4,1008,903.7z"/>
			<path class="st6" d="M1042.2,913.8l10.6-17.1l7-11.2l3.7-5.9c1-1.7,2.7-2.4,4.2-2l-10.3-3c-1.5-0.5-3.2,0.3-4.2,2l-10.6,17.1
				l-7,11.2l-3.7,5.9c-1,1.7-2.7,2.4-4.2,2l10.3,3C1039.5,916.2,1041.2,915.4,1042.2,913.8z"/>
		</g>
	</g>
	<g>
		<g>
			<path class="st15" d="M809.8,580.1c10.7-11.9,21.1-24.1,31.4-36.4c-15.9-2.6-31.8-5.5-47.6-8.7
				C798.7,550.1,804.1,565.2,809.8,580.1z M1116.7,594.2c7-14.4,13.8-29,20.3-43.6c-16,1.8-32.1,3.3-48.2,4.4
				C1097.8,568.2,1107.1,581.3,1116.7,594.2z M1236.1,534.8c10.8,11.8,21.8,23.4,33,34.8c5-15.2,9.7-30.4,14.2-45.7
				C1267.6,527.9,1251.9,531.5,1236.1,534.8z"/>
			<path class="st8" d="M911.7,594.2c9.5-12.9,18.8-26,27.9-39.2c-16.1-1.1-32.2-2.6-48.2-4.4C897.9,565.3,904.7,579.8,911.7,594.2z
				 M709.3,556.7c11.7-10.8,23.2-21.9,34.5-33.1c-15.6-4-31.1-8.3-46.6-13C701,526,705,541.3,709.3,556.7z M1014.2,557.5
				c-8.1,0-16.2-0.1-24.2-0.3c7.8,14,15.9,27.9,24.2,41.7c8.3-13.8,16.4-27.6,24.2-41.7C1030.4,557.4,1022.3,557.5,1014.2,557.5
				C1014.2,557.5,1014.3,557.5,1014.2,557.5z M1218.6,580.1c5.7-14.9,11.1-30,16.2-45.1c-15.8,3.3-31.7,6.2-47.6,8.7
				C1197.5,556.1,1207.9,568.2,1218.6,580.1z M1284.7,523.5c11.3,11.2,22.8,22.3,34.5,33.1c4.3-15.3,8.3-30.7,12.1-46.2
				C1315.8,515.2,1300.3,519.5,1284.7,523.5z"/>
			<path class="st2" d="M860.6,588.3c10.1-12.5,20-25.1,29.7-37.9c-16-1.8-32-4-47.9-6.5C848.2,558.8,854.3,573.6,860.6,588.3z
				 M759.4,569.6c11.2-11.4,22.2-23,33-34.8c-15.8-3.3-31.5-6.9-47.1-10.9C749.7,539.2,754.4,554.4,759.4,569.6z M1138.1,550.5
				c9.7,12.8,19.6,25.4,29.7,37.9c6.3-14.7,12.4-29.5,18.3-44.4C1170.1,546.5,1154.1,548.7,1138.1,550.5z M1065.6,597.7
				c7.7-14.1,15.1-28.3,22.3-42.7c-16.1,1.1-32.2,1.8-48.4,2.2C1047.9,570.9,1056.6,584.4,1065.6,597.7z M962.9,597.7
				c8.9-13.4,17.6-26.9,26.1-40.5c-16.2-0.4-32.3-1.1-48.4-2.2C947.8,569.4,955.3,583.6,962.9,597.7z"/>
			<path class="st4" d="M1331.2,507.6c-102.7,31.3-209.4,47.1-317,47.1s-214.3-15.9-317-47.1l-0.8,2.6c0.3,0.1,0.5,0.2,0.8,0.2
				c15.4,4.7,31,9,46.6,13c0.5,0.1,1,0.2,1.4,0.4c15.6,4,31.3,7.6,47.1,10.9c0.4,0.1,0.8,0.2,1.2,0.2c15.8,3.3,31.7,6.2,47.6,8.7
				c0.4,0.1,0.8,0.1,1.2,0.2c15.9,2.5,31.9,4.7,47.9,6.5c0.4,0,0.7,0.1,1.1,0.1c16,1.8,32.1,3.3,48.2,4.4c0.3,0,0.7,0,1,0.1
				c16.1,1.1,32.2,1.8,48.4,2.2c0.3,0,0.7,0,1,0c8.1,0.2,16.1,0.3,24.2,0.3l0,0c8.1,0,16.2-0.1,24.2-0.3c0.3,0,0.7,0,1,0
				c16.2-0.4,32.3-1.1,48.4-2.2c0.3,0,0.6,0,0.9-0.1c16.1-1.1,32.2-2.6,48.2-4.4c0.4,0,0.7-0.1,1.1-0.1c16-1.8,32-4,47.9-6.5
				c0.4-0.1,0.8-0.1,1.2-0.2c15.9-2.6,31.8-5.5,47.6-8.7c0.4-0.1,0.9-0.2,1.3-0.3c15.8-3.3,31.5-6.9,47.1-10.9
				c0.5-0.1,1-0.2,1.4-0.4c15.6-4,31.1-8.3,46.6-13c0.3-0.1,0.5-0.2,0.8-0.2L1331.2,507.6z"/>
		</g>
		<g>
			<path class="st15" d="M-74.5,53.6C-63.8,39.2-53.4,24.7-43.1,10c-15.9,1.1-31.8,1.8-47.6,2.1C-85.6,26.2-80.2,40-74.5,53.6z
				 M232.4-2.4c7-16,13.8-32,20.3-48.2c-16,5.5-32.1,10.6-48.1,15.3C213.6-24,222.9-13.1,232.4-2.4z M351.9-89
				c10.8,9.3,21.7,18.4,32.9,27.2c5-16.2,9.7-32.5,14.1-48.8C383.3-103.1,367.6-95.9,351.9-89z"/>
			<path class="st8" d="M105.8-10.4c7.8,12.2,15.9,24.3,24.2,36.1c8.3-15.6,16.4-31.3,24.2-47.2c-8,2-15.9,3.9-23.9,5.7
				C122.1-13.8,113.9-12.1,105.8-10.4z M-175,53.1c11.7-13.5,23.2-27.2,34.5-41.1c-15.6-0.4-31.2-1.2-46.6-2.4
				C-183.3,24.3-179.3,38.8-175,53.1z M27.4,44.5c9.5-15.1,18.8-30.3,27.9-45.6C39.2,1.5,23.1,3.7,7.1,5.5
				C13.6,18.6,20.4,31.6,27.4,44.5z M400.5-111.4c11.3,8.6,22.8,17,34.4,25.2c4.3-16.3,8.3-32.5,12-48.8
				C431.5-126.8,416-118.9,400.5-111.4z M334.3-39.7c5.7-16.2,11-32.4,16.2-48.7C334.7-81.6,318.9-75,303-68.9
				C313.2-58.9,323.6-49.2,334.3-39.7z"/>
			<path class="st2" d="M-139.1,12.1c4.5,14.3,9.2,28.5,14.2,42.5c11.2-14,22.2-28.1,33-42.4c-7,0.1-14,0.2-20.9,0.2
				C-121.6,12.4-130.3,12.3-139.1,12.1z M-23.7,50.2C-13.6,35.4-3.7,20.6,6,5.6C-10,7.4-26,8.9-42,10C-36.1,23.6-30,37-23.7,50.2z
				 M181.3,12.8C189-3,196.4-18.9,203.5-34.9c-16.1,4.7-32.2,9.2-48.3,13.2C163.7-10,172.3,1.5,181.3,12.8z M253.8-50.9
				c9.7,10.6,19.5,20.9,29.6,31c6.3-16.1,12.4-32.3,18.2-48.5C285.8-62.2,269.8-56.4,253.8-50.9z M78.6,36.3
				c8.9-15.4,17.6-30.9,26.1-46.4C88.6-6.8,72.4-3.8,56.4-1.3C63.5,11.4,71,23.9,78.6,36.3z"/>
			<path class="st4" d="M446.7-138C343.9-83.2,237.3-43,129.6-18.4C22,6.2-84.7,14.7-187.4,6.9l-0.2,2.7c0.2,0,0.3,0,0.5,0
				c15.5,1.2,31,2,46.6,2.4c0.5,0,0.9,0,1.4,0c8.7,0.2,17.5,0.4,26.2,0.4c7,0,13.9-0.1,20.9-0.2c0.4,0,0.8,0,1.2,0
				c15.8-0.3,31.7-1.1,47.6-2.1c0.4,0,0.8-0.1,1.2-0.1c15.9-1.1,31.9-2.6,48-4.4c0.4,0,0.7-0.1,1.1-0.1c16-1.8,32.1-4.1,48.2-6.6
				c0.4-0.1,0.7-0.1,1.1-0.2c16.1-2.6,32.2-5.5,48.3-8.8c0.3-0.1,0.7-0.1,1-0.2c8.2-1.7,16.3-3.5,24.5-5.3c8-1.8,15.9-3.7,23.9-5.7
				c0.4-0.1,0.7-0.2,1.1-0.3c16.1-4.1,32.2-8.5,48.3-13.2c0.3-0.1,0.7-0.2,1-0.3c16.1-4.8,32.1-9.9,48.1-15.3
				c0.4-0.1,0.8-0.3,1.2-0.4c16-5.5,32-11.3,47.9-17.4c0.4-0.2,0.9-0.3,1.3-0.5c15.9-6.2,31.7-12.7,47.5-19.5
				c0.5-0.2,0.9-0.4,1.4-0.6c15.7-6.9,31.4-14.1,47-21.6c0.5-0.2,1-0.5,1.6-0.8c15.6-7.5,31.1-15.4,46.5-23.6
				c0.4-0.2,0.7-0.4,1.1-0.6L446.7-138z"/>
		</g>
		<g>
			<path class="st15" d="M759.4,655.5c11.2-8,22.1-16.3,32.9-24.9c-15.7-8-31.4-16.3-47-24.9C749.7,622.3,754.4,638.9,759.4,655.5z
				 M1187.3,757.8c10.2,15.4,20.7,30.6,31.4,45.8c5.7-13.3,11.1-26.7,16.2-40.3C1219.1,761.8,1203.3,760,1187.3,757.8z M911.8,725.8
				c9.5-10,18.8-20.3,27.9-30.8c-16.1-5.9-32.1-12.2-48.1-18.7C898.1,692.8,904.8,709.3,911.8,725.8z"/>
			<path class="st8" d="M990.1,712.3c7.8,16.3,15.9,32.6,24.2,48.8c8.3-11.2,16.4-22.7,24.2-34.4c-8.2-2.3-16.4-4.6-24.6-7.1
				C1005.9,717.3,998,714.8,990.1,712.3z M809.9,681.2c10.6-8.7,21.1-17.7,31.3-26.9c-15.9-7.3-31.7-14.9-47.4-22.9
				C798.9,648,804.3,664.6,809.9,681.2z M709.3,627.5c11.7-7.3,23.1-14.9,34.4-22.7c-15.6-8.6-31-17.6-46.4-26.9
				C701,594.5,705,611,709.3,627.5z M1326.9,767.6c-14,0-28.1-0.3-42.3-0.9c11.3,14.7,22.8,29.2,34.6,43.5
				c4.3-14.1,8.3-28.3,12.1-42.6C1329.8,767.6,1328.4,767.6,1326.9,767.6z M1116.8,787.1c7-12.3,13.8-24.8,20.3-37.5
				c-16-3-32.1-6.3-48.2-10C1098,755.5,1107.3,771.4,1116.8,787.1z"/>
			<path class="st2" d="M860.7,704.6c10.1-9.4,19.9-19,29.6-28.9c-16-6.6-31.9-13.5-47.8-20.8C848.3,671.5,854.4,688,860.7,704.6z
				 M962.9,744.6c8.9-10.7,17.6-21.5,26.1-32.6c-16.1-5.2-32.2-10.7-48.3-16.6C947.9,711.8,955.3,728.2,962.9,744.6z M1167.9,796.6
				c6.3-12.8,12.4-25.8,18.3-39c-15.9-2.2-31.9-4.8-47.9-7.8C1147.9,765.5,1157.8,781.1,1167.9,796.6z M1065.6,775.3
				c7.7-11.8,15.1-23.8,22.3-36c-16.1-3.7-32.2-7.8-48.3-12.3C1048,743.2,1056.6,759.3,1065.6,775.3z M1236.1,763.4
				c10.8,15,21.8,29.9,33,44.7c5-13.7,9.7-27.5,14.2-41.5C1267.6,765.9,1251.9,764.9,1236.1,763.4z"/>
			<path class="st4" d="M1331.6,764.9c-1.6,0-3.1,0-4.7,0c-101.3,0-206.3-16.1-312.3-47.8C907,684.8,800.3,637,697.6,574.9l-1.4,2.4
				c0.4,0.2,0.8,0.5,1.1,0.7c15.4,9.3,30.9,18.2,46.4,26.9c0.5,0.3,1.1,0.6,1.6,0.9c15.6,8.6,31.2,16.9,47,24.9
				c0.5,0.2,1,0.5,1.5,0.7c15.8,8,31.6,15.6,47.4,22.9c0.4,0.2,0.9,0.4,1.3,0.6c15.9,7.3,31.8,14.2,47.8,20.8
				c0.4,0.2,0.8,0.3,1.2,0.5c16,6.6,32,12.8,48.1,18.7c0.3,0.1,0.7,0.3,1,0.4c16.1,5.9,32.2,11.4,48.3,16.6c0.4,0.1,0.7,0.2,1.1,0.3
				c7.9,2.5,15.8,5,23.8,7.4c8.2,2.5,16.4,4.8,24.6,7.1c0.4,0.1,0.7,0.2,1.1,0.3c16.1,4.5,32.3,8.5,48.3,12.3
				c0.4,0.1,0.7,0.2,1.1,0.2c16.1,3.7,32.2,7.1,48.2,10c0.4,0.1,0.7,0.1,1.1,0.2c16,3,32,5.6,47.9,7.8c0.4,0.1,0.8,0.1,1.2,0.2
				c15.9,2.2,31.8,4,47.6,5.5c0.4,0,0.8,0.1,1.2,0.1c15.8,1.4,31.5,2.5,47.2,3.2c0.5,0,0.9,0,1.4,0.1c14.2,0.6,28.3,0.9,42.3,0.9
				c1.4,0,2.9,0,4.3,0c0.1,0,0.2,0,0.4,0L1331.6,764.9z"/>
		</g>
	</g>
	<g>
		<path class="st4" d="M171.9,319.6L209,603.4c0.2,1.3,1.3,2.2,2.6,2s2.2-1.3,2-2.6l-37-283.8L171.9,319.6z"/>
		<path class="st5" d="M190,308.3l-3.2-4.2c-4.5,1.8-9.2,3.1-14,3.7c-4.9,0.6-9.7,0.6-14.5,0l-2,4.9c-1.7,4.2,1.7,8.7,6.2,8.1
			l23.7-3.1C190.6,317.2,192.8,312,190,308.3z"/>
		<path class="st6" d="M211.8,67.6c-20.1-15.4-46-23.2-73.1-19.6c-27.1,3.5-50.1,17.7-65.6,37.8c-15.4,20.1-23.2,46-19.6,73.1
			c3.8,29.2,13.9,58.3,27.9,82.8c14,24.5,31.9,44.5,51.2,55.5c8.5,4.9,17.4,8,26.2,9.1c4.5,0.5,9,0.5,13.5-0.1s8.9-1.8,13.1-3.4
			c8.3-3.3,16-8.6,23-15.5c10.6-10.4,19.5-24.5,26.4-40.8c13.9-32.6,19.6-74.2,14.6-113.2C246,106.1,231.9,83,211.8,67.6z M69.4,136
			c-0.8,6.7-0.8,13.7,0.1,20.7c0.3,2.1-1.2,3.9-3.2,4.2c-2.1,0.3-3.9-1.2-4.2-3.2c-1-7.7-1-15.2-0.1-22.6c0.2-1.7,1.6-3.1,3.2-3.3
			c0.3,0,0.6,0,0.9,0C68.1,132,69.6,133.9,69.4,136z M140.8,63.8c-16.2,2.1-30.8,8.8-42.5,18.7c-11.7,9.8-20.5,22.8-25.4,37.4
			c-0.5,1.4-1.7,2.4-3.1,2.5c-0.5,0.1-1.1,0-1.7-0.2c-2-0.7-3-2.8-2.4-4.7c5.3-15.9,14.9-30,27.7-40.7
			c12.7-10.7,28.6-18.1,46.3-20.4c2.1-0.3,3.9,1.2,4.2,3.2C144.3,61.7,142.9,63.6,140.8,63.8z"/>
		<path class="st7" d="M138.5,46.1c-55.2,7.2-94,57.8-86.8,112.9c5.1,39.3,21.5,78.2,43.5,106.5c11,14.1,23.4,25.6,36.6,33.1
			c8.6,4.9,17.4,8.1,26.4,9.2c4.8,0.6,9.7,0.6,14.5,0c4.9-0.6,9.5-1.9,14-3.7c8.4-3.4,16.1-8.8,23.2-15.7
			c16.2-16,28.4-40.1,35.7-67.6s9.6-58.4,5.8-87.9C244.2,77.7,193.7,38.9,138.5,46.1z M235,246.3c-6.9,16.3-15.9,30.4-26.4,40.8
			c-7,6.9-14.7,12.2-23,15.5c-4.2,1.7-8.6,2.8-13.1,3.4s-9,0.6-13.5,0.1c-8.9-1-17.7-4.2-26.2-9.1c-19.3-11-37.2-31-51.2-55.5
			s-24.1-53.6-27.9-82.8c-3.5-27.1,4.2-53,19.6-73.1s38.5-34.2,65.6-37.8c27.1-3.5,53,4.2,73.1,19.6s34.2,38.5,37.8,65.6
			C254.7,172.1,248.9,213.6,235,246.3z"/>
		<path class="st16" d="M66.1,131.8c-0.3,0-0.6,0-0.9,0c-1.7,0.2-3,1.5-3.2,3.3c-1,7.3-1,14.9,0,22.5c0.3,2.1,2.2,3.5,4.2,3.2
			c2.1-0.3,3.5-2.2,3.2-4.2c-0.9-7-0.9-14-0.1-20.7C69.6,133.9,68.1,132,66.1,131.8z M139.9,56.4c-17.7,2.3-33.6,9.6-46.3,20.4
			c-12.7,10.7-22.4,24.8-27.7,40.7c-0.7,2,0.4,4.1,2.4,4.7c0.6,0.2,1.1,0.2,1.7,0.2c1.4-0.2,2.6-1.1,3.1-2.5
			c4.9-14.6,13.7-27.5,25.4-37.4c11.7-9.8,26.2-16.5,42.5-18.7c2.1-0.3,3.5-2.2,3.2-4.2C143.8,57.6,141.9,56.1,139.9,56.4z"/>
	</g>
	<g>
		<path class="st4" d="M112.3,478.7l53.2,144.1c0.3,0.7,1,1,1.7,0.8c0.7-0.3,1-1,0.8-1.7l-53.2-144.1L112.3,478.7z"/>
		<path class="st5" d="M120.9,470.1l-2.3-1.9c-2.3,1.6-4.7,2.9-7.3,3.9c-2.6,1-5.3,1.6-8.1,1.9l-0.5,3c-0.4,2.6,2.1,4.6,4.5,3.7
			l12.8-4.8C122.4,474.9,122.9,471.7,120.9,470.1z"/>
		<path class="st6" d="M102.3,333.2c-13.1-6-28.6-7-43.2-1.6C44.4,337,33.4,347.9,27.4,361c-6,13.1-7,28.6-1.6,43.2
			C31.7,420,41,434.9,52,446.7c10.9,11.9,23.5,20.7,35.6,24.3c5.4,1.6,10.7,2.2,15.8,1.7c2.6-0.3,5.1-0.9,7.5-1.8s4.7-2.1,6.9-3.6
			c4.2-2.9,7.8-6.8,10.8-11.6c4.5-7.2,7.7-16.1,9.5-26.1c3.5-20,1.4-43.8-6.4-64.9C126.3,350.2,115.4,339.2,102.3,333.2z
			 M31.7,389.5c0.4,3.9,1.3,7.7,2.7,11.5c0.4,1.1-0.2,2.3-1.3,2.8c-1.1,0.4-2.3-0.2-2.8-1.3c-1.5-4.1-2.5-8.4-3-12.6
			c-0.1-1,0.5-1.9,1.4-2.2c0.2-0.1,0.3-0.1,0.5-0.1C30.5,387.5,31.6,388.3,31.7,389.5z M62.3,340.2c-8.8,3.3-16,8.9-21.3,15.8
			c-5.3,7-8.5,15.3-9.4,24.1c-0.1,0.8-0.6,1.5-1.4,1.8c-0.3,0.1-0.6,0.2-1,0.1c-1.2-0.1-2-1.2-1.9-2.3c0.9-9.5,4.5-18.6,10.2-26.2
			c5.7-7.6,13.6-13.7,23.2-17.3c1.1-0.4,2.3,0.2,2.8,1.3C63.9,338.5,63.4,339.8,62.3,340.2z"/>
		<path class="st7" d="M58.7,330.6c-29.8,11.1-45,44.2-33.9,74c7.9,21.2,22,40.8,37.9,53.8c7.9,6.5,16.3,11.3,24.6,13.8
			c5.4,1.6,10.7,2.3,15.9,1.8c2.8-0.3,5.5-0.9,8.1-1.9s5.1-2.3,7.3-3.9c4.2-3,7.9-7,10.9-11.7c7-11,10.7-26,11.2-42.3
			s-2.1-33.8-8-49.7C121.6,334.7,88.5,319.5,58.7,330.6z M138.1,429.7c-1.8,10-4.9,19-9.5,26.1c-3,4.7-6.6,8.7-10.8,11.6
			c-2.1,1.5-4.4,2.7-6.9,3.6c-2.4,0.9-5,1.5-7.5,1.8c-5.1,0.6-10.4-0.1-15.8-1.7c-12.2-3.7-24.7-12.5-35.6-24.3
			c-11-11.9-20.3-26.8-26.2-42.6c-5.4-14.6-4.4-30.1,1.6-43.2c6-13.1,17.1-24,31.7-29.4s30.1-4.4,43.2,1.6s24,17.1,29.4,31.7
			C139.5,385.9,141.6,409.8,138.1,429.7z"/>
		<path class="st16" d="M29.3,387.6c-0.2,0-0.4,0.1-0.5,0.1c-0.9,0.3-1.5,1.2-1.4,2.2c0.4,4.2,1.4,8.4,3,12.6
			c0.4,1.1,1.6,1.7,2.8,1.3c1.1-0.4,1.7-1.6,1.3-2.8c-1.4-3.8-2.3-7.7-2.7-11.5C31.6,388.3,30.5,387.5,29.3,387.6z M60.8,336.2
			c-9.6,3.6-17.5,9.7-23.2,17.3c-5.7,7.6-9.3,16.7-10.2,26.2c-0.1,1.2,0.8,2.2,1.9,2.3c0.3,0,0.7,0,1-0.1c0.7-0.3,1.3-1,1.4-1.8
			c0.8-8.7,4.1-17.1,9.4-24.1c5.3-7,12.5-12.6,21.3-15.8c1.1-0.4,1.7-1.6,1.3-2.8C63.1,336.3,61.9,335.7,60.8,336.2z"/>
	</g>
	<g>
		<path class="st12" d="M922.3,131.1l19.4-12.1l-95.5-95.5l-12.1,19.4L922.3,131.1z M823.9,59.1L813.4,76l-8.6,13.8l-12.1,19.4
			l-8.6,13.8l0,0l0,0L772,142.5l-8.6,13.8l-12.1,19.4l-8.6,13.8l-12.1,19.4l-24.2,38.8l6.6,6.6l4.4,4.4l76-47.4l15.4-9.6l47-29.3
			l0,0l19.4-12.1l0,0l13.8-8.6l7.9-4.9l1.9-1.2l23.4-14.6L834,42.7l-9,14.5L823.9,59.1z M1006.4,78.5L886.6-41.4l-40.4,64.8
			l95.5,95.5L1006.4,78.5z M846.2,23.4L846.2,23.4L846.2,23.4L846.2,23.4z M834.1,42.8L834.1,42.8L834.1,42.8L834.1,42.8z"/>
		<path class="st3" d="M846.2,23.4l95.4,95.5L846.2,23.4z"/>
		<path class="st2" d="M840.1,21.7L840.1,21.7v22.9l0,0V21.7z"/>
		<path class="st2" d="M922.3,131.1l-88.2-88.2l0,0L922.3,131.1L922.3,131.1z"/>
		<path class="st2" d="M941.6,119l-19.3,12.1L941.6,119l-95.4-95.5L941.6,119z"/>
		<path class="st2" d="M823.9,59.1l1.2-1.8L813.4,76l0,0L823.9,59.1z"/>
		<path class="st2" d="M889.1,151.8l9.7-6.1l-1.8,1.2L889.1,151.8z"/>
		<path class="st2" d="M855.9,172.4l19.4-12l0,0L855.9,172.4z"/>
		<path class="st2" d="M792.7,109.2l12.1-19.4l0,0L792.7,109.2L792.7,109.2z"/>
		<path class="st2" d="M784.1,123.1l-12,19.3L784.1,123.1z"/>
		<path class="st2" d="M757.4,154.5L757.4,154.5v22.9l0,0V154.5z"/>
		<path class="st2" d="M730.7,208.8l12.1-19.4l0,0L730.7,208.8l25.7,25.7L730.7,208.8z"/>
		<path class="st13" d="M813.4,76L813.4,76L813.4,76L813.4,76z M751.4,175.6l-8.6,13.8l33,33l-19.4,12.1l-25.7-25.7l-24.2,38.8
			l6.6,6.6l4.4,4.4l76-47.4l-4,2.5L751.4,175.6z M784.1,123.1l58,58l-19.4,12.1L772,142.5l-8.6,13.8l45.5,45.5l47-29.3l-63.2-63.2
			L784.1,123.1z M751.4,175.6L751.4,175.6L751.4,175.6L751.4,175.6z M834.1,42.8L834.1,42.8L834.1,42.8L834.1,42.8z M886.6-41.4
			l-40.4,64.8l95.5,95.5l64.8-40.4L886.6-41.4z M813.4,76l-8.6,13.8l70.5,70.5l0,0l0,0l13.8-8.6l-37.9-37.9L813.4,76z M825.1,57.3
			l-1.1,1.8l1.6-2.5l83,83l-11.5,7.2l1.9-1.2l23.4-14.6l-88.2-88.2L825.1,57.3z"/>
		<path class="st11" d="M713.2,254.2l-6.7-6.6l-1.5-1.5l-26,26l14.1,14.1l26-26L713.2,254.2z"/>
	</g>
	<g>
		<path class="st12" d="M781.5,764.6l7.6,7l30.2-52.8l-9.9-3L781.5,764.6z M801.1,713.4l-8.6-2.6l-7-2.1l-9.9-3l-7-2.1l0,0l0,0
			l-9.9-3l-7-2.1l-9.9-3l-7-2.1l-9.9-3l-19.7-5.9l-2.1,3.7l-1.4,2.5l29.6,27.4l6,5.6l18.3,17l0,0l7.6,7l0,0l5.4,5l3.1,2.8l0.7,0.7
			l9.1,8.5l27.9-48.8l-7.4-2.2L801.1,713.4z M814.2,795.1l38-66.3l-33-9.9L789,771.6L814.2,795.1z M819.2,718.8L819.2,718.8
			L819.2,718.8L819.2,718.8z M809.4,715.8L809.4,715.8L809.4,715.8L809.4,715.8z"/>
		<path class="st3" d="M819.2,718.8L789,771.6L819.2,718.8z"/>
		<path class="st2" d="M814.3,712.2L814.3,712.2v10.3l0,0V712.2z"/>
		<path class="st2" d="M781.4,764.7l27.9-48.8l0,0L781.4,764.7L781.4,764.7z"/>
		<path class="st2" d="M789,771.6l-7.5-7L789,771.6l30.2-52.8L789,771.6z"/>
		<path class="st2" d="M801.1,713.4l0.9,0.2l-9.5-2.8l0,0L801.1,713.4z"/>
		<path class="st2" d="M768.5,752.7l3.8,3.5l-0.7-0.7L768.5,752.7z"/>
		<path class="st2" d="M755.6,740.7l7.6,7l0,0L755.6,740.7z"/>
		<path class="st2" d="M775.6,705.7l9.9,3l0,0L775.6,705.7L775.6,705.7z"/>
		<path class="st2" d="M768.6,703.6l-9.9-3L768.6,703.6z"/>
		<path class="st2" d="M746.8,691.9L746.8,691.9v10.3l0,0V691.9z"/>
		<path class="st2" d="M725,690.5l9.8,3l0,0L725,690.5l-8.2,14.2L725,690.5z"/>
		<path class="st13" d="M792.5,710.8L792.5,710.8L792.5,710.8L792.5,710.8z M741.8,695.6l-7-2.1l-10.4,18.3l-7.6-7l8.1-14.2
			l-19.7-5.9l-2.1,3.7l-1.4,2.5l29.6,27.4l-1.6-1.5L741.8,695.6z M768.6,703.6l-18.4,32.1l-7.6-7l16-28l-7-2.1l-14.4,25.2l18.3,17
			l20-35L768.6,703.6z M741.8,695.6L741.8,695.6L741.8,695.6L741.8,695.6z M809.4,715.8L809.4,715.8L809.4,715.8L809.4,715.8z
			 M852.2,728.7l-33-9.9L789,771.6l25.2,23.4L852.2,728.7z M792.5,710.8l-7-2.1l-22.3,39l0,0l0,0l5.4,5l12-20.9L792.5,710.8z
			 M802,713.6l-0.9-0.3l1.3,0.4l-26.3,45.9l-4.5-4.2l0.7,0.7l9.1,8.5l27.9-48.8L802,713.6z"/>
		<path class="st17" d="M703.1,688.2l2.1-3.6l0.5-0.9l-14.4-8.2l-4.5,7.8l14.4,8.2L703.1,688.2z"/>
	</g>
	<g>
		<path class="st12" d="M1280.6,477.9l10.3-0.5l-16.7-58.5l-9,5L1280.6,477.9z M1257.6,428.1l-7.8,4.3l-6.4,3.5l-9,5l-6.4,3.5l0,0
			l0,0l-9,5l-6.4,3.5l-9,5l-6.4,3.5l-9,5l-18,10l1.2,4.1l0.8,2.7l40.3-2l8.2-0.4l24.9-1.2l0,0l10.3-0.5l0,0l7.3-0.4l4.2-0.2h1
			l12.4-0.6l-15.4-54.1l-6.7,3.7L1257.6,428.1z M1325.3,475.7l-21-73.5l-30.1,16.7l16.7,58.5L1325.3,475.7z M1274.2,418.9
			L1274.2,418.9L1274.2,418.9L1274.2,418.9z M1265.2,423.9L1265.2,423.9L1265.2,423.9L1265.2,423.9z"/>
		<path class="st3" d="M1274.2,418.9l16.7,58.5L1274.2,418.9z"/>
		<path class="st2" d="M1269.7,416.2L1269.7,416.2v10.3l0,0V416.2z"/>
		<path class="st2" d="M1280.6,477.9l-15.4-54l0,0L1280.6,477.9L1280.6,477.9z"/>
		<path class="st2" d="M1290.9,477.4l-10.3,0.5L1290.9,477.4l-16.7-58.5L1290.9,477.4z"/>
		<path class="st2" d="M1257.6,428.1l0.8-0.5l-8.6,4.8l0,0L1257.6,428.1z"/>
		<path class="st2" d="M1263,478.8l5.2-0.3l-1,0.1L1263,478.8z"/>
		<path class="st2" d="M1245.4,479.7l10.3-0.5l0,0L1245.4,479.7z"/>
		<path class="st2" d="M1234.3,440.8l9-5l0,0L1234.3,440.8L1234.3,440.8z"/>
		<path class="st2" d="M1227.9,444.5l-9,5L1227.9,444.5z"/>
		<path class="st2" d="M1208,450.4L1208,450.4v10.3l0,0V450.4z"/>
		<path class="st2" d="M1188.1,466.6l9-5l0,0L1188.1,466.6l4.5,15.7L1188.1,466.6z"/>
		<path class="st13" d="M1249.8,432.4L1249.8,432.4L1249.8,432.4L1249.8,432.4z M1203.5,458l-6.4,3.5l5.8,20.2l-10.3,0.5l-4.5-15.8
			l-18,10l1.2,4.1l0.8,2.7l40.3-2l-2.1,0.1L1203.5,458z M1227.9,444.5l10.1,35.6l-10.3,0.5l-8.9-31.1l-6.4,3.5l8,27.9l24.9-1.2
			l-11-38.7L1227.9,444.5z M1203.5,458L1203.5,458L1203.5,458L1203.5,458z M1265.2,423.9L1265.2,423.9L1265.2,423.9L1265.2,423.9z
			 M1304.3,402.2l-30.1,16.7l16.7,58.5l34.4-1.7L1304.3,402.2z M1249.8,432.4l-6.4,3.5l12.3,43.2l0,0l0,0l7.3-0.4l-6.6-23.2
			L1249.8,432.4z M1258.4,427.6l-0.8,0.5l1.2-0.7l14.5,50.9l-6.1,0.3h1l12.4-0.6l-15.4-54.1L1258.4,427.6z"/>
		<path class="st17" d="M1171.2,480.6l-1.2-4.1l-0.2-0.9l-16,4.6l2.5,8.6l16-4.5L1171.2,480.6z"/>
	</g>
	<g>
		<path class="st12" d="M673.4,392.7l-8.3-6.2l-24.5,55.7l10.1,1.9L673.4,392.7z M659.4,445.7l8.8,1.7l7.2,1.4l10.1,1.9l7.2,1.4l0,0
			l0,0l10.1,1.9l7.2,1.4l10.1,1.9l7.2,1.4l10.1,1.9l20.3,3.8l1.7-3.9l1.1-2.6l-32.3-24.2l-6.5-4.9l-20-15l0,0l-8.3-6.2l0,0l-5.9-4.4
			l-3.3-2.6l-0.8-0.7l-10-7.5L651,443.7l7.6,1.5L659.4,445.7z M637.7,365.9l-30.8,69.9l33.9,6.4l24.5-55.7L637.7,365.9z
			 M640.7,442.3L640.7,442.3L640.7,442.3L640.7,442.3z M650.8,444.2L650.8,444.2L650.8,444.2L650.8,444.2z"/>
		<path class="st3" d="M640.7,442.3l24.6-55.8L640.7,442.3z"/>
		<path class="st2" d="M641.7,446.4L641.7,446.4l8-6.5l0,0L641.7,446.4z"/>
		<path class="st2" d="M673.5,392.6L650.8,444l0,0L673.5,392.6L673.5,392.6z"/>
		<path class="st2" d="M665.2,386.5l8.2,6.2L665.2,386.5l-24.6,55.8L665.2,386.5z"/>
		<path class="st2" d="M659.4,445.7l-1-0.1l9.8,1.8l0,0L659.4,445.7z"/>
		<path class="st2" d="M687.6,403.3l-4.1-3.1l0.8,0.5L687.6,403.3z"/>
		<path class="st2" d="M701.7,413.8l-8.3-6.2l0,0L701.7,413.8z"/>
		<path class="st2" d="M685.4,450.7l-10.1-1.9l0,0L685.4,450.7L685.4,450.7z"/>
		<path class="st2" d="M692.7,452l10.1,1.9L692.7,452z"/>
		<path class="st2" d="M711,459.5L711,459.5l8-6.5l0,0L711,459.5z"/>
		<path class="st2" d="M737.4,460.5l-10.1-1.9l0,0L737.4,460.5l6.6-14.9L737.4,460.5z"/>
		<path class="st13" d="M668.1,447.4L668.1,447.4L668.1,447.4L668.1,447.4z M720.1,457.2l7.2,1.4l8.5-19.3l8.3,6.2l-6.6,14.9
			l20.3,3.8l1.7-3.9l1.1-2.6l-32.3-24.2l1.7,1.3L720.1,457.2z M692.7,452l14.9-33.8l8.3,6.2l-13,29.6l7.2,1.4l11.6-26.5l-20-15
			l-16.2,36.9L692.7,452z M720.1,457.2L720.1,457.2L720.1,457.2L720.1,457.2z M650.8,444.2L650.8,444.2L650.8,444.2L650.8,444.2z
			 M606.9,435.8l33.9,6.4l24.5-55.7l-27.6-20.7L606.9,435.8z M668.1,447.4l7.2,1.4l18.1-41.1l0,0l0,0l-5.9-4.4l-9.7,22.1
			L668.1,447.4z M658.4,445.6l0.9,0.2l-1.3-0.2l21.3-48.5l4.9,3.7l-0.8-0.7l-10-7.5l-22.7,51.5L658.4,445.6z"/>
		<path class="st17" d="M759.3,460.4l-1.7,3.9l-0.4,0.8l15.2,6.8l3.6-8.3l-15.1-6.7L759.3,460.4z"/>
	</g>
</g>
</svg>
